Teko_1.ufo
<glyph name="exclam" format="1">
  <advance width="297"/>
  <unicode hex="0021"/>
  <outline>
    <contour>
      <point x="50" y="642" type="line"/>
      <point x="80" y="233" type="line"/>
      <point x="217" y="233" type="line"/>
      <point x="247" y="642" type="line"/>
    </contour>
    <contour>
      <point x="62" y="0" type="line"/>
      <point x="234" y="0" type="line"/>
      <point x="234" y="164" type="line"/>
      <point x="62" y="164" type="line"/>
    </contour>
  </outline>
</glyph>
<glyph name="quotedbl" format="1">
  <advance width="434"/>
  <unicode hex="0022"/>
  <outline>
    <contour>
      <point x="40" y="642" type="line"/>
      <point x="40" y="376" type="line"/>
      <point x="193" y="376" type="line"/>
      <point x="193" y="642" type="line"/>
    </contour>
    <contour>
      <point x="241" y="642" type="line"/>
      <point x="241" y="376" type="line"/>
      <point x="394" y="376" type="line"/>
      <point x="394" y="642" type="line"/>
    </contour>
  </outline>
</glyph>
<glyph name="numbersign" format="1">
  <advance width="678"/>
  <unicode hex="0023"/>
  <outline>
    <contour>
      <point x="216" y="641" type="line"/>
      <point x="71" y="0" type="line"/>
      <point x="217" y="0" type="line"/>
      <point x="361" y="641" type="line"/>
    </contour>
    <contour>
      <point x="648" y="499" type="line"/>
      <point x="77" y="499" type="line"/>
      <point x="77" y="389" type="line"/>
      <point x="648" y="389" type="line"/>
    </contour>
    <contour>
      <point x="462" y="0" type="line"/>
      <point x="607" y="641" type="line"/>
      <point x="461" y="641" type="line"/>
      <point x="317" y="0" type="line"/>
    </contour>
    <contour>
      <point x="30" y="142" type="line"/>
      <point x="601" y="142" type="line"/>
      <point x="601" y="252" type="line"/>
      <point x="30" y="252" type="line"/>
    </contour>
  </outline>
</glyph>
<glyph name="ampersand" format="1">
  <advance width="625"/>
  <unicode hex="0026"/>
  <outline>
    <contour>
      <point x="662" y="-36" type="line"/>
      <point x="305" y="345" type="line" smooth="yes"/>
      <point x="247" y="407"/>
      <point x="236" y="408"/>
      <point x="236" y="443" type="curve" smooth="yes"/>
      <point x="236" y="508" type="line" smooth="yes"/>
      <point x="236" y="523"/>
      <point x="244" y="530"/>
      <point x="261" y="530" type="curve" smooth="yes"/>
      <point x="284" y="530" type="line" smooth="yes"/>
      <point x="301" y="530"/>
      <point x="309" y="523"/>
      <point x="309" y="508" type="curve" smooth="yes"/>
      <point x="309" y="447" type="line" smooth="yes"/>
      <point x="309" y="420"/>
      <point x="291" y="411"/>
      <point x="253" y="389" type="curve" smooth="yes"/>
      <point x="124" y="316" type="line" smooth="yes"/>
      <point x="54" y="277"/>
      <point x="30" y="251"/>
      <point x="30" y="182" type="curve" smooth="yes"/>
      <point x="30" y="124" type="line" smooth="yes"/>
      <point x="30" y="49"/>
      <point x="70" y="0"/>
      <point x="177" y="0" type="curve" smooth="yes"/>
      <point x="442" y="0" type="line" smooth="yes"/>
      <point x="549" y="0"/>
      <point x="597" y="49"/>
      <point x="597" y="124" type="curve" smooth="yes"/>
      <point x="597" y="251" type="line"/>
      <point x="459" y="251" type="line"/>
      <point x="459" y="137" type="line" smooth="yes"/>
      <point x="459" y="122"/>
      <point x="451" y="115"/>
      <point x="434" y="115" type="curve" smooth="yes"/>
      <point x="220" y="115" type="line" smooth="yes"/>
      <point x="203" y="115"/>
      <point x="195" y="122"/>
      <point x="195" y="137" type="curve" smooth="yes"/>
      <point x="195" y="179" type="line" smooth="yes"/>
      <point x="195" y="199"/>
      <point x="203" y="208"/>
      <point x="218" y="217" type="curve" smooth="yes"/>
      <point x="369" y="303" type="line"/>
      <point x="437" y="344"/>
      <point x="474" y="371"/>
      <point x="474" y="450" type="curve" smooth="yes"/>
      <point x="474" y="518" type="line" smooth="yes"/>
      <point x="474" y="593"/>
      <point x="437" y="642"/>
      <point x="330" y="642" type="curve" smooth="yes"/>
      <point x="213" y="642" type="line" smooth="yes"/>
      <point x="106" y="642"/>
      <point x="66" y="593"/>
      <point x="66" y="518" type="curve" smooth="yes"/>
      <point x="66" y="450" type="line" smooth="yes"/>
      <point x="66" y="409"/>
      <point x="85" y="383"/>
      <point x="136" y="330" type="curve" smooth="yes"/>
      <point x="488" y="-36" type="line"/>
    </contour>
  </outline>
</glyph>
<glyph name="parenleft" format="1">
  <advance width="337"/>
  <unicode hex="0028"/>
  <outline>
    <contour>
      <point x="40" y="497" type="curve"/>
      <point x="40" y="141" type="line" smooth="yes"/>
      <point x="40" y="-60"/>
      <point x="143" y="-166"/>
      <point x="318" y="-166" type="curve" smooth="yes"/>
      <point x="327" y="-166" type="line"/>
      <point x="327" y="-21" type="line"/>
      <point x="318" y="-21" type="line" smooth="yes"/>
      <point x="263" y="-21"/>
      <point x="215" y="14"/>
      <point x="215" y="138" type="curve" smooth="yes"/>
      <point x="215" y="500" type="line" smooth="yes"/>
      <point x="215" y="624"/>
      <point x="263" y="659"/>
      <point x="318" y="659" type="curve" smooth="yes"/>
      <point x="327" y="659" type="line"/>
      <point x="327" y="804" type="line"/>
      <point x="318" y="804" type="line" smooth="yes"/>
      <point x="143" y="804"/>
      <point x="40" y="698"/>
    </contour>
  </outline>
</glyph>
<glyph name="asterisk" format="1">
  <advance width="390"/>
  <unicode hex="002A"/>
  <outline>
    <contour>
      <point x="211" y="476" type="line"/>
      <point x="211" y="476"/>
      <point x="258" y="526"/>
      <point x="258" y="625" type="curve" smooth="yes"/>
      <point x="258" y="642" type="line"/>
      <point x="133" y="642" type="line"/>
      <point x="133" y="626" type="line" smooth="yes"/>
      <point x="133" y="526"/>
      <point x="180" y="476"/>
      <point x="180" y="476" type="curve"/>
    </contour>
    <contour>
      <point x="200" y="491" type="line"/>
      <point x="200" y="491"/>
      <point x="167" y="551"/>
      <point x="73" y="581" type="curve" smooth="yes"/>
      <point x="57" y="586" type="line"/>
      <point x="18" y="468" type="line"/>
      <point x="33" y="463" type="line"/>
      <point x="129" y="431"/>
      <point x="191" y="461"/>
      <point x="191" y="461" type="curve"/>
    </contour>
    <contour>
      <point x="183" y="485" type="line"/>
      <point x="183" y="485"/>
      <point x="115" y="471"/>
      <point x="58" y="392" type="curve" smooth="yes"/>
      <point x="47" y="377" type="line"/>
      <point x="148" y="304" type="line"/>
      <point x="158" y="317" type="line" smooth="yes"/>
      <point x="217" y="398"/>
      <point x="208" y="467"/>
      <point x="208" y="467" type="curve"/>
    </contour>
    <contour>
      <point x="183" y="467" type="line"/>
      <point x="183" y="467"/>
      <point x="176" y="398"/>
      <point x="233" y="319" type="curve" smooth="yes"/>
      <point x="244" y="305" type="line"/>
      <point x="345" y="378" type="line"/>
      <point x="335" y="391" type="line"/>
      <point x="277" y="472"/>
      <point x="208" y="485"/>
      <point x="208" y="485" type="curve"/>
    </contour>
    <contour>
      <point x="200" y="461" type="line"/>
      <point x="200" y="461"/>
      <point x="264" y="432"/>
      <point x="357" y="463" type="curve" smooth="yes"/>
      <point x="373" y="469" type="line"/>
      <point x="335" y="587" type="line"/>
      <point x="319" y="582" type="line"/>
      <point x="224" y="552"/>
      <point x="191" y="491"/>
      <point x="191" y="491" type="curve"/>
    </contour>
  </outline>
</glyph>
<glyph name="plus" format="1">
  <advance width="513"/>
  <unicode hex="002B"/>
  <outline>
    <contour>
      <point x="15" y="257" type="line"/>
      <point x="498" y="257" type="line"/>
      <point x="498" y="382" type="line"/>
      <point x="15" y="382" type="line"/>
    </contour>
    <contour>
      <point x="175" y="537" type="line"/>
      <point x="175" y="102" type="line"/>
      <point x="338" y="102" type="line"/>
      <point x="338" y="537" type="line"/>
    </contour>
  </outline>
</glyph>
<glyph name="comma" format="1">
  <advance width="252"/>
  <unicode hex="002C"/>
  <outline>
    <contour>
      <point x="40" y="164" type="line"/>
      <point x="40" y="-149" type="line"/>
      <point x="92" y="-149" type="line"/>
      <point x="212" y="74" type="line"/>
      <point x="212" y="164" type="line"/>
    </contour>
  </outline>
</glyph>
<glyph name="period" format="1">
  <advance width="252"/>
  <unicode hex="002E"/>
  <outline>
    <contour>
      <point x="40" y="0" type="line"/>
      <point x="212" y="0" type="line"/>
      <point x="212" y="164" type="line"/>
      <point x="40" y="164" type="line"/>
    </contour>
  </outline>
</glyph>
<glyph name="one" format="1">
  <advance width="323"/>
  <unicode hex="0031"/>
  <outline>
    <contour>
      <point x="224" y="642" type="line"/>
      <point x="18" y="642" type="line"/>
      <point x="18" y="517" type="line"/>
      <point x="224" y="517" type="line"/>
    </contour>
    <contour>
      <point x="108" y="642" type="line"/>
      <point x="108" y="0" type="line"/>
      <point x="283" y="0" type="line"/>
      <point x="283" y="642" type="line"/>
    </contour>
  </outline>
</glyph>
<glyph name="three" format="1">
  <advance width="477"/>
  <unicode hex="0033"/>
  <outline>
    <contour>
      <point x="200" y="495" type="line"/>
      <point x="200" y="510"/>
      <point x="208" y="517"/>
      <point x="225" y="517" type="curve" smooth="yes"/>
      <point x="245" y="517" type="line" smooth="yes"/>
      <point x="262" y="517"/>
      <point x="270" y="510"/>
      <point x="270" y="495" type="curve" smooth="yes"/>
      <point x="270" y="405" type="line" smooth="yes"/>
      <point x="270" y="390"/>
      <point x="262" y="383"/>
      <point x="245" y="383" type="curve" smooth="yes"/>
      <point x="164" y="383" type="line"/>
      <point x="164" y="268" type="line"/>
      <point x="245" y="268" type="line" smooth="yes"/>
      <point x="262" y="268"/>
      <point x="270" y="261"/>
      <point x="270" y="246" type="curve" smooth="yes"/>
      <point x="270" y="147" type="line" smooth="yes"/>
      <point x="270" y="132"/>
      <point x="262" y="125"/>
      <point x="245" y="125" type="curve" smooth="yes"/>
      <point x="225" y="125" type="line" smooth="yes"/>
      <point x="208" y="125"/>
      <point x="200" y="132"/>
      <point x="200" y="147" type="curve" smooth="yes"/>
      <point x="200" y="210" type="line"/>
      <point x="25" y="210" type="line"/>
      <point x="25" y="124" type="line" smooth="yes"/>
      <point x="25" y="49"/>
      <point x="65" y="0"/>
      <point x="172" y="0" type="curve" smooth="yes"/>
      <point x="295" y="0" type="line" smooth="yes"/>
      <point x="402" y="0"/>
      <point x="442" y="49"/>
      <point x="442" y="124" type="curve" smooth="yes"/>
      <point x="442" y="224" type="line" smooth="yes"/>
      <point x="442" y="275"/>
      <point x="433" y="310"/>
      <point x="394" y="327" type="curve"/>
      <point x="433" y="348"/>
      <point x="442" y="388"/>
      <point x="442" y="440" type="curve" smooth="yes"/>
      <point x="442" y="518" type="line" smooth="yes"/>
      <point x="442" y="593"/>
      <point x="402" y="642"/>
      <point x="295" y="642" type="curve" smooth="yes"/>
      <point x="172" y="642" type="line" smooth="yes"/>
      <point x="65" y="642"/>
      <point x="25" y="593"/>
      <point x="25" y="518" type="curve" smooth="yes"/>
      <point x="25" y="432" type="line"/>
      <point x="200" y="432" type="line"/>
    </contour>
  </outline>
</glyph>
<glyph name="four" format="1">
  <advance width="507"/>
  <unicode hex="0034"/>
  <outline>
    <contour>
      <point x="57" y="115" type="line"/>
      <point x="507" y="115" type="line"/>
      <point x="507" y="242" type="line"/>
      <point x="57" y="242" type="line"/>
    </contour>
    <contour>
      <point x="10" y="115" type="line"/>
      <point x="87" y="115" type="line"/>
      <point x="427" y="642" type="line"/>
      <point x="251" y="642" type="line"/>
      <point x="10" y="270" type="line"/>
    </contour>
    <contour>
      <point x="275" y="369" type="line"/>
      <point x="275" y="0" type="line"/>
      <point x="439" y="0" type="line"/>
      <point x="439" y="369" type="line"/>
    </contour>
  </outline>
</glyph>
<glyph name="colon" format="1">
  <advance width="252"/>
  <unicode hex="003A"/>
  <outline>
    <contour>
      <point x="40" y="335" type="line"/>
      <point x="212" y="335" type="line"/>
      <point x="212" y="499" type="line"/>
      <point x="40" y="499" type="line"/>
    </contour>
    <contour>
      <point x="40" y="0" type="line"/>
      <point x="212" y="0" type="line"/>
      <point x="212" y="164" type="line"/>
      <point x="40" y="164" type="line"/>
    </contour>
  </outline>
</glyph>
<glyph name="semicolon" format="1">
  <advance width="252"/>
  <unicode hex="003B"/>
  <outline>
    <contour>
      <point x="40" y="164" type="line"/>
      <point x="40" y="-149" type="line"/>
      <point x="92" y="-149" type="line"/>
      <point x="212" y="74" type="line"/>
      <point x="212" y="164" type="line"/>
    </contour>
    <contour>
      <point x="40" y="335" type="line"/>
      <point x="212" y="335" type="line"/>
      <point x="212" y="499" type="line"/>
      <point x="40" y="499" type="line"/>
    </contour>
  </outline>
</glyph>
<glyph name="less" format="1">
  <advance width="533"/>
  <unicode hex="003C"/>
  <outline>
    <contour>
      <point x="508" y="402" type="line"/>
      <point x="508" y="536" type="line"/>
      <point x="25" y="398" type="line"/>
      <point x="25" y="252" type="line"/>
      <point x="508" y="106" type="line"/>
      <point x="508" y="242" type="line"/>
      <point x="193" y="323" type="line"/>
    </contour>
  </outline>
</glyph>
<glyph name="greater" format="1">
  <advance width="533"/>
  <unicode hex="003E"/>
  <outline>
    <contour>
      <point x="340" y="323" type="line"/>
      <point x="25" y="242" type="line"/>
      <point x="25" y="106" type="line"/>
      <point x="508" y="252" type="line"/>
      <point x="508" y="398" type="line"/>
      <point x="25" y="536" type="line"/>
      <point x="25" y="402" type="line"/>
    </contour>
  </outline>
</glyph>
<glyph name="question" format="1">
  <advance width="469"/>
  <unicode hex="003F"/>
  <outline>
    <contour>
      <point x="274" y="408" type="line"/>
      <point x="274" y="393"/>
      <point x="266" y="386"/>
      <point x="249" y="386" type="curve" smooth="yes"/>
      <point x="194" y="386" type="line"/>
      <point x="194" y="294" type="line"/>
      <point x="302" y="294" type="line" smooth="yes"/>
      <point x="409" y="294"/>
      <point x="449" y="343"/>
      <point x="449" y="418" type="curve" smooth="yes"/>
      <point x="449" y="518" type="line" smooth="yes"/>
      <point x="449" y="593"/>
      <point x="409" y="642"/>
      <point x="302" y="642" type="curve" smooth="yes"/>
      <point x="227" y="642" type="line"/>
      <point x="227" y="527" type="line"/>
      <point x="249" y="527" type="line" smooth="yes"/>
      <point x="266" y="527"/>
      <point x="274" y="520"/>
      <point x="274" y="505" type="curve" smooth="yes"/>
    </contour>
    <contour>
      <point x="139" y="386" type="line"/>
      <point x="154" y="233" type="line"/>
      <point x="300" y="233" type="line"/>
      <point x="316" y="386" type="line"/>
    </contour>
    <contour>
      <point x="139" y="0" type="line"/>
      <point x="311" y="0" type="line"/>
      <point x="311" y="164" type="line"/>
      <point x="139" y="164" type="line"/>
    </contour>
    <contour>
      <point x="195" y="505" type="line"/>
      <point x="195" y="520"/>
      <point x="203" y="527"/>
      <point x="220" y="527" type="curve" smooth="yes"/>
      <point x="230" y="527" type="line"/>
      <point x="230" y="642" type="line"/>
      <point x="167" y="642" type="line" smooth="yes"/>
      <point x="60" y="642"/>
      <point x="20" y="593"/>
      <point x="20" y="518" type="curve" smooth="yes"/>
      <point x="20" y="437" type="line"/>
      <point x="195" y="437" type="line"/>
    </contour>
  </outline>
</glyph>
<glyph name="at" format="1">
  <advance width="863"/>
  <unicode hex="0040"/>
  <outline>
    <contour>
      <point x="247" y="324" type="curve"/>
      <point x="247" y="193" type="line" smooth="yes"/>
      <point x="247" y="125"/>
      <point x="282" y="80"/>
      <point x="368" y="80" type="curve" smooth="yes"/>
      <point x="384" y="80" type="line" smooth="yes"/>
      <point x="433" y="80"/>
      <point x="460" y="103"/>
      <point x="468" y="141" type="curve"/>
      <point x="468" y="80" type="line"/>
      <point x="684" y="80" type="line" smooth="yes"/>
      <point x="779" y="80"/>
      <point x="817" y="129"/>
      <point x="817" y="204" type="curve" smooth="yes"/>
      <point x="817" y="494" type="line" smooth="yes"/>
      <point x="817" y="569"/>
      <point x="781" y="618"/>
      <point x="686" y="618" type="curve" smooth="yes"/>
      <point x="173" y="618" type="line" smooth="yes"/>
      <point x="78" y="618"/>
      <point x="40" y="569"/>
      <point x="40" y="494" type="curve" smooth="yes"/>
      <point x="40" y="20" type="line" smooth="yes"/>
      <point x="40" y="-55"/>
      <point x="78" y="-104"/>
      <point x="173" y="-104" type="curve" smooth="yes"/>
      <point x="603" y="-104" type="line"/>
      <point x="603" y="11" type="line"/>
      <point x="215" y="11" type="line" smooth="yes"/>
      <point x="198" y="11"/>
      <point x="190" y="18"/>
      <point x="190" y="33" type="curve" smooth="yes"/>
      <point x="190" y="481" type="line" smooth="yes"/>
      <point x="190" y="496"/>
      <point x="198" y="503"/>
      <point x="215" y="503" type="curve" smooth="yes"/>
      <point x="646" y="503" type="line" smooth="yes"/>
      <point x="663" y="503"/>
      <point x="671" y="496"/>
      <point x="671" y="481" type="curve" smooth="yes"/>
      <point x="671" y="206" type="line" smooth="yes"/>
      <point x="671" y="191"/>
      <point x="663" y="184"/>
      <point x="646" y="184" type="curve" smooth="yes"/>
      <point x="602" y="184" type="line"/>
      <point x="602" y="437" type="line"/>
      <point x="467" y="437" type="line"/>
      <point x="467" y="379" type="line"/>
      <point x="458" y="415"/>
      <point x="431" y="437"/>
      <point x="384" y="437" type="curve" smooth="yes"/>
      <point x="368" y="437" type="line" smooth="yes"/>
      <point x="282" y="437"/>
      <point x="247" y="392"/>
    </contour>
    <contour>
      <point x="393" y="312" type="line"/>
      <point x="393" y="326"/>
      <point x="400" y="332"/>
      <point x="415" y="332" type="curve" smooth="yes"/>
      <point x="440" y="332" type="line" smooth="yes"/>
      <point x="456" y="332"/>
      <point x="464" y="324"/>
      <point x="464" y="305" type="curve" smooth="yes"/>
      <point x="464" y="212" type="line" smooth="yes"/>
      <point x="464" y="193"/>
      <point x="456" y="185"/>
      <point x="440" y="185" type="curve" smooth="yes"/>
      <point x="415" y="185" type="line" smooth="yes"/>
      <point x="400" y="185"/>
      <point x="393" y="191"/>
      <point x="393" y="205" type="curve" smooth="yes"/>
    </contour>
  </outline>
</glyph>
<glyph name="A" format="1">
  <advance width="543"/>
  <unicode hex="0041"/>
  <outline>
    <contour>
      <point x="433" y="220" type="line"/>
      <point x="112" y="220" type="line"/>
      <point x="112" y="96" type="line"/>
      <point x="433" y="96" type="line"/>
    </contour>
    <contour>
      <point x="543" y="0" type="line"/>
      <point x="378" y="642" type="line"/>
      <point x="165" y="642" type="line"/>
      <point x="0" y="0" type="line"/>
      <point x="172" y="0" type="line"/>
      <point x="271" y="451" type="line"/>
      <point x="367" y="0" type="line"/>
    </contour>
  </outline>
</glyph>
<glyph name="E" format="1">
  <advance width="449"/>
  <unicode hex="0045"/>
  <outline>
    <contour>
      <point x="40" y="642" type="line"/>
      <point x="40" y="0" type="line"/>
      <point x="215" y="0" type="line"/>
      <point x="215" y="642" type="line"/>
    </contour>
    <contour>
      <point x="396" y="386" type="line"/>
      <point x="115" y="386" type="line"/>
      <point x="115" y="261" type="line"/>
      <point x="396" y="261" type="line"/>
    </contour>
    <contour>
      <point x="425" y="642" type="line"/>
      <point x="102" y="642" type="line"/>
      <point x="102" y="517" type="line"/>
      <point x="425" y="517" type="line"/>
    </contour>
    <contour>
      <point x="434" y="125" type="line"/>
      <point x="102" y="125" type="line"/>
      <point x="102" y="0" type="line"/>
      <point x="434" y="0" type="line"/>
    </contour>
  </outline>
</glyph>
<glyph name="I" format="1">
  <advance width="255"/>
  <unicode hex="0049"/>
  <outline>
    <contour>
      <point x="40" y="642" type="line"/>
      <point x="40" y="0" type="line"/>
      <point x="215" y="0" type="line"/>
      <point x="215" y="642" type="line"/>
    </contour>
  </outline>
</glyph>
<glyph name="J" format="1">
  <advance width="457"/>
  <unicode hex="004A"/>
  <outline>
    <contour>
      <point x="10" y="257" type="line"/>
      <point x="10" y="124" type="line" smooth="yes"/>
      <point x="10" y="49"/>
      <point x="50" y="0"/>
      <point x="157" y="0" type="curve" smooth="yes"/>
      <point x="274" y="0" type="line" smooth="yes"/>
      <point x="381" y="0"/>
      <point x="421" y="49"/>
      <point x="421" y="124" type="curve" smooth="yes"/>
      <point x="421" y="642" type="line"/>
      <point x="246" y="642" type="line"/>
      <point x="246" y="147" type="line" smooth="yes"/>
      <point x="246" y="132"/>
      <point x="238" y="125"/>
      <point x="221" y="125" type="curve" smooth="yes"/>
      <point x="210" y="125" type="line" smooth="yes"/>
      <point x="193" y="125"/>
      <point x="185" y="132"/>
      <point x="185" y="147" type="curve" smooth="yes"/>
      <point x="185" y="257" type="line"/>
    </contour>
  </outline>
</glyph>
<glyph name="K" format="1">
  <advance width="530"/>
  <unicode hex="004B"/>
  <outline>
    <contour>
      <point x="216" y="328" type="line"/>
      <point x="336" y="0" type="line"/>
      <point x="524" y="0" type="line"/>
      <point x="398" y="328" type="line"/>
    </contour>
    <contour>
      <point x="398" y="328" type="line"/>
      <point x="523" y="642" type="line"/>
      <point x="335" y="642" type="line"/>
      <point x="216" y="328" type="line"/>
    </contour>
    <contour>
      <point x="40" y="642" type="line"/>
      <point x="40" y="0" type="line"/>
      <point x="215" y="0" type="line"/>
      <point x="215" y="642" type="line"/>
    </contour>
  </outline>
</glyph>
<glyph name="L" format="1">
  <advance width="414"/>
  <unicode hex="004C"/>
  <outline>
    <contour>
      <point x="40" y="642" type="line"/>
      <point x="40" y="0" type="line"/>
      <point x="215" y="0" type="line"/>
      <point x="215" y="642" type="line"/>
    </contour>
    <contour>
      <point x="98" y="0" type="line"/>
      <point x="414" y="0" type="line"/>
      <point x="414" y="125" type="line"/>
      <point x="98" y="125" type="line"/>
    </contour>
  </outline>
</glyph>
<glyph name="M" format="1">
  <advance width="670"/>
  <unicode hex="004D"/>
  <outline>
    <contour>
      <point x="395" y="139" type="line"/>
      <point x="475" y="408" type="line"/>
      <point x="475" y="0" type="line"/>
      <point x="630" y="0" type="line"/>
      <point x="630" y="642" type="line"/>
      <point x="439" y="642" type="line"/>
      <point x="335" y="299" type="line"/>
      <point x="231" y="642" type="line"/>
      <point x="40" y="642" type="line"/>
      <point x="40" y="0" type="line"/>
      <point x="196" y="0" type="line"/>
      <point x="196" y="406" type="line"/>
      <point x="275" y="139" type="line"/>
    </contour>
  </outline>
</glyph>
<glyph name="N" format="1">
  <advance width="533"/>
  <unicode hex="004E"/>
  <outline>
    <contour>
      <point x="333" y="642" type="line"/>
      <point x="333" y="299" type="line"/>
      <point x="190" y="642" type="line"/>
      <point x="40" y="642" type="line"/>
      <point x="40" y="0" type="line"/>
      <point x="200" y="0" type="line"/>
      <point x="200" y="337" type="line"/>
      <point x="343" y="0" type="line"/>
      <point x="493" y="0" type="line"/>
      <point x="493" y="642" type="line"/>
    </contour>
  </outline>
</glyph>
<glyph name="U" format="1">
  <advance width="522"/>
  <unicode hex="0055"/>
  <outline>
    <contour>
      <point x="307" y="147" type="line"/>
      <point x="307" y="132"/>
      <point x="299" y="125"/>
      <point x="282" y="125" type="curve" smooth="yes"/>
      <point x="249" y="125" type="line"/>
      <point x="249" y="0" type="line"/>
      <point x="335" y="0" type="line" smooth="yes"/>
      <point x="442" y="0"/>
      <point x="482" y="49"/>
      <point x="482" y="124" type="curve" smooth="yes"/>
      <point x="482" y="642" type="line"/>
      <point x="307" y="642" type="line"/>
    </contour>
    <contour>
      <point x="215" y="642" type="line"/>
      <point x="40" y="642" type="line"/>
      <point x="40" y="124" type="line" smooth="yes"/>
      <point x="40" y="49"/>
      <point x="80" y="0"/>
      <point x="187" y="0" type="curve" smooth="yes"/>
      <point x="273" y="0" type="line"/>
      <point x="273" y="125" type="line"/>
      <point x="240" y="125" type="line" smooth="yes"/>
      <point x="223" y="125"/>
      <point x="215" y="132"/>
      <point x="215" y="147" type="curve" smooth="yes"/>
    </contour>
  </outline>
</glyph>
<glyph name="V" format="1">
  <advance width="533"/>
  <unicode hex="0056"/>
  <outline>
    <contour>
      <point x="344" y="642" type="line"/>
      <point x="266" y="213" type="line"/>
      <point x="189" y="642" type="line"/>
      <point x="7" y="642" type="line"/>
      <point x="165" y="0" type="line"/>
      <point x="368" y="0" type="line"/>
      <point x="526" y="642" type="line"/>
    </contour>
  </outline>
</glyph>
<glyph name="X" format="1">
  <advance width="521"/>
  <unicode hex="0058"/>
  <outline>
    <contour>
      <point x="354" y="326" type="line"/>
      <point x="497" y="642" type="line"/>
      <point x="309" y="642" type="line"/>
      <point x="255" y="478" type="line"/>
      <point x="202" y="642" type="line"/>
      <point x="4" y="642" type="line"/>
      <point x="157" y="326" type="line"/>
      <point x="0" y="0" type="line"/>
      <point x="186" y="0" type="line"/>
      <point x="255" y="180" type="line"/>
      <point x="324" y="0" type="line"/>
      <point x="521" y="0" type="line"/>
    </contour>
  </outline>
</glyph>
<glyph name="bracketright" format="1">
  <advance width="317"/>
  <unicode hex="005D"/>
  <outline>
    <contour>
      <point x="218" y="791" type="line"/>
      <point x="10" y="791" type="line"/>
      <point x="10" y="666" type="line"/>
      <point x="218" y="666" type="line"/>
    </contour>
    <contour>
      <point x="102" y="791" type="line"/>
      <point x="102" y="-157" type="line"/>
      <point x="277" y="-157" type="line"/>
      <point x="277" y="791" type="line"/>
    </contour>
    <contour>
      <point x="218" y="-32" type="line"/>
      <point x="10" y="-32" type="line"/>
      <point x="10" y="-157" type="line"/>
      <point x="218" y="-157" type="line"/>
    </contour>
  </outline>
</glyph>
<glyph name="asciicircum" format="1">
  <advance width="704"/>
  <unicode hex="005E"/>
  <outline>
    <contour>
      <point x="214" y="669" type="line"/>
      <point x="92" y="280" type="line"/>
      <point x="269" y="280" type="line"/>
      <point x="330" y="525" type="line"/>
      <point x="391" y="280" type="line"/>
      <point x="568" y="280" type="line"/>
      <point x="446" y="669" type="line"/>
    </contour>
  </outline>
</glyph>
<glyph name="underscore" format="1">
  <advance width="474"/>
  <unicode hex="005F"/>
  <outline>
    <contour>
      <point x="0" y="-155" type="line"/>
      <point x="474" y="-155" type="line"/>
      <point x="474" y="-40" type="line"/>
      <point x="0" y="-40" type="line"/>
    </contour>
  </outline>
</glyph>
<glyph name="grave" format="1">
  <advance width="500"/>
  <unicode hex="0060"/>
  <outline>
    <contour>
      <point x="266" y="682" type="line"/>
      <point x="96" y="682" type="line"/>
      <point x="229" y="532" type="line"/>
      <point x="363" y="532" type="line"/>
    </contour>
  </outline>
</glyph>
<glyph name="a" format="1">
  <advance width="479"/>
  <unicode hex="0061"/>
  <outline>
    <contour>
      <point x="200" y="240" type="line"/>
      <point x="200" y="352" type="line" smooth="yes"/>
      <point x="200" y="367"/>
      <point x="208" y="374"/>
      <point x="225" y="374" type="curve" smooth="yes"/>
      <point x="242" y="374" type="line" smooth="yes"/>
      <point x="260" y="374"/>
      <point x="269" y="365"/>
      <point x="269" y="344" type="curve" smooth="yes"/>
      <point x="269" y="317" type="line"/>
      <point x="275" y="317" type="line"/>
      <point x="275" y="407" type="line" smooth="yes"/>
      <point x="275" y="463"/>
      <point x="244" y="499"/>
      <point x="181" y="499" type="curve" smooth="yes"/>
      <point x="163" y="499" type="line" smooth="yes"/>
      <point x="68" y="499"/>
      <point x="30" y="450"/>
      <point x="30" y="375" type="curve" smooth="yes"/>
      <point x="30" y="240" type="line"/>
    </contour>
    <contour>
      <point x="439" y="0" type="line"/>
      <point x="439" y="499" type="line"/>
      <point x="272" y="499" type="line"/>
      <point x="272" y="404" type="line"/>
      <point x="269" y="404" type="line"/>
      <point x="269" y="0" type="line"/>
    </contour>
    <contour>
      <point x="30" y="259" type="line"/>
      <point x="30" y="124" type="line" smooth="yes"/>
      <point x="30" y="49"/>
      <point x="68" y="0"/>
      <point x="163" y="0" type="curve" smooth="yes"/>
      <point x="181" y="0" type="line" smooth="yes"/>
      <point x="244" y="0"/>
      <point x="275" y="36"/>
      <point x="275" y="92" type="curve" smooth="yes"/>
      <point x="275" y="182" type="line"/>
      <point x="269" y="182" type="line"/>
      <point x="269" y="155" type="line" smooth="yes"/>
      <point x="269" y="134"/>
      <point x="260" y="125"/>
      <point x="242" y="125" type="curve" smooth="yes"/>
      <point x="225" y="125" type="line" smooth="yes"/>
      <point x="208" y="125"/>
      <point x="200" y="132"/>
      <point x="200" y="147" type="curve" smooth="yes"/>
      <point x="200" y="259" type="line"/>
    </contour>
  </outline>
</glyph>
<glyph name="b" format="1">
  <advance width="479"/>
  <unicode hex="0062"/>
  <outline>
    <contour>
      <point x="279" y="259" type="line"/>
      <point x="279" y="147" type="line" smooth="yes"/>
      <point x="279" y="132"/>
      <point x="271" y="125"/>
      <point x="254" y="125" type="curve" smooth="yes"/>
      <point x="237" y="125" type="line" smooth="yes"/>
      <point x="219" y="125"/>
      <point x="210" y="134"/>
      <point x="210" y="155" type="curve" smooth="yes"/>
      <point x="210" y="182" type="line"/>
      <point x="204" y="182" type="line"/>
      <point x="204" y="92" type="line" smooth="yes"/>
      <point x="204" y="36"/>
      <point x="235" y="0"/>
      <point x="298" y="0" type="curve" smooth="yes"/>
      <point x="316" y="0" type="line" smooth="yes"/>
      <point x="411" y="0"/>
      <point x="449" y="49"/>
      <point x="449" y="124" type="curve" smooth="yes"/>
      <point x="449" y="259" type="line"/>
    </contour>
    <contour>
      <point x="449" y="240" type="line"/>
      <point x="449" y="375" type="line" smooth="yes"/>
      <point x="449" y="450"/>
      <point x="411" y="499"/>
      <point x="316" y="499" type="curve" smooth="yes"/>
      <point x="298" y="499" type="line" smooth="yes"/>
      <point x="235" y="499"/>
      <point x="204" y="463"/>
      <point x="204" y="407" type="curve" smooth="yes"/>
      <point x="204" y="317" type="line"/>
      <point x="210" y="317" type="line"/>
      <point x="210" y="344" type="line" smooth="yes"/>
      <point x="210" y="365"/>
      <point x="219" y="374"/>
      <point x="237" y="374" type="curve" smooth="yes"/>
      <point x="254" y="374" type="line" smooth="yes"/>
      <point x="271" y="374"/>
      <point x="279" y="367"/>
      <point x="279" y="352" type="curve" smooth="yes"/>
      <point x="279" y="240" type="line"/>
    </contour>
    <contour>
      <point x="40" y="669" type="line"/>
      <point x="40" y="0" type="line"/>
      <point x="207" y="0" type="line"/>
      <point x="207" y="95" type="line"/>
      <point x="210" y="95" type="line"/>
      <point x="210" y="669" type="line"/>
    </contour>
  </outline>
</glyph>
<glyph name="e" format="1">
  <advance width="471"/>
  <unicode hex="0065"/>
  <outline>
    <contour>
      <point x="191" y="360" type="line"/>
      <point x="191" y="375"/>
      <point x="199" y="382"/>
      <point x="216" y="382" type="curve" smooth="yes"/>
      <point x="244" y="382" type="line"/>
      <point x="244" y="499" type="line"/>
      <point x="177" y="499" type="line" smooth="yes"/>
      <point x="70" y="499"/>
      <point x="30" y="450"/>
      <point x="30" y="375" type="curve" smooth="yes"/>
      <point x="30" y="124" type="line" smooth="yes"/>
      <point x="30" y="49"/>
      <point x="70" y="0"/>
      <point x="177" y="0" type="curve" smooth="yes"/>
      <point x="245" y="0" type="line"/>
      <point x="245" y="117" type="line"/>
      <point x="216" y="117" type="line" smooth="yes"/>
      <point x="199" y="117"/>
      <point x="191" y="124"/>
      <point x="191" y="139" type="curve" smooth="yes"/>
    </contour>
    <contour>
      <point x="285" y="227" type="line"/>
      <point x="446" y="227" type="line"/>
      <point x="446" y="375" type="line" smooth="yes"/>
      <point x="446" y="450"/>
      <point x="406" y="499"/>
      <point x="299" y="499" type="curve" smooth="yes"/>
      <point x="239" y="499" type="line"/>
      <point x="239" y="382" type="line"/>
      <point x="260" y="382" type="line" smooth="yes"/>
      <point x="277" y="382"/>
      <point x="285" y="375"/>
      <point x="285" y="360" type="curve" smooth="yes"/>
    </contour>
    <contour>
      <point x="285" y="141" type="line"/>
      <point x="285" y="126"/>
      <point x="277" y="117"/>
      <point x="260" y="117" type="curve" smooth="yes"/>
      <point x="239" y="117" type="line"/>
      <point x="239" y="0" type="line"/>
      <point x="299" y="0" type="line" smooth="yes"/>
      <point x="406" y="0"/>
      <point x="446" y="49"/>
      <point x="446" y="124" type="curve" smooth="yes"/>
      <point x="446" y="169" type="line"/>
      <point x="285" y="169" type="line"/>
    </contour>
    <contour>
      <point x="446" y="297" type="line"/>
      <point x="71" y="297" type="line"/>
      <point x="71" y="205" type="line"/>
      <point x="446" y="205" type="line"/>
    </contour>
  </outline>
</glyph>
<glyph name="h" format="1">
  <advance width="484"/>
  <unicode hex="0068"/>
  <outline>
    <contour>
      <point x="449" y="0" type="line"/>
      <point x="449" y="375" type="line" smooth="yes"/>
      <point x="449" y="450"/>
      <point x="411" y="499"/>
      <point x="316" y="499" type="curve" smooth="yes"/>
      <point x="298" y="499" type="line" smooth="yes"/>
      <point x="235" y="499"/>
      <point x="204" y="463"/>
      <point x="204" y="407" type="curve" smooth="yes"/>
      <point x="204" y="317" type="line"/>
      <point x="210" y="317" type="line"/>
      <point x="210" y="344" type="line" smooth="yes"/>
      <point x="210" y="365"/>
      <point x="219" y="374"/>
      <point x="237" y="374" type="curve" smooth="yes"/>
      <point x="254" y="374" type="line" smooth="yes"/>
      <point x="271" y="374"/>
      <point x="279" y="367"/>
      <point x="279" y="352" type="curve" smooth="yes"/>
      <point x="279" y="0" type="line"/>
    </contour>
    <contour>
      <point x="210" y="0" type="line"/>
      <point x="210" y="669" type="line"/>
      <point x="40" y="669" type="line"/>
      <point x="40" y="0" type="line"/>
    </contour>
  </outline>
</glyph>
<glyph name="k" format="1">
  <advance width="475"/>
  <unicode hex="006B"/>
  <outline>
    <contour>
      <point x="210" y="0" type="line"/>
      <point x="210" y="669" type="line"/>
      <point x="40" y="669" type="line"/>
      <point x="40" y="0" type="line"/>
    </contour>
    <contour>
      <point x="202" y="253" type="line"/>
      <point x="303" y="0" type="line"/>
      <point x="480" y="0" type="line"/>
      <point x="373" y="253" type="line"/>
    </contour>
    <contour>
      <point x="373" y="253" type="line"/>
      <point x="480" y="499" type="line"/>
      <point x="304" y="499" type="line"/>
      <point x="202" y="253" type="line"/>
    </contour>
  </outline>
</glyph>
<glyph name="o" format="1">
  <advance width="481"/>
  <unicode hex="006F"/>
  <outline>
    <contour>
      <point x="279" y="231" type="line"/>
      <point x="446" y="231" type="line"/>
      <point x="446" y="375" type="line" smooth="yes"/>
      <point x="446" y="450"/>
      <point x="411" y="499"/>
      <point x="304" y="499" type="curve" smooth="yes"/>
      <point x="239" y="499" type="line"/>
      <point x="239" y="381" type="line"/>
      <point x="254" y="381" type="line" smooth="yes"/>
      <point x="271" y="381"/>
      <point x="279" y="374"/>
      <point x="279" y="359" type="curve" smooth="yes"/>
    </contour>
    <contour>
      <point x="279" y="140" type="line"/>
      <point x="279" y="125"/>
      <point x="271" y="118"/>
      <point x="254" y="118" type="curve" smooth="yes"/>
      <point x="239" y="118" type="line"/>
      <point x="239" y="0" type="line"/>
      <point x="304" y="0" type="line" smooth="yes"/>
      <point x="411" y="0"/>
      <point x="446" y="49"/>
      <point x="446" y="124" type="curve" smooth="yes"/>
      <point x="446" y="244" type="line"/>
      <point x="279" y="244" type="line"/>
    </contour>
    <contour>
      <point x="202" y="359" type="line"/>
      <point x="202" y="374"/>
      <point x="210" y="381"/>
      <point x="227" y="381" type="curve" smooth="yes"/>
      <point x="242" y="381" type="line"/>
      <point x="242" y="499" type="line"/>
      <point x="177" y="499" type="line" smooth="yes"/>
      <point x="70" y="499"/>
      <point x="35" y="450"/>
      <point x="35" y="375" type="curve" smooth="yes"/>
      <point x="35" y="231" type="line"/>
      <point x="202" y="231" type="line"/>
    </contour>
    <contour>
      <point x="202" y="244" type="line"/>
      <point x="35" y="244" type="line"/>
      <point x="35" y="124" type="line" smooth="yes"/>
      <point x="35" y="49"/>
      <point x="70" y="0"/>
      <point x="177" y="0" type="curve" smooth="yes"/>
      <point x="242" y="0" type="line"/>
      <point x="242" y="118" type="line"/>
      <point x="227" y="118" type="line" smooth="yes"/>
      <point x="210" y="118"/>
      <point x="202" y="125"/>
      <point x="202" y="140" type="curve" smooth="yes"/>
    </contour>
  </outline>
</glyph>
<glyph name="s" format="1">
  <advance width="445"/>
  <unicode hex="0073"/>
  <outline>
    <contour>
      <point x="255" y="132" type="line"/>
      <point x="255" y="117"/>
      <point x="247" y="110"/>
      <point x="230" y="110" type="curve" smooth="yes"/>
      <point x="218" y="110" type="line" smooth="yes"/>
      <point x="201" y="110"/>
      <point x="193" y="117"/>
      <point x="193" y="132" type="curve" smooth="yes"/>
      <point x="193" y="165" type="line"/>
      <point x="28" y="165" type="line"/>
      <point x="28" y="124" type="line" smooth="yes"/>
      <point x="28" y="49"/>
      <point x="68" y="0"/>
      <point x="175" y="0" type="curve" smooth="yes"/>
      <point x="273" y="0" type="line" smooth="yes"/>
      <point x="380" y="0"/>
      <point x="420" y="49"/>
      <point x="420" y="124" type="curve" smooth="yes"/>
      <point x="420" y="179" type="line" smooth="yes"/>
      <point x="420" y="254"/>
      <point x="383" y="301"/>
      <point x="276" y="301" type="curve" smooth="yes"/>
      <point x="215" y="301" type="line" smooth="yes"/>
      <point x="198" y="301"/>
      <point x="190" y="308"/>
      <point x="190" y="323" type="curve" smooth="yes"/>
      <point x="190" y="367" type="line" smooth="yes"/>
      <point x="190" y="382"/>
      <point x="198" y="389"/>
      <point x="215" y="389" type="curve" smooth="yes"/>
      <point x="225" y="389" type="line" smooth="yes"/>
      <point x="242" y="389"/>
      <point x="250" y="382"/>
      <point x="250" y="367" type="curve" smooth="yes"/>
      <point x="250" y="333" type="line"/>
      <point x="412" y="333" type="line"/>
      <point x="412" y="375" type="line" smooth="yes"/>
      <point x="412" y="450"/>
      <point x="372" y="499"/>
      <point x="265" y="499" type="curve" smooth="yes"/>
      <point x="172" y="499" type="line" smooth="yes"/>
      <point x="65" y="499"/>
      <point x="25" y="450"/>
      <point x="25" y="375" type="curve" smooth="yes"/>
      <point x="25" y="317" type="line" smooth="yes"/>
      <point x="25" y="242"/>
      <point x="62" y="194"/>
      <point x="169" y="194" type="curve" smooth="yes"/>
      <point x="230" y="194" type="line" smooth="yes"/>
      <point x="247" y="194"/>
      <point x="255" y="187"/>
      <point x="255" y="172" type="curve" smooth="yes"/>
    </contour>
  </outline>
</glyph>
<glyph name="t" format="1">
  <advance width="303"/>
  <unicode hex="0074"/>
  <outline>
    <contour>
      <point x="230" y="597" type="line"/>
      <point x="60" y="597" type="line"/>
      <point x="60" y="124" type="line" smooth="yes"/>
      <point x="60" y="49"/>
      <point x="100" y="0"/>
      <point x="207" y="0" type="curve" smooth="yes"/>
      <point x="292" y="0" type="line"/>
      <point x="292" y="125" type="line"/>
      <point x="255" y="125" type="line" smooth="yes"/>
      <point x="238" y="125"/>
      <point x="230" y="132"/>
      <point x="230" y="147" type="curve" smooth="yes"/>
    </contour>
    <contour>
      <point x="293" y="499" type="line"/>
      <point x="5" y="499" type="line"/>
      <point x="5" y="374" type="line"/>
      <point x="293" y="374" type="line"/>
    </contour>
  </outline>
</glyph>
<glyph name="v" format="1">
  <advance width="459"/>
  <unicode hex="0076"/>
  <outline>
    <contour>
      <point x="169" y="499" type="line"/>
      <point x="0" y="499" type="line"/>
      <point x="128" y="0" type="line"/>
      <point x="331" y="0" type="line"/>
      <point x="459" y="499" type="line"/>
      <point x="290" y="499" type="line"/>
      <point x="230" y="179" type="line"/>
    </contour>
  </outline>
</glyph>
<glyph name="braceleft" format="1">
  <advance width="326"/>
  <unicode hex="007B"/>
  <outline>
    <contour>
      <point x="265" y="654" type="line"/>
      <point x="265" y="669"/>
      <point x="273" y="676"/>
      <point x="290" y="676" type="curve" smooth="yes"/>
      <point x="316" y="676" type="line"/>
      <point x="316" y="791" type="line"/>
      <point x="237" y="791" type="line" smooth="yes"/>
      <point x="130" y="791"/>
      <point x="90" y="732"/>
      <point x="90" y="657" type="curve" smooth="yes"/>
      <point x="90" y="457" type="line" smooth="yes"/>
      <point x="90" y="400"/>
      <point x="72" y="375"/>
      <point x="23" y="375" type="curve" smooth="yes"/>
      <point x="16" y="375" type="line"/>
      <point x="16" y="260" type="line"/>
      <point x="23" y="260" type="line" smooth="yes"/>
      <point x="72" y="260"/>
      <point x="90" y="235"/>
      <point x="90" y="180" type="curve" smooth="yes"/>
      <point x="90" y="-22" type="line" smooth="yes"/>
      <point x="90" y="-97"/>
      <point x="130" y="-156"/>
      <point x="237" y="-156" type="curve" smooth="yes"/>
      <point x="316" y="-156" type="line"/>
      <point x="316" y="-41" type="line"/>
      <point x="290" y="-41" type="line" smooth="yes"/>
      <point x="273" y="-41"/>
      <point x="265" y="-34"/>
      <point x="265" y="-19" type="curve" smooth="yes"/>
      <point x="265" y="204" type="line" smooth="yes"/>
      <point x="265" y="275"/>
      <point x="233" y="315"/>
      <point x="187" y="318" type="curve"/>
      <point x="229" y="328"/>
      <point x="265" y="361"/>
      <point x="265" y="443" type="curve" smooth="yes"/>
    </contour>
  </outline>
</glyph>
<glyph name="braceright" format="1">
  <advance width="326"/>
  <unicode hex="007D"/>
  <outline>
    <contour>
      <point x="61" y="443" type="line"/>
      <point x="61" y="361"/>
      <point x="97" y="328"/>
      <point x="139" y="318" type="curve"/>
      <point x="93" y="315"/>
      <point x="61" y="275"/>
      <point x="61" y="204" type="curve" smooth="yes"/>
      <point x="61" y="-19" type="line" smooth="yes"/>
      <point x="61" y="-34"/>
      <point x="53" y="-41"/>
      <point x="36" y="-41" type="curve" smooth="yes"/>
      <point x="10" y="-41" type="line"/>
      <point x="10" y="-156" type="line"/>
      <point x="89" y="-156" type="line" smooth="yes"/>
      <point x="196" y="-156"/>
      <point x="236" y="-97"/>
      <point x="236" y="-22" type="curve" smooth="yes"/>
      <point x="236" y="180" type="line" smooth="yes"/>
      <point x="236" y="235"/>
      <point x="254" y="260"/>
      <point x="303" y="260" type="curve" smooth="yes"/>
      <point x="310" y="260" type="line"/>
      <point x="310" y="375" type="line"/>
      <point x="303" y="375" type="line" smooth="yes"/>
      <point x="254" y="375"/>
      <point x="236" y="400"/>
      <point x="236" y="457" type="curve" smooth="yes"/>
      <point x="236" y="657" type="line" smooth="yes"/>
      <point x="236" y="732"/>
      <point x="196" y="791"/>
      <point x="89" y="791" type="curve" smooth="yes"/>
      <point x="10" y="791" type="line"/>
      <point x="10" y="676" type="line"/>
      <point x="36" y="676" type="line" smooth="yes"/>
      <point x="53" y="676"/>
      <point x="61" y="669"/>
      <point x="61" y="654" type="curve" smooth="yes"/>
    </contour>
  </outline>
</glyph>
<glyph name="cent" format="1">
  <advance width="451"/>
  <unicode hex="00A2"/>
  <outline>
    <contour>
      <point x="200" y="352" type="line"/>
      <point x="200" y="367"/>
      <point x="208" y="374"/>
      <point x="225" y="374" type="curve" smooth="yes"/>
      <point x="244" y="374" type="line"/>
      <point x="244" y="499" type="line"/>
      <point x="177" y="499" type="line" smooth="yes"/>
      <point x="70" y="499"/>
      <point x="30" y="450"/>
      <point x="30" y="375" type="curve" smooth="yes"/>
      <point x="30" y="124" type="line" smooth="yes"/>
      <point x="30" y="49"/>
      <point x="70" y="0"/>
      <point x="177" y="0" type="curve" smooth="yes"/>
      <point x="245" y="0" type="line"/>
      <point x="245" y="125" type="line"/>
      <point x="225" y="125" type="line" smooth="yes"/>
      <point x="208" y="125"/>
      <point x="200" y="132"/>
      <point x="200" y="147" type="curve" smooth="yes"/>
    </contour>
    <contour>
      <point x="267" y="306" type="line"/>
      <point x="431" y="306" type="line"/>
      <point x="431" y="375" type="line" smooth="yes"/>
      <point x="431" y="450"/>
      <point x="391" y="499"/>
      <point x="284" y="499" type="curve" smooth="yes"/>
      <point x="230" y="499" type="line"/>
      <point x="230" y="374" type="line"/>
      <point x="242" y="374" type="line" smooth="yes"/>
      <point x="259" y="374"/>
      <point x="267" y="367"/>
      <point x="267" y="352" type="curve" smooth="yes"/>
    </contour>
    <contour>
      <point x="267" y="147" type="line"/>
      <point x="267" y="132"/>
      <point x="259" y="125"/>
      <point x="242" y="125" type="curve" smooth="yes"/>
      <point x="230" y="125" type="line"/>
      <point x="230" y="0" type="line"/>
      <point x="284" y="0" type="line" smooth="yes"/>
      <point x="391" y="0"/>
      <point x="431" y="49"/>
      <point x="431" y="124" type="curve" smooth="yes"/>
      <point x="431" y="193" type="line"/>
      <point x="267" y="193" type="line"/>
    </contour>
    <contour>
      <point x="315" y="434" type="line"/>
      <point x="315" y="579" type="line"/>
      <point x="150" y="579" type="line"/>
      <point x="150" y="434" type="line"/>
    </contour>
    <contour>
      <point x="315" y="-80" type="line"/>
      <point x="315" y="71" type="line"/>
      <point x="150" y="71" type="line"/>
      <point x="150" y="-80" type="line"/>
    </contour>
  </outline>
</glyph>
<glyph name="sterling" format="1">
  <advance width="506"/>
  <unicode hex="00A3"/>
  <outline>
    <contour>
      <point x="239" y="495" type="line"/>
      <point x="239" y="510"/>
      <point x="247" y="517"/>
      <point x="264" y="517" type="curve" smooth="yes"/>
      <point x="287" y="517" type="line" smooth="yes"/>
      <point x="304" y="517"/>
      <point x="312" y="510"/>
      <point x="312" y="495" type="curve" smooth="yes"/>
      <point x="312" y="425" type="line"/>
      <point x="487" y="425" type="line"/>
      <point x="487" y="518" type="line" smooth="yes"/>
      <point x="487" y="593"/>
      <point x="447" y="642"/>
      <point x="340" y="642" type="curve" smooth="yes"/>
      <point x="211" y="642" type="line" smooth="yes"/>
      <point x="104" y="642"/>
      <point x="64" y="593"/>
      <point x="64" y="518" type="curve" smooth="yes"/>
      <point x="64" y="198" type="line" smooth="yes"/>
      <point x="64" y="148"/>
      <point x="63" y="122"/>
      <point x="20" y="116" type="curve"/>
      <point x="20" y="0" type="line"/>
      <point x="491" y="0" type="line"/>
      <point x="491" y="125" type="line"/>
      <point x="212" y="125" type="line"/>
      <point x="232" y="140"/>
      <point x="239" y="165"/>
      <point x="239" y="197" type="curve" smooth="yes"/>
    </contour>
    <contour>
      <point x="20" y="244" type="line"/>
      <point x="387" y="244" type="line"/>
      <point x="387" y="359" type="line"/>
      <point x="20" y="359" type="line"/>
    </contour>
  </outline>
</glyph>
<glyph name="currency" format="1">
  <advance width="595"/>
  <unicode hex="00A4"/>
  <outline>
    <contour>
      <point x="508" y="326" type="line"/>
      <point x="508" y="440"/>
      <point x="470" y="512"/>
      <point x="326" y="512" type="curve" smooth="yes"/>
      <point x="251" y="512" type="line" smooth="yes"/>
      <point x="106" y="512"/>
      <point x="69" y="440"/>
      <point x="69" y="326" type="curve" smooth="yes"/>
      <point x="69" y="274" type="line" smooth="yes"/>
      <point x="69" y="161"/>
      <point x="106" y="89"/>
      <point x="251" y="89" type="curve" smooth="yes"/>
      <point x="326" y="89" type="line" smooth="yes"/>
      <point x="470" y="89"/>
      <point x="508" y="161"/>
      <point x="508" y="274" type="curve" smooth="yes"/>
    </contour>
    <contour>
      <point x="280" y="198" type="line"/>
      <point x="228" y="198"/>
      <point x="203" y="207"/>
      <point x="203" y="274" type="curve" smooth="yes"/>
      <point x="203" y="325" type="line" smooth="yes"/>
      <point x="203" y="392"/>
      <point x="228" y="402"/>
      <point x="280" y="402" type="curve" smooth="yes"/>
      <point x="295" y="402" type="line" smooth="yes"/>
      <point x="346" y="402"/>
      <point x="372" y="392"/>
      <point x="372" y="325" type="curve" smooth="yes"/>
      <point x="372" y="274" type="line" smooth="yes"/>
      <point x="372" y="207"/>
      <point x="346" y="198"/>
      <point x="295" y="198" type="curve" smooth="yes"/>
    </contour>
    <contour>
      <point x="241" y="480" type="line"/>
      <point x="133" y="587" type="line"/>
      <point x="32" y="485" type="line"/>
      <point x="138" y="379" type="line"/>
    </contour>
    <contour>
      <point x="434" y="379" type="line"/>
      <point x="540" y="485" type="line"/>
      <point x="439" y="587" type="line"/>
      <point x="331" y="480" type="line"/>
    </contour>
    <contour>
      <point x="138" y="241" type="line"/>
      <point x="32" y="135" type="line"/>
      <point x="133" y="33" type="line"/>
      <point x="241" y="140" type="line"/>
    </contour>
    <contour>
      <point x="331" y="140" type="line"/>
      <point x="439" y="33" type="line"/>
      <point x="540" y="135" type="line"/>
      <point x="434" y="241" type="line"/>
    </contour>
  </outline>
</glyph>
<glyph name="yen" format="1">
  <advance width="529"/>
  <unicode hex="00A5"/>
  <outline>
    <contour>
      <point x="180" y="369" type="line"/>
      <point x="43" y="369" type="line"/>
      <point x="43" y="264" type="line"/>
      <point x="180" y="264" type="line"/>
    </contour>
    <contour>
      <point x="492" y="369" type="line"/>
      <point x="355" y="369" type="line"/>
      <point x="355" y="264" type="line"/>
      <point x="492" y="264" type="line"/>
    </contour>
    <contour>
      <point x="493" y="230" type="line"/>
      <point x="43" y="230" type="line"/>
      <point x="43" y="125" type="line"/>
      <point x="493" y="125" type="line"/>
    </contour>
    <contour>
      <point x="345" y="179" type="line"/>
      <point x="524" y="642" type="line"/>
      <point x="346" y="642" type="line"/>
      <point x="268" y="371" type="line"/>
      <point x="184" y="642" type="line"/>
      <point x="5" y="642" type="line"/>
      <point x="194" y="179" type="line"/>
    </contour>
    <contour>
      <point x="182" y="272" type="line"/>
      <point x="182" y="0" type="line"/>
      <point x="357" y="0" type="line"/>
      <point x="357" y="272" type="line"/>
    </contour>
  </outline>
</glyph>
<glyph name="section" format="1">
  <advance width="540"/>
  <unicode hex="00A7"/>
  <outline>
    <contour>
      <point x="256" y="153" type="line"/>
      <point x="333" y="153" type="line" smooth="yes"/>
      <point x="441" y="153"/>
      <point x="472" y="199"/>
      <point x="472" y="280" type="curve" smooth="yes"/>
      <point x="472" y="351" type="line" smooth="yes"/>
      <point x="472" y="426"/>
      <point x="432" y="475"/>
      <point x="325" y="475" type="curve" smooth="yes"/>
      <point x="264" y="475" type="line" smooth="yes"/>
      <point x="247" y="475"/>
      <point x="239" y="482"/>
      <point x="239" y="497" type="curve" smooth="yes"/>
      <point x="239" y="537" type="line" smooth="yes"/>
      <point x="239" y="552"/>
      <point x="247" y="559"/>
      <point x="264" y="559" type="curve" smooth="yes"/>
      <point x="285" y="559" type="line" smooth="yes"/>
      <point x="302" y="559"/>
      <point x="310" y="552"/>
      <point x="310" y="537" type="curve" smooth="yes"/>
      <point x="310" y="512" type="line"/>
      <point x="480" y="512" type="line"/>
      <point x="480" y="545" type="line" smooth="yes"/>
      <point x="480" y="620"/>
      <point x="440" y="669"/>
      <point x="333" y="669" type="curve" smooth="yes"/>
      <point x="216" y="669" type="line" smooth="yes"/>
      <point x="109" y="669"/>
      <point x="69" y="620"/>
      <point x="69" y="545" type="curve" smooth="yes"/>
      <point x="69" y="484" type="line" smooth="yes"/>
      <point x="69" y="409"/>
      <point x="109" y="360"/>
      <point x="216" y="360" type="curve" smooth="yes"/>
      <point x="287" y="360" type="line" smooth="yes"/>
      <point x="304" y="360"/>
      <point x="312" y="353"/>
      <point x="312" y="338" type="curve" smooth="yes"/>
      <point x="312" y="254" type="line" smooth="yes"/>
      <point x="312" y="239"/>
      <point x="304" y="232"/>
      <point x="287" y="232" type="curve" smooth="yes"/>
      <point x="256" y="232" type="line"/>
    </contour>
    <contour>
      <point x="284" y="424" type="line"/>
      <point x="206" y="424" type="line" smooth="yes"/>
      <point x="99" y="424"/>
      <point x="68" y="379"/>
      <point x="68" y="298" type="curve" smooth="yes"/>
      <point x="68" y="241" type="line" smooth="yes"/>
      <point x="68" y="166"/>
      <point x="108" y="117"/>
      <point x="215" y="117" type="curve" smooth="yes"/>
      <point x="276" y="117" type="line" smooth="yes"/>
      <point x="293" y="117"/>
      <point x="301" y="110"/>
      <point x="301" y="95" type="curve" smooth="yes"/>
      <point x="301" y="55" type="line" smooth="yes"/>
      <point x="301" y="40"/>
      <point x="293" y="33"/>
      <point x="276" y="33" type="curve" smooth="yes"/>
      <point x="255" y="33" type="line" smooth="yes"/>
      <point x="238" y="33"/>
      <point x="230" y="40"/>
      <point x="230" y="55" type="curve" smooth="yes"/>
      <point x="230" y="80" type="line"/>
      <point x="60" y="80" type="line"/>
      <point x="60" y="47" type="line" smooth="yes"/>
      <point x="60" y="-28"/>
      <point x="100" y="-77"/>
      <point x="207" y="-77" type="curve" smooth="yes"/>
      <point x="324" y="-77" type="line" smooth="yes"/>
      <point x="431" y="-77"/>
      <point x="471" y="-28"/>
      <point x="471" y="47" type="curve" smooth="yes"/>
      <point x="471" y="108" type="line" smooth="yes"/>
      <point x="471" y="183"/>
      <point x="431" y="232"/>
      <point x="324" y="232" type="curve" smooth="yes"/>
      <point x="253" y="232" type="line" smooth="yes"/>
      <point x="236" y="232"/>
      <point x="228" y="239"/>
      <point x="228" y="254" type="curve" smooth="yes"/>
      <point x="228" y="338" type="line" smooth="yes"/>
      <point x="228" y="353"/>
      <point x="236" y="360"/>
      <point x="253" y="360" type="curve" smooth="yes"/>
      <point x="284" y="360" type="line"/>
    </contour>
  </outline>
</glyph>
<glyph name="ordfeminine" format="1">
  <advance width="337"/>
  <unicode hex="00AA"/>
  <outline>
    <contour>
      <point x="130" y="459" type="line"/>
      <point x="130" y="542" type="line" smooth="yes"/>
      <point x="130" y="553"/>
      <point x="135" y="558"/>
      <point x="147" y="558" type="curve" smooth="yes"/>
      <point x="183" y="558" type="line" smooth="yes"/>
      <point x="196" y="558"/>
      <point x="202" y="551"/>
      <point x="202" y="537" type="curve" smooth="yes"/>
      <point x="202" y="517" type="line"/>
      <point x="207" y="517" type="line"/>
      <point x="207" y="577" type="line" smooth="yes"/>
      <point x="207" y="617"/>
      <point x="191" y="642"/>
      <point x="146" y="642" type="curve" smooth="yes"/>
      <point x="119" y="642" type="line" smooth="yes"/>
      <point x="52" y="642"/>
      <point x="25" y="608"/>
      <point x="25" y="554" type="curve" smooth="yes"/>
      <point x="25" y="459" type="line"/>
    </contour>
    <contour>
      <point x="307" y="289" type="line"/>
      <point x="307" y="642" type="line"/>
      <point x="205" y="642" type="line"/>
      <point x="205" y="575" type="line"/>
      <point x="202" y="575" type="line"/>
      <point x="202" y="289" type="line"/>
    </contour>
    <contour>
      <point x="25" y="472" type="line"/>
      <point x="25" y="377" type="line" smooth="yes"/>
      <point x="25" y="324"/>
      <point x="52" y="289"/>
      <point x="119" y="289" type="curve" smooth="yes"/>
      <point x="150" y="289" type="line" smooth="yes"/>
      <point x="195" y="289"/>
      <point x="207" y="314"/>
      <point x="207" y="354" type="curve" smooth="yes"/>
      <point x="207" y="416" type="line"/>
      <point x="202" y="416" type="line"/>
      <point x="202" y="397" type="line" smooth="yes"/>
      <point x="202" y="382"/>
      <point x="196" y="375"/>
      <point x="183" y="375" type="curve" smooth="yes"/>
      <point x="147" y="375" type="line" smooth="yes"/>
      <point x="135" y="375"/>
      <point x="130" y="380"/>
      <point x="130" y="391" type="curve" smooth="yes"/>
      <point x="130" y="472" type="line"/>
    </contour>
  </outline>
</glyph>
<glyph name="guillemotleft" format="1">
  <advance width="501"/>
  <unicode hex="00AB"/>
  <outline>
    <contour>
      <point x="125" y="96" type="line"/>
      <point x="284" y="96" type="line"/>
      <point x="177" y="249" type="line"/>
      <point x="284" y="400" type="line"/>
      <point x="125" y="400" type="line"/>
      <point x="15" y="249" type="line"/>
    </contour>
    <contour>
      <point x="337" y="96" type="line"/>
      <point x="496" y="96" type="line"/>
      <point x="389" y="249" type="line"/>
      <point x="496" y="400" type="line"/>
      <point x="337" y="400" type="line"/>
      <point x="227" y="249" type="line"/>
    </contour>
  </outline>
</glyph>
<glyph name="logicalnot" format="1">
  <advance width="567"/>
  <unicode hex="00AC"/>
  <outline>
    <contour>
      <point x="442" y="417" type="line"/>
      <point x="50" y="417" type="line"/>
      <point x="50" y="242" type="line"/>
      <point x="442" y="242" type="line"/>
    </contour>
    <contour>
      <point x="507" y="101" type="line"/>
      <point x="507" y="417" type="line"/>
      <point x="392" y="417" type="line"/>
      <point x="392" y="101" type="line"/>
    </contour>
  </outline>
</glyph>
<glyph name="macron" format="1">
  <advance width="500"/>
  <unicode hex="00AF"/>
  <outline>
    <contour>
      <point x="55" y="555" type="line"/>
      <point x="444" y="555" type="line"/>
      <point x="444" y="661" type="line"/>
      <point x="55" y="661" type="line"/>
    </contour>
  </outline>
</glyph>
<glyph name="degree" format="1">
  <advance width="484"/>
  <unicode hex="00B0"/>
  <outline>
    <contour>
      <point x="444" y="518" type="line"/>
      <point x="444" y="593"/>
      <point x="409" y="642"/>
      <point x="302" y="642" type="curve" smooth="yes"/>
      <point x="182" y="642" type="line" smooth="yes"/>
      <point x="75" y="642"/>
      <point x="40" y="593"/>
      <point x="40" y="518" type="curve" smooth="yes"/>
      <point x="40" y="427" type="line" smooth="yes"/>
      <point x="40" y="352"/>
      <point x="75" y="303"/>
      <point x="182" y="303" type="curve" smooth="yes"/>
      <point x="302" y="303" type="line" smooth="yes"/>
      <point x="409" y="303"/>
      <point x="444" y="352"/>
      <point x="444" y="427" type="curve" smooth="yes"/>
    </contour>
    <contour>
      <point x="286" y="430" type="line"/>
      <point x="286" y="415"/>
      <point x="278" y="408"/>
      <point x="261" y="408" type="curve" smooth="yes"/>
      <point x="223" y="408" type="line" smooth="yes"/>
      <point x="206" y="408"/>
      <point x="198" y="415"/>
      <point x="198" y="430" type="curve" smooth="yes"/>
      <point x="198" y="515" type="line" smooth="yes"/>
      <point x="198" y="530"/>
      <point x="206" y="537"/>
      <point x="223" y="537" type="curve" smooth="yes"/>
      <point x="261" y="537" type="line" smooth="yes"/>
      <point x="278" y="537"/>
      <point x="286" y="530"/>
      <point x="286" y="515" type="curve" smooth="yes"/>
    </contour>
  </outline>
</glyph>
<glyph name="plusminus" format="1">
  <advance width="533"/>
  <unicode hex="00B1"/>
  <outline>
    <contour>
      <point x="25" y="371" type="line"/>
      <point x="508" y="371" type="line"/>
      <point x="508" y="492" type="line"/>
      <point x="25" y="492" type="line"/>
    </contour>
    <contour>
      <point x="185" y="567" type="line"/>
      <point x="185" y="296" type="line"/>
      <point x="348" y="296" type="line"/>
      <point x="348" y="567" type="line"/>
    </contour>
    <contour>
      <point x="25" y="139" type="line"/>
      <point x="508" y="139" type="line"/>
      <point x="508" y="264" type="line"/>
      <point x="25" y="264" type="line"/>
    </contour>
  </outline>
</glyph>
<glyph name="twosuperior" format="1">
  <advance width="287"/>
  <unicode hex="00B2"/>
  <outline>
    <contour>
      <point x="119" y="561" type="line"/>
      <point x="119" y="569"/>
      <point x="123" y="573"/>
      <point x="133" y="573" type="curve" smooth="yes"/>
      <point x="144" y="573" type="line" smooth="yes"/>
      <point x="153" y="573"/>
      <point x="157" y="569"/>
      <point x="157" y="561" type="curve"/>
      <point x="157" y="524" type="line"/>
      <point x="157" y="492"/>
      <point x="155" y="482"/>
      <point x="135" y="464" type="curve" smooth="yes"/>
      <point x="15" y="353" type="line"/>
      <point x="15" y="289" type="line"/>
      <point x="262" y="289" type="line"/>
      <point x="262" y="362" type="line"/>
      <point x="145" y="362" type="line"/>
      <point x="218" y="427" type="line"/>
      <point x="246" y="452"/>
      <point x="262" y="483"/>
      <point x="262" y="532" type="curve"/>
      <point x="262" y="574" type="line"/>
      <point x="262" y="615"/>
      <point x="241" y="642"/>
      <point x="182" y="642" type="curve" smooth="yes"/>
      <point x="94" y="642" type="line" smooth="yes"/>
      <point x="35" y="642"/>
      <point x="13" y="615"/>
      <point x="13" y="574" type="curve" smooth="yes"/>
      <point x="13" y="511" type="line"/>
      <point x="119" y="511" type="line"/>
    </contour>
  </outline>
</glyph>
<glyph name="threesuperior" format="1">
  <advance width="283"/>
  <unicode hex="00B3"/>
  <outline>
    <contour>
      <point x="119" y="561" type="line"/>
      <point x="119" y="569"/>
      <point x="123" y="573"/>
      <point x="133" y="573" type="curve" smooth="yes"/>
      <point x="144" y="573" type="line" smooth="yes"/>
      <point x="153" y="573"/>
      <point x="157" y="569"/>
      <point x="157" y="561" type="curve" smooth="yes"/>
      <point x="157" y="508" type="line" smooth="yes"/>
      <point x="157" y="500"/>
      <point x="153" y="496"/>
      <point x="144" y="496" type="curve" smooth="yes"/>
      <point x="107" y="496" type="line"/>
      <point x="107" y="432" type="line"/>
      <point x="144" y="432" type="line" smooth="yes"/>
      <point x="153" y="432"/>
      <point x="157" y="429"/>
      <point x="157" y="420" type="curve" smooth="yes"/>
      <point x="157" y="370" type="line" smooth="yes"/>
      <point x="157" y="362"/>
      <point x="153" y="358"/>
      <point x="144" y="358" type="curve" smooth="yes"/>
      <point x="133" y="358" type="line" smooth="yes"/>
      <point x="123" y="358"/>
      <point x="119" y="362"/>
      <point x="119" y="370" type="curve" smooth="yes"/>
      <point x="119" y="405" type="line"/>
      <point x="13" y="405" type="line"/>
      <point x="13" y="357" type="line" smooth="yes"/>
      <point x="13" y="316"/>
      <point x="35" y="289"/>
      <point x="94" y="289" type="curve" smooth="yes"/>
      <point x="181" y="289" type="line" smooth="yes"/>
      <point x="240" y="289"/>
      <point x="262" y="316"/>
      <point x="262" y="357" type="curve" smooth="yes"/>
      <point x="262" y="408" type="line" smooth="yes"/>
      <point x="262" y="436"/>
      <point x="257" y="455"/>
      <point x="236" y="465" type="curve"/>
      <point x="257" y="476"/>
      <point x="262" y="498"/>
      <point x="262" y="527" type="curve" smooth="yes"/>
      <point x="262" y="574" type="line" smooth="yes"/>
      <point x="262" y="615"/>
      <point x="240" y="642"/>
      <point x="181" y="642" type="curve" smooth="yes"/>
      <point x="94" y="642" type="line" smooth="yes"/>
      <point x="35" y="642"/>
      <point x="13" y="615"/>
      <point x="13" y="574" type="curve" smooth="yes"/>
      <point x="13" y="527" type="line"/>
      <point x="119" y="527" type="line"/>
    </contour>
  </outline>
</glyph>
<glyph name="acute" format="1">
  <advance width="500"/>
  <unicode hex="00B4"/>
  <outline>
    <contour>
      <point x="116" y="532" type="line"/>
      <point x="250" y="532" type="line"/>
      <point x="383" y="682" type="line"/>
      <point x="213" y="682" type="line"/>
    </contour>
  </outline>
</glyph>
<glyph name="mu.math" format="1">
  <advance width="489"/>
  <unicode hex="00B5"/>
  <outline>
    <contour>
      <point x="40" y="499" type="line"/>
      <point x="40" y="124" type="line" smooth="yes"/>
      <point x="40" y="49"/>
      <point x="78" y="0"/>
      <point x="173" y="0" type="curve" smooth="yes"/>
      <point x="191" y="0" type="line" smooth="yes"/>
      <point x="254" y="0"/>
      <point x="285" y="36"/>
      <point x="285" y="92" type="curve" smooth="yes"/>
      <point x="285" y="182" type="line"/>
      <point x="279" y="182" type="line"/>
      <point x="279" y="155" type="line" smooth="yes"/>
      <point x="279" y="134"/>
      <point x="270" y="125"/>
      <point x="252" y="125" type="curve" smooth="yes"/>
      <point x="235" y="125" type="line" smooth="yes"/>
      <point x="218" y="125"/>
      <point x="210" y="132"/>
      <point x="210" y="147" type="curve" smooth="yes"/>
      <point x="210" y="499" type="line"/>
    </contour>
    <contour>
      <point x="279" y="499" type="line"/>
      <point x="279" y="95" type="line"/>
      <point x="282" y="95" type="line"/>
      <point x="282" y="0" type="line"/>
      <point x="449" y="0" type="line"/>
      <point x="449" y="499" type="line"/>
    </contour>
    <contour>
      <point x="40" y="449" type="line"/>
      <point x="40" y="-129" type="line"/>
      <point x="210" y="-129" type="line"/>
      <point x="210" y="449" type="line"/>
    </contour>
  </outline>
</glyph>
<glyph name="paragraph" format="1">
  <advance width="569"/>
  <unicode hex="00B6"/>
  <outline>
    <contour>
      <point x="293" y="642" type="line"/>
      <point x="174" y="642" type="line" smooth="yes"/>
      <point x="67" y="642"/>
      <point x="27" y="593"/>
      <point x="27" y="518" type="curve" smooth="yes"/>
      <point x="27" y="334" type="line" smooth="yes"/>
      <point x="27" y="259"/>
      <point x="67" y="210"/>
      <point x="174" y="210" type="curve" smooth="yes"/>
      <point x="293" y="210" type="line"/>
    </contour>
    <contour>
      <point x="196" y="642" type="line"/>
      <point x="196" y="-129" type="line"/>
      <point x="331" y="-129" type="line"/>
      <point x="331" y="642" type="line"/>
    </contour>
    <contour>
      <point x="384" y="642" type="line"/>
      <point x="384" y="-129" type="line"/>
      <point x="519" y="-129" type="line"/>
      <point x="519" y="642" type="line"/>
    </contour>
  </outline>
</glyph>
<glyph name="onesuperior" format="1">
  <advance width="218"/>
  <unicode hex="00B9"/>
  <outline>
    <contour>
      <point x="123" y="642" type="line"/>
      <point x="10" y="642" type="line"/>
      <point x="10" y="573" type="line"/>
      <point x="123" y="573" type="line"/>
    </contour>
    <contour>
      <point x="59" y="642" type="line"/>
      <point x="59" y="289" type="line"/>
      <point x="169" y="289" type="line"/>
      <point x="169" y="642" type="line"/>
    </contour>
  </outline>
</glyph>
<glyph name="ordmasculine" format="1">
  <advance width="331"/>
  <unicode hex="00BA"/>
  <outline>
    <contour>
      <point x="201" y="453" type="line"/>
      <point x="306" y="453" type="line"/>
      <point x="306" y="554" type="line" smooth="yes"/>
      <point x="306" y="608"/>
      <point x="281" y="642"/>
      <point x="205" y="642" type="curve" smooth="yes"/>
      <point x="169" y="642" type="line"/>
      <point x="169" y="573" type="line"/>
      <point x="183" y="573" type="line" smooth="yes"/>
      <point x="195" y="573"/>
      <point x="201" y="568"/>
      <point x="201" y="557" type="curve" smooth="yes"/>
    </contour>
    <contour>
      <point x="201" y="373" type="line"/>
      <point x="201" y="362"/>
      <point x="195" y="358"/>
      <point x="183" y="358" type="curve" smooth="yes"/>
      <point x="169" y="358" type="line"/>
      <point x="169" y="289" type="line"/>
      <point x="205" y="289" type="line" smooth="yes"/>
      <point x="281" y="289"/>
      <point x="306" y="324"/>
      <point x="306" y="377" type="curve" smooth="yes"/>
      <point x="306" y="462" type="line"/>
      <point x="201" y="462" type="line"/>
    </contour>
    <contour>
      <point x="130" y="557" type="line"/>
      <point x="130" y="568"/>
      <point x="136" y="573"/>
      <point x="148" y="573" type="curve" smooth="yes"/>
      <point x="171" y="573" type="line"/>
      <point x="171" y="642" type="line"/>
      <point x="125" y="642" type="line" smooth="yes"/>
      <point x="50" y="642"/>
      <point x="25" y="608"/>
      <point x="25" y="554" type="curve" smooth="yes"/>
      <point x="25" y="453" type="line"/>
      <point x="130" y="453" type="line"/>
    </contour>
    <contour>
      <point x="130" y="462" type="line"/>
      <point x="25" y="462" type="line"/>
      <point x="25" y="377" type="line" smooth="yes"/>
      <point x="25" y="324"/>
      <point x="50" y="289"/>
      <point x="125" y="289" type="curve" smooth="yes"/>
      <point x="171" y="289" type="line"/>
      <point x="171" y="358" type="line"/>
      <point x="148" y="358" type="line" smooth="yes"/>
      <point x="136" y="358"/>
      <point x="130" y="362"/>
      <point x="130" y="373" type="curve" smooth="yes"/>
    </contour>
  </outline>
</glyph>
<glyph name="guillemotright" format="1">
  <advance width="501"/>
  <unicode hex="00BB"/>
  <outline>
    <contour>
      <point x="284" y="249" type="line"/>
      <point x="174" y="400" type="line"/>
      <point x="15" y="400" type="line"/>
      <point x="122" y="249" type="line"/>
      <point x="15" y="96" type="line"/>
      <point x="174" y="96" type="line"/>
    </contour>
    <contour>
      <point x="496" y="249" type="line"/>
      <point x="386" y="400" type="line"/>
      <point x="227" y="400" type="line"/>
      <point x="334" y="249" type="line"/>
      <point x="227" y="96" type="line"/>
      <point x="386" y="96" type="line"/>
    </contour>
  </outline>
</glyph>
<glyph name="AE" format="1">
  <advance width="770"/>
  <unicode hex="00C6"/>
  <outline>
    <contour>
      <point x="410" y="642" type="line"/>
      <point x="255" y="642" type="line"/>
      <point x="0" y="0" type="line"/>
      <point x="172" y="0" type="line"/>
    </contour>
    <contour>
      <point x="433" y="235" type="line"/>
      <point x="112" y="235" type="line"/>
      <point x="112" y="115" type="line"/>
      <point x="433" y="115" type="line"/>
    </contour>
    <contour>
      <point x="369" y="642" type="line"/>
      <point x="369" y="0" type="line"/>
      <point x="534" y="0" type="line"/>
      <point x="534" y="642" type="line"/>
    </contour>
    <contour>
      <point x="753" y="125" type="line"/>
      <point x="423" y="125" type="line"/>
      <point x="423" y="0" type="line"/>
      <point x="753" y="0" type="line"/>
    </contour>
    <contour>
      <point x="715" y="386" type="line"/>
      <point x="436" y="386" type="line"/>
      <point x="436" y="261" type="line"/>
      <point x="715" y="261" type="line"/>
    </contour>
    <contour>
      <point x="744" y="642" type="line"/>
      <point x="423" y="642" type="line"/>
      <point x="423" y="517" type="line"/>
      <point x="744" y="517" type="line"/>
    </contour>
  </outline>
</glyph>
<glyph name="multiply" format="1">
  <advance width="482"/>
  <unicode hex="00D7"/>
  <outline>
    <contour>
      <point x="462" y="187" type="line"/>
      <point x="117" y="532" type="line"/>
      <point x="20" y="435" type="line"/>
      <point x="365" y="90" type="line"/>
    </contour>
    <contour>
      <point x="365" y="532" type="line"/>
      <point x="20" y="187" type="line"/>
      <point x="117" y="90" type="line"/>
      <point x="462" y="435" type="line"/>
    </contour>
  </outline>
</glyph>
<glyph name="Oslash" format="1">
  <advance width="516"/>
  <unicode hex="00D8"/>
  <outline>
    <contour>
      <point x="479" y="518" type="line"/>
      <point x="479" y="593"/>
      <point x="439" y="642"/>
      <point x="332" y="642" type="curve" smooth="yes"/>
      <point x="184" y="642" type="line" smooth="yes"/>
      <point x="77" y="642"/>
      <point x="37" y="593"/>
      <point x="37" y="518" type="curve" smooth="yes"/>
      <point x="37" y="124" type="line" smooth="yes"/>
      <point x="37" y="49"/>
      <point x="77" y="0"/>
      <point x="184" y="0" type="curve" smooth="yes"/>
      <point x="332" y="0" type="line" smooth="yes"/>
      <point x="439" y="0"/>
      <point x="479" y="49"/>
      <point x="479" y="124" type="curve" smooth="yes"/>
    </contour>
    <contour>
      <point x="314" y="137" type="line"/>
      <point x="314" y="122"/>
      <point x="306" y="115"/>
      <point x="289" y="115" type="curve" smooth="yes"/>
      <point x="227" y="115" type="line" smooth="yes"/>
      <point x="210" y="115"/>
      <point x="202" y="122"/>
      <point x="202" y="137" type="curve" smooth="yes"/>
      <point x="202" y="505" type="line" smooth="yes"/>
      <point x="202" y="520"/>
      <point x="210" y="527"/>
      <point x="227" y="527" type="curve" smooth="yes"/>
      <point x="289" y="527" type="line" smooth="yes"/>
      <point x="306" y="527"/>
      <point x="314" y="520"/>
      <point x="314" y="505" type="curve" smooth="yes"/>
    </contour>
    <contour>
      <point x="418" y="662" type="line"/>
      <point x="30" y="-20" type="line"/>
      <point x="104" y="-20" type="line"/>
      <point x="492" y="662" type="line"/>
    </contour>
  </outline>
</glyph>
<glyph name="Thorn" format="1">
  <advance width="534"/>
  <unicode hex="00DE"/>
  <outline>
    <contour>
      <point x="304" y="257" type="line"/>
      <point x="304" y="242"/>
      <point x="296" y="235"/>
      <point x="279" y="235" type="curve" smooth="yes"/>
      <point x="103" y="235" type="line"/>
      <point x="103" y="115" type="line"/>
      <point x="332" y="115" type="line" smooth="yes"/>
      <point x="439" y="115"/>
      <point x="479" y="164"/>
      <point x="479" y="239" type="curve" smooth="yes"/>
      <point x="479" y="402" type="line" smooth="yes"/>
      <point x="479" y="477"/>
      <point x="439" y="526"/>
      <point x="332" y="526" type="curve" smooth="yes"/>
      <point x="103" y="526" type="line"/>
      <point x="103" y="406" type="line"/>
      <point x="279" y="406" type="line" smooth="yes"/>
      <point x="296" y="406"/>
      <point x="304" y="399"/>
      <point x="304" y="384" type="curve" smooth="yes"/>
    </contour>
    <contour>
      <point x="45" y="642" type="line"/>
      <point x="45" y="0" type="line"/>
      <point x="220" y="0" type="line"/>
      <point x="220" y="642" type="line"/>
    </contour>
  </outline>
</glyph>
<glyph name="igrave" format="1">
  <advance width="250"/>
  <unicode hex="00EC"/>
  <outline>
    <contour>
      <point x="210" y="0" type="line"/>
      <point x="210" y="499" type="line"/>
      <point x="40" y="499" type="line"/>
      <point x="40" y="0" type="line"/>
    </contour>
    <component base="grave" xOffset="-168"/>
  </outline>
</glyph>
<glyph name="icircumflex" format="1">
  <advance width="250"/>
  <unicode hex="00EE"/>
  <outline>
    <contour>
      <point x="210" y="0" type="line"/>
      <point x="210" y="499" type="line"/>
      <point x="40" y="499" type="line"/>
      <point x="40" y="0" type="line"/>
    </contour>
    <component base="circumflex" xOffset="-127"/>
  </outline>
</glyph>
<glyph name="eth" format="1">
  <advance width="494"/>
  <unicode hex="00F0"/>
  <outline>
    <contour>
      <point x="200" y="147" type="curve"/>
      <point x="200" y="290" type="line" smooth="yes"/>
      <point x="200" y="305"/>
      <point x="208" y="312"/>
      <point x="225" y="312" type="curve" smooth="yes"/>
      <point x="330" y="312" type="line"/>
      <point x="330" y="427" type="line"/>
      <point x="177" y="427" type="line" smooth="yes"/>
      <point x="70" y="427"/>
      <point x="30" y="378"/>
      <point x="30" y="303" type="curve" smooth="yes"/>
      <point x="30" y="124" type="line" smooth="yes"/>
      <point x="30" y="49"/>
      <point x="70" y="0"/>
      <point x="177" y="0" type="curve" smooth="yes"/>
      <point x="248" y="0" type="line"/>
      <point x="248" y="125" type="line"/>
      <point x="225" y="125" type="line" smooth="yes"/>
      <point x="208" y="125"/>
      <point x="200" y="132"/>
    </contour>
    <contour>
      <point x="290" y="309" type="curve"/>
      <point x="290" y="147" type="line" smooth="yes"/>
      <point x="290" y="132"/>
      <point x="282" y="125"/>
      <point x="265" y="125" type="curve" smooth="yes"/>
      <point x="239" y="125" type="line"/>
      <point x="239" y="0" type="line"/>
      <point x="310" y="0" type="line" smooth="yes"/>
      <point x="417" y="0"/>
      <point x="457" y="49"/>
      <point x="457" y="124" type="curve" smooth="yes"/>
      <point x="457" y="307" type="line" smooth="yes"/>
      <point x="457" y="498"/>
      <point x="346" y="608"/>
      <point x="302" y="642" type="curve"/>
      <point x="67" y="642" type="line"/>
      <point x="117" y="610"/>
      <point x="290" y="499"/>
    </contour>
    <contour>
      <point x="115" y="456" type="line"/>
      <point x="427" y="550" type="line"/>
      <point x="427" y="634" type="line"/>
      <point x="115" y="540" type="line"/>
    </contour>
  </outline>
</glyph>
<glyph name="oslash" format="1">
  <advance width="481"/>
  <unicode hex="00F8"/>
  <outline>
    <contour>
      <point x="446" y="375" type="line"/>
      <point x="446" y="450"/>
      <point x="411" y="499"/>
      <point x="304" y="499" type="curve" smooth="yes"/>
      <point x="177" y="499" type="line" smooth="yes"/>
      <point x="70" y="499"/>
      <point x="35" y="450"/>
      <point x="35" y="375" type="curve" smooth="yes"/>
      <point x="35" y="124" type="line" smooth="yes"/>
      <point x="35" y="49"/>
      <point x="70" y="0"/>
      <point x="177" y="0" type="curve" smooth="yes"/>
      <point x="304" y="0" type="line" smooth="yes"/>
      <point x="411" y="0"/>
      <point x="446" y="49"/>
      <point x="446" y="124" type="curve" smooth="yes"/>
    </contour>
    <contour>
      <point x="284" y="135" type="line"/>
      <point x="284" y="120"/>
      <point x="276" y="113"/>
      <point x="259" y="113" type="curve" smooth="yes"/>
      <point x="222" y="113" type="line" smooth="yes"/>
      <point x="205" y="113"/>
      <point x="197" y="120"/>
      <point x="197" y="135" type="curve" smooth="yes"/>
      <point x="197" y="364" type="line" smooth="yes"/>
      <point x="197" y="379"/>
      <point x="205" y="386"/>
      <point x="222" y="386" type="curve" smooth="yes"/>
      <point x="259" y="386" type="line" smooth="yes"/>
      <point x="276" y="386"/>
      <point x="284" y="379"/>
      <point x="284" y="364" type="curve" smooth="yes"/>
    </contour>
    <contour>
      <point x="383" y="519" type="line"/>
      <point x="25" y="-20" type="line"/>
      <point x="99" y="-20" type="line"/>
      <point x="457" y="519" type="line"/>
    </contour>
  </outline>
</glyph>
<glyph name="thorn" format="1">
  <advance width="489"/>
  <unicode hex="00FE"/>
  <outline>
    <contour>
      <point x="443" y="240" type="line"/>
      <point x="443" y="375" type="line" smooth="yes"/>
      <point x="443" y="450"/>
      <point x="405" y="499"/>
      <point x="310" y="499" type="curve" smooth="yes"/>
      <point x="292" y="499" type="line" smooth="yes"/>
      <point x="229" y="499"/>
      <point x="198" y="463"/>
      <point x="198" y="407" type="curve" smooth="yes"/>
      <point x="198" y="317" type="line"/>
      <point x="204" y="317" type="line"/>
      <point x="204" y="344" type="line" smooth="yes"/>
      <point x="204" y="365"/>
      <point x="213" y="374"/>
      <point x="231" y="374" type="curve" smooth="yes"/>
      <point x="248" y="374" type="line" smooth="yes"/>
      <point x="265" y="374"/>
      <point x="273" y="367"/>
      <point x="273" y="352" type="curve" smooth="yes"/>
      <point x="273" y="240" type="line"/>
    </contour>
    <contour>
      <point x="204" y="-129" type="line"/>
      <point x="204" y="404" type="line"/>
      <point x="201" y="404" type="line"/>
      <point x="201" y="669" type="line"/>
      <point x="34" y="669" type="line"/>
      <point x="34" y="-129" type="line"/>
    </contour>
    <contour>
      <point x="273" y="259" type="line"/>
      <point x="273" y="147" type="line" smooth="yes"/>
      <point x="273" y="132"/>
      <point x="265" y="125"/>
      <point x="248" y="125" type="curve" smooth="yes"/>
      <point x="231" y="125" type="line" smooth="yes"/>
      <point x="213" y="125"/>
      <point x="204" y="134"/>
      <point x="204" y="155" type="curve" smooth="yes"/>
      <point x="204" y="182" type="line"/>
      <point x="198" y="182" type="line"/>
      <point x="198" y="92" type="line" smooth="yes"/>
      <point x="198" y="36"/>
      <point x="229" y="0"/>
      <point x="292" y="0" type="curve" smooth="yes"/>
      <point x="310" y="0" type="line" smooth="yes"/>
      <point x="405" y="0"/>
      <point x="443" y="49"/>
      <point x="443" y="124" type="curve" smooth="yes"/>
      <point x="443" y="259" type="line"/>
    </contour>
  </outline>
</glyph>
<glyph name="dcaron" format="1">
  <advance width="520"/>
  <unicode hex="010F"/>
  <outline>
    <contour>
      <point x="479" y="669" type="line"/>
      <point x="479" y="456" type="line"/>
      <point x="519" y="456" type="line"/>
      <point x="595" y="592" type="line"/>
      <point x="595" y="669" type="line"/>
    </contour>
    <component base="d"/>
  </outline>
</glyph>
<glyph name="dcroat" format="1">
  <advance width="484"/>
  <unicode hex="0111"/>
  <outline>
    <contour>
      <point x="205" y="240" type="line"/>
      <point x="205" y="352" type="line" smooth="yes"/>
      <point x="205" y="367"/>
      <point x="213" y="374"/>
      <point x="230" y="374" type="curve" smooth="yes"/>
      <point x="247" y="374" type="line" smooth="yes"/>
      <point x="265" y="374"/>
      <point x="274" y="365"/>
      <point x="274" y="344" type="curve" smooth="yes"/>
      <point x="274" y="317" type="line"/>
      <point x="280" y="317" type="line"/>
      <point x="280" y="407" type="line" smooth="yes"/>
      <point x="280" y="463"/>
      <point x="249" y="499"/>
      <point x="186" y="499" type="curve" smooth="yes"/>
      <point x="168" y="499" type="line" smooth="yes"/>
      <point x="73" y="499"/>
      <point x="35" y="450"/>
      <point x="35" y="375" type="curve" smooth="yes"/>
      <point x="35" y="240" type="line"/>
    </contour>
    <contour>
      <point x="274" y="669" type="line"/>
      <point x="274" y="95" type="line"/>
      <point x="277" y="95" type="line"/>
      <point x="277" y="0" type="line"/>
      <point x="444" y="0" type="line"/>
      <point x="444" y="669" type="line"/>
    </contour>
    <contour>
      <point x="35" y="259" type="line"/>
      <point x="35" y="124" type="line" smooth="yes"/>
      <point x="35" y="49"/>
      <point x="73" y="0"/>
      <point x="168" y="0" type="curve" smooth="yes"/>
      <point x="186" y="0" type="line" smooth="yes"/>
      <point x="249" y="0"/>
      <point x="280" y="36"/>
      <point x="280" y="92" type="curve" smooth="yes"/>
      <point x="280" y="182" type="line"/>
      <point x="274" y="182" type="line"/>
      <point x="274" y="155" type="line" smooth="yes"/>
      <point x="274" y="134"/>
      <point x="265" y="125"/>
      <point x="247" y="125" type="curve" smooth="yes"/>
      <point x="230" y="125" type="line" smooth="yes"/>
      <point x="213" y="125"/>
      <point x="205" y="132"/>
      <point x="205" y="147" type="curve" smooth="yes"/>
      <point x="205" y="259" type="line"/>
    </contour>
    <contour>
      <point x="494" y="622" type="line"/>
      <point x="214" y="622" type="line"/>
      <point x="214" y="547" type="line"/>
      <point x="494" y="547" type="line"/>
    </contour>
  </outline>
</glyph>
<glyph name="Gcommaaccent" format="1">
  <advance width="501"/>
  <unicode hex="0122"/>
  <outline>
    <contour>
      <point x="210" y="505" type="line"/>
      <point x="210" y="520"/>
      <point x="218" y="527"/>
      <point x="235" y="527" type="curve" smooth="yes"/>
      <point x="262" y="527" type="line"/>
      <point x="262" y="642" type="line"/>
      <point x="182" y="642" type="line" smooth="yes"/>
      <point x="75" y="642"/>
      <point x="35" y="593"/>
      <point x="35" y="518" type="curve" smooth="yes"/>
      <point x="35" y="124" type="line" smooth="yes"/>
      <point x="35" y="49"/>
      <point x="75" y="0"/>
      <point x="182" y="0" type="curve" smooth="yes"/>
      <point x="258" y="0" type="line"/>
      <point x="258" y="115" type="line"/>
      <point x="235" y="115" type="line" smooth="yes"/>
      <point x="218" y="115"/>
      <point x="210" y="122"/>
      <point x="210" y="137" type="curve" smooth="yes"/>
    </contour>
    <contour>
      <point x="471" y="355" type="line"/>
      <point x="246" y="355" type="line"/>
      <point x="246" y="244" type="line"/>
      <point x="471" y="244" type="line"/>
    </contour>
    <contour>
      <point x="296" y="422" type="line"/>
      <point x="471" y="422" type="line"/>
      <point x="471" y="518" type="line" smooth="yes"/>
      <point x="471" y="593"/>
      <point x="431" y="642"/>
      <point x="324" y="642" type="curve" smooth="yes"/>
      <point x="244" y="642" type="line"/>
      <point x="244" y="527" type="line"/>
      <point x="271" y="527" type="line" smooth="yes"/>
      <point x="288" y="527"/>
      <point x="296" y="520"/>
      <point x="296" y="505" type="curve" smooth="yes"/>
    </contour>
    <contour>
      <point x="296" y="137" type="line"/>
      <point x="296" y="122"/>
      <point x="288" y="115"/>
      <point x="271" y="115" type="curve" smooth="yes"/>
      <point x="248" y="115" type="line"/>
      <point x="248" y="0" type="line"/>
      <point x="324" y="0" type="line" smooth="yes"/>
      <point x="431" y="0"/>
      <point x="471" y="49"/>
      <point x="471" y="124" type="curve" smooth="yes"/>
      <point x="471" y="278" type="line"/>
      <point x="296" y="278" type="line"/>
    </contour>
    <contour>
      <point x="180" y="-46" type="line"/>
      <point x="180" y="-299" type="line"/>
      <point x="232" y="-299" type="line"/>
      <point x="347" y="-133" type="line"/>
      <point x="347" y="-46" type="line"/>
    </contour>
  </outline>
</glyph>
<glyph name="gcommaaccent" format="1">
  <advance width="479"/>
  <unicode hex="0123"/>
  <outline>
    <contour>
      <point x="335" y="531" type="line"/>
      <point x="335" y="784" type="line"/>
      <point x="283" y="784" type="line"/>
      <point x="168" y="618" type="line"/>
      <point x="168" y="531" type="line"/>
    </contour>
    <component base="g"/>
  </outline>
</glyph>
<glyph name="imacron" format="1">
  <advance width="250"/>
  <unicode hex="012B"/>
  <outline>
    <contour>
      <point x="210" y="0" type="line"/>
      <point x="210" y="499" type="line"/>
      <point x="40" y="499" type="line"/>
      <point x="40" y="0" type="line"/>
    </contour>
    <component base="macron" xOffset="-125"/>
  </outline>
</glyph>
<glyph name="Kcommaaccent" format="1">
  <advance width="530"/>
  <unicode hex="0136"/>
  <outline>
    <contour>
      <point x="216" y="328" type="line"/>
      <point x="336" y="0" type="line"/>
      <point x="524" y="0" type="line"/>
      <point x="398" y="328" type="line"/>
    </contour>
    <contour>
      <point x="398" y="328" type="line"/>
      <point x="523" y="642" type="line"/>
      <point x="335" y="642" type="line"/>
      <point x="216" y="328" type="line"/>
    </contour>
    <contour>
      <point x="40" y="642" type="line"/>
      <point x="40" y="0" type="line"/>
      <point x="215" y="0" type="line"/>
      <point x="215" y="642" type="line"/>
    </contour>
    <contour>
      <point x="173" y="-46" type="line"/>
      <point x="173" y="-299" type="line"/>
      <point x="225" y="-299" type="line"/>
      <point x="340" y="-133" type="line"/>
      <point x="340" y="-46" type="line"/>
    </contour>
  </outline>
</glyph>
<glyph name="Lcommaaccent" format="1">
  <advance width="414"/>
  <unicode hex="013B"/>
  <outline>
    <contour>
      <point x="40" y="642" type="line"/>
      <point x="40" y="0" type="line"/>
      <point x="215" y="0" type="line"/>
      <point x="215" y="642" type="line"/>
    </contour>
    <contour>
      <point x="98" y="0" type="line"/>
      <point x="414" y="0" type="line"/>
      <point x="414" y="125" type="line"/>
      <point x="98" y="125" type="line"/>
    </contour>
    <contour>
      <point x="142" y="-46" type="line"/>
      <point x="142" y="-299" type="line"/>
      <point x="194" y="-299" type="line"/>
      <point x="309" y="-133" type="line"/>
      <point x="309" y="-46" type="line"/>
    </contour>
  </outline>
</glyph>
<glyph name="lcaron" format="1">
  <advance width="300"/>
  <unicode hex="013E"/>
  <outline>
    <contour>
      <point x="250" y="669" type="line"/>
      <point x="250" y="456" type="line"/>
      <point x="290" y="456" type="line"/>
      <point x="366" y="592" type="line"/>
      <point x="366" y="669" type="line"/>
    </contour>
    <component base="l"/>
  </outline>
</glyph>
<glyph name="Lslash" format="1">
  <advance width="434"/>
  <unicode hex="0141"/>
  <outline>
    <contour>
      <point x="335" y="489" type="line"/>
      <point x="-39" y="309" type="line"/>
      <point x="-39" y="194" type="line"/>
      <point x="335" y="374" type="line"/>
    </contour>
    <component base="L" xOffset="10"/>
  </outline>
</glyph>
<glyph name="lslash" format="1">
  <advance width="260"/>
  <unicode hex="0142"/>
  <outline>
    <contour>
      <point x="319" y="529" type="line"/>
      <point x="-55" y="349" type="line"/>
      <point x="-55" y="234" type="line"/>
      <point x="319" y="414" type="line"/>
    </contour>
    <component base="l" xOffset="5"/>
  </outline>
</glyph>
<glyph name="OE" format="1">
  <advance width="740"/>
  <unicode hex="0152"/>
  <outline>
    <contour>
      <point x="332" y="374" type="line"/>
      <point x="417" y="374" type="line"/>
      <point x="417" y="468" type="line" smooth="yes"/>
      <point x="417" y="553"/>
      <point x="397" y="642"/>
      <point x="290" y="642" type="curve" smooth="yes"/>
      <point x="274" y="642" type="line"/>
      <point x="274" y="527" type="line"/>
      <point x="307" y="527" type="line" smooth="yes"/>
      <point x="324" y="527"/>
      <point x="332" y="520"/>
      <point x="332" y="505" type="curve" smooth="yes"/>
    </contour>
    <contour>
      <point x="332" y="137" type="line"/>
      <point x="332" y="122"/>
      <point x="324" y="115"/>
      <point x="307" y="115" type="curve" smooth="yes"/>
      <point x="274" y="115" type="line"/>
      <point x="274" y="0" type="line"/>
      <point x="290" y="0" type="line" smooth="yes"/>
      <point x="397" y="0"/>
      <point x="417" y="89"/>
      <point x="417" y="174" type="curve" smooth="yes"/>
      <point x="417" y="387" type="line"/>
      <point x="332" y="387" type="line"/>
    </contour>
    <contour>
      <point x="240" y="505" type="line"/>
      <point x="240" y="520"/>
      <point x="248" y="527"/>
      <point x="265" y="527" type="curve" smooth="yes"/>
      <point x="278" y="527" type="line"/>
      <point x="278" y="642" type="line"/>
      <point x="212" y="642" type="line" smooth="yes"/>
      <point x="105" y="642"/>
      <point x="65" y="593"/>
      <point x="65" y="518" type="curve" smooth="yes"/>
      <point x="65" y="374" type="line"/>
      <point x="240" y="374" type="line"/>
    </contour>
    <contour>
      <point x="240" y="387" type="line"/>
      <point x="65" y="387" type="line"/>
      <point x="65" y="124" type="line" smooth="yes"/>
      <point x="65" y="49"/>
      <point x="105" y="0"/>
      <point x="212" y="0" type="curve" smooth="yes"/>
      <point x="278" y="0" type="line"/>
      <point x="278" y="115" type="line"/>
      <point x="265" y="115" type="line" smooth="yes"/>
      <point x="248" y="115"/>
      <point x="240" y="122"/>
      <point x="240" y="137" type="curve" smooth="yes"/>
    </contour>
    <contour>
      <point x="362" y="642" type="line"/>
      <point x="362" y="0" type="line"/>
      <point x="487" y="0" type="line"/>
      <point x="487" y="642" type="line"/>
    </contour>
    <contour>
      <point x="668" y="381" type="line"/>
      <point x="387" y="381" type="line"/>
      <point x="387" y="266" type="line"/>
      <point x="668" y="266" type="line"/>
    </contour>
    <contour>
      <point x="697" y="642" type="line"/>
      <point x="374" y="642" type="line"/>
      <point x="374" y="527" type="line"/>
      <point x="697" y="527" type="line"/>
    </contour>
    <contour>
      <point x="706" y="115" type="line"/>
      <point x="374" y="115" type="line"/>
      <point x="374" y="0" type="line"/>
      <point x="706" y="0" type="line"/>
    </contour>
  </outline>
</glyph>
<glyph name="oe" format="1">
  <advance width="833"/>
  <unicode hex="0153"/>
  <outline>
    <contour>
      <point x="168" y="0" type="curve"/>
      <point x="235" y="0" type="line" smooth="yes"/>
      <point x="283" y="0"/>
      <point x="330" y="21"/>
      <point x="349" y="56" type="curve"/>
      <point x="370" y="21"/>
      <point x="411" y="0"/>
      <point x="480" y="0" type="curve" smooth="yes"/>
      <point x="543" y="0" type="line" smooth="yes"/>
      <point x="650" y="0"/>
      <point x="690" y="49"/>
      <point x="690" y="124" type="curve" smooth="yes"/>
      <point x="690" y="167" type="line"/>
      <point x="525" y="167" type="line"/>
      <point x="525" y="142" type="line" smooth="yes"/>
      <point x="525" y="127"/>
      <point x="517" y="120"/>
      <point x="500" y="120" type="curve" smooth="yes"/>
      <point x="464" y="120" type="line" smooth="yes"/>
      <point x="447" y="120"/>
      <point x="439" y="127"/>
      <point x="439" y="142" type="curve" smooth="yes"/>
      <point x="439" y="357" type="line" smooth="yes"/>
      <point x="439" y="372"/>
      <point x="447" y="379"/>
      <point x="464" y="379" type="curve" smooth="yes"/>
      <point x="500" y="379" type="line" smooth="yes"/>
      <point x="517" y="379"/>
      <point x="525" y="372"/>
      <point x="525" y="357" type="curve" smooth="yes"/>
      <point x="525" y="223" type="line"/>
      <point x="690" y="223" type="line"/>
      <point x="690" y="375" type="line" smooth="yes"/>
      <point x="690" y="450"/>
      <point x="650" y="499"/>
      <point x="543" y="499" type="curve" smooth="yes"/>
      <point x="481" y="499" type="line" smooth="yes"/>
      <point x="412" y="499"/>
      <point x="371" y="478"/>
      <point x="350" y="443" type="curve"/>
      <point x="331" y="478"/>
      <point x="284" y="499"/>
      <point x="236" y="499" type="curve" smooth="yes"/>
      <point x="168" y="499" type="line" smooth="yes"/>
      <point x="73" y="499"/>
      <point x="35" y="450"/>
      <point x="35" y="375" type="curve" smooth="yes"/>
      <point x="35" y="124" type="line" smooth="yes"/>
      <point x="35" y="49"/>
      <point x="73" y="0"/>
    </contour>
    <contour>
      <point x="205" y="352" type="line"/>
      <point x="205" y="367"/>
      <point x="213" y="374"/>
      <point x="230" y="374" type="curve" smooth="yes"/>
      <point x="247" y="374" type="line" smooth="yes"/>
      <point x="265" y="374"/>
      <point x="274" y="365"/>
      <point x="274" y="344" type="curve" smooth="yes"/>
      <point x="274" y="155" type="line" smooth="yes"/>
      <point x="274" y="134"/>
      <point x="265" y="125"/>
      <point x="247" y="125" type="curve" smooth="yes"/>
      <point x="230" y="125" type="line" smooth="yes"/>
      <point x="213" y="125"/>
      <point x="205" y="132"/>
      <point x="205" y="147" type="curve" smooth="yes"/>
    </contour>
    <contour>
      <point x="690" y="300" type="line"/>
      <point x="315" y="300" type="line"/>
      <point x="315" y="201" type="line"/>
      <point x="690" y="201" type="line"/>
    </contour>
  </outline>
</glyph>
<glyph name="Rcommaaccent" format="1">
  <advance width="514"/>
  <unicode hex="0156"/>
  <outline>
    <contour>
      <point x="309" y="369" type="line"/>
      <point x="309" y="354"/>
      <point x="301" y="347"/>
      <point x="284" y="347" type="curve" smooth="yes"/>
      <point x="98" y="347" type="line"/>
      <point x="98" y="228" type="line"/>
      <point x="337" y="228" type="line" smooth="yes"/>
      <point x="444" y="228"/>
      <point x="484" y="277"/>
      <point x="484" y="352" type="curve" smooth="yes"/>
      <point x="484" y="518" type="line" smooth="yes"/>
      <point x="484" y="593"/>
      <point x="444" y="642"/>
      <point x="337" y="642" type="curve" smooth="yes"/>
      <point x="98" y="642" type="line"/>
      <point x="98" y="517" type="line"/>
      <point x="284" y="517" type="line" smooth="yes"/>
      <point x="301" y="517"/>
      <point x="309" y="510"/>
      <point x="309" y="495" type="curve" smooth="yes"/>
    </contour>
    <contour>
      <point x="40" y="642" type="line"/>
      <point x="40" y="0" type="line"/>
      <point x="215" y="0" type="line"/>
      <point x="215" y="642" type="line"/>
    </contour>
    <contour>
      <point x="195" y="298" type="line"/>
      <point x="328" y="0" type="line"/>
      <point x="516" y="0" type="line"/>
      <point x="366" y="298" type="line"/>
    </contour>
    <contour>
      <point x="164" y="-46" type="line"/>
      <point x="164" y="-299" type="line"/>
      <point x="216" y="-299" type="line"/>
      <point x="331" y="-133" type="line"/>
      <point x="331" y="-46" type="line"/>
    </contour>
  </outline>
</glyph>
<glyph name="rcommaaccent" format="1">
  <advance width="335"/>
  <unicode hex="0157"/>
  <outline>
    <contour>
      <point x="330" y="504" type="line"/>
      <point x="315" y="504" type="line" smooth="yes"/>
      <point x="245" y="504"/>
      <point x="204" y="459"/>
      <point x="204" y="392" type="curve" smooth="yes"/>
      <point x="204" y="261" type="line"/>
      <point x="210" y="261" type="line"/>
      <point x="210" y="288" type="line" smooth="yes"/>
      <point x="210" y="332"/>
      <point x="232" y="356"/>
      <point x="273" y="356" type="curve" smooth="yes"/>
      <point x="330" y="356" type="line"/>
    </contour>
    <contour>
      <point x="210" y="0" type="line"/>
      <point x="210" y="404" type="line"/>
      <point x="207" y="384" type="line"/>
      <point x="207" y="499" type="line"/>
      <point x="40" y="499" type="line"/>
      <point x="40" y="0" type="line"/>
    </contour>
    <contour>
      <point x="41" y="-46" type="line"/>
      <point x="41" y="-299" type="line"/>
      <point x="93" y="-299" type="line"/>
      <point x="208" y="-133" type="line"/>
      <point x="208" y="-46" type="line"/>
    </contour>
  </outline>
</glyph>
<glyph name="tcedilla" format="1">
  <advance width="432"/>
  <unicode hex="0163"/>
  <outline>
    <contour>
      <point x="128" y="582" type="line"/>
      <point x="128" y="0" type="line"/>
      <point x="303" y="0" type="line"/>
      <point x="303" y="582" type="line"/>
    </contour>
    <contour>
      <point x="427" y="642" type="line"/>
      <point x="5" y="642" type="line"/>
      <point x="5" y="517" type="line"/>
      <point x="427" y="517" type="line"/>
    </contour>
    <contour>
      <point x="132" y="-46" type="line"/>
      <point x="132" y="-299" type="line"/>
      <point x="184" y="-299" type="line"/>
      <point x="299" y="-133" type="line"/>
      <point x="299" y="-46" type="line"/>
    </contour>
  </outline>
</glyph>
<glyph name="tcaron" format="1">
  <advance width="303"/>
  <unicode hex="0165"/>
  <outline>
    <contour>
      <point x="273" y="731" type="line"/>
      <point x="273" y="537" type="line"/>
      <point x="313" y="537" type="line"/>
      <point x="389" y="654" type="line"/>
      <point x="389" y="731" type="line"/>
    </contour>
    <component base="t"/>
  </outline>
</glyph>
<glyph name="florin" format="1">
  <advance width="449"/>
  <unicode hex="0192"/>
  <outline>
    <contour>
      <point x="336" y="522" type="line"/>
      <point x="338" y="537"/>
      <point x="344" y="544"/>
      <point x="361" y="544" type="curve" smooth="yes"/>
      <point x="414" y="544" type="line"/>
      <point x="414" y="669" type="line"/>
      <point x="313" y="669" type="line" smooth="yes"/>
      <point x="206" y="669"/>
      <point x="177" y="619"/>
      <point x="166" y="545" type="curve" smooth="yes"/>
      <point x="86" y="0" type="line"/>
      <point x="84" y="-15"/>
      <point x="78" y="-22"/>
      <point x="61" y="-22" type="curve" smooth="yes"/>
      <point x="8" y="-22" type="line"/>
      <point x="8" y="-147" type="line"/>
      <point x="109" y="-147" type="line" smooth="yes"/>
      <point x="216" y="-147"/>
      <point x="245" y="-97"/>
      <point x="256" y="-23" type="curve"/>
    </contour>
    <contour>
      <point x="413" y="499" type="line"/>
      <point x="75" y="499" type="line"/>
      <point x="75" y="374" type="line"/>
      <point x="413" y="374" type="line"/>
    </contour>
  </outline>
</glyph>
<glyph name="circumflex" format="1">
  <advance width="500"/>
  <unicode hex="02C6"/>
  <outline>
    <contour>
      <point x="40" y="532" type="line"/>
      <point x="197" y="532" type="line"/>
      <point x="250" y="601" type="line"/>
      <point x="303" y="532" type="line"/>
      <point x="460" y="532" type="line"/>
      <point x="327" y="682" type="line"/>
      <point x="173" y="682" type="line"/>
    </contour>
  </outline>
</glyph>
<glyph name="caron" format="1">
  <advance width="500"/>
  <unicode hex="02C7"/>
  <outline>
    <contour>
      <point x="173" y="532" type="line"/>
      <point x="327" y="532" type="line"/>
      <point x="460" y="682" type="line"/>
      <point x="303" y="682" type="line"/>
      <point x="250" y="613" type="line"/>
      <point x="197" y="682" type="line"/>
      <point x="40" y="682" type="line"/>
    </contour>
  </outline>
</glyph>
<glyph name="macronmod" format="1">
  <advance width="500"/>
  <unicode hex="02C9"/>
  <outline>
    <contour>
      <point x="55" y="554" type="line"/>
      <point x="444" y="554" type="line"/>
      <point x="444" y="661" type="line"/>
      <point x="55" y="661" type="line"/>
    </contour>
  </outline>
</glyph>
<glyph name="breve" format="1">
  <advance width="500"/>
  <unicode hex="02D8"/>
  <outline>
    <contour>
      <point x="297" y="682" type="line"/>
      <point x="297" y="649" type="line" smooth="yes"/>
      <point x="297" y="634"/>
      <point x="289" y="627"/>
      <point x="272" y="627" type="curve" smooth="yes"/>
      <point x="240" y="627" type="line"/>
      <point x="240" y="532" type="line"/>
      <point x="300" y="532" type="line" smooth="yes"/>
      <point x="407" y="532"/>
      <point x="447" y="581"/>
      <point x="447" y="656" type="curve" smooth="yes"/>
      <point x="447" y="682" type="line"/>
    </contour>
    <contour>
      <point x="53" y="682" type="line"/>
      <point x="53" y="656" type="line" smooth="yes"/>
      <point x="53" y="581"/>
      <point x="93" y="532"/>
      <point x="200" y="532" type="curve" smooth="yes"/>
      <point x="260" y="532" type="line"/>
      <point x="260" y="627" type="line"/>
      <point x="228" y="627" type="line" smooth="yes"/>
      <point x="211" y="627"/>
      <point x="203" y="634"/>
      <point x="203" y="649" type="curve" smooth="yes"/>
      <point x="203" y="682" type="line"/>
    </contour>
  </outline>
</glyph>
<glyph name="ring" format="1">
  <advance width="500"/>
  <unicode hex="02DA"/>
  <outline>
    <contour>
      <point x="395" y="615" type="line"/>
      <point x="395" y="669"/>
      <point x="370" y="705"/>
      <point x="293" y="705" type="curve" smooth="yes"/>
      <point x="207" y="705" type="line" smooth="yes"/>
      <point x="130" y="705"/>
      <point x="105" y="669"/>
      <point x="105" y="615" type="curve" smooth="yes"/>
      <point x="105" y="599" type="line" smooth="yes"/>
      <point x="105" y="545"/>
      <point x="130" y="510"/>
      <point x="207" y="510" type="curve" smooth="yes"/>
      <point x="293" y="510" type="line" smooth="yes"/>
      <point x="370" y="510"/>
      <point x="395" y="545"/>
      <point x="395" y="599" type="curve" smooth="yes"/>
    </contour>
    <contour>
      <point x="289" y="600" type="line"/>
      <point x="289" y="587"/>
      <point x="284" y="581"/>
      <point x="269" y="581" type="curve" smooth="yes"/>
      <point x="231" y="581" type="line" smooth="yes"/>
      <point x="216" y="581"/>
      <point x="211" y="587"/>
      <point x="211" y="600" type="curve" smooth="yes"/>
      <point x="211" y="614" type="line" smooth="yes"/>
      <point x="211" y="627"/>
      <point x="216" y="633"/>
      <point x="231" y="633" type="curve" smooth="yes"/>
      <point x="269" y="633" type="line" smooth="yes"/>
      <point x="284" y="633"/>
      <point x="289" y="627"/>
      <point x="289" y="614" type="curve" smooth="yes"/>
    </contour>
  </outline>
</glyph>
<glyph name="ogonek" format="1">
  <advance width="500"/>
  <unicode hex="02DB"/>
  <outline>
    <contour>
      <point x="145" y="-121" type="curve" smooth="yes"/>
      <point x="145" y="-169" type="line" smooth="yes"/>
      <point x="145" y="-233"/>
      <point x="170" y="-274"/>
      <point x="260" y="-274" type="curve" smooth="yes"/>
      <point x="375" y="-274" type="line"/>
      <point x="375" y="-177" type="line"/>
      <point x="284" y="-177" type="line" smooth="yes"/>
      <point x="269" y="-177"/>
      <point x="263" y="-171"/>
      <point x="263" y="-159" type="curve" smooth="yes"/>
      <point x="263" y="-132" type="line"/>
      <point x="263" y="-120"/>
      <point x="269" y="-114"/>
      <point x="284" y="-114" type="curve" smooth="yes"/>
      <point x="357" y="-114" type="line"/>
      <point x="357" y="-17" type="line"/>
      <point x="260" y="-17" type="line" smooth="yes"/>
      <point x="170" y="-17"/>
      <point x="145" y="-58"/>
    </contour>
    <contour>
      <point x="357" y="-22" type="line"/>
      <point x="357" y="15" type="line"/>
      <point x="266" y="15" type="line"/>
      <point x="266" y="-22" type="line"/>
    </contour>
  </outline>
</glyph>
<glyph name="tilde" format="1">
  <advance width="500"/>
  <unicode hex="02DC"/>
  <outline>
    <contour>
      <point x="328" y="532" type="curve"/>
      <point x="345" y="532" type="line" smooth="yes"/>
      <point x="421" y="532"/>
      <point x="446" y="563"/>
      <point x="446" y="622" type="curve" smooth="yes"/>
      <point x="446" y="682" type="line"/>
      <point x="311" y="682" type="line"/>
      <point x="311" y="651" type="line" smooth="yes"/>
      <point x="311" y="637"/>
      <point x="305" y="630"/>
      <point x="293" y="630" type="curve" smooth="yes"/>
      <point x="272" y="630"/>
      <point x="229" y="682"/>
      <point x="171" y="682" type="curve" smooth="yes"/>
      <point x="152" y="682" type="line" smooth="yes"/>
      <point x="77" y="682"/>
      <point x="53" y="646"/>
      <point x="53" y="587" type="curve" smooth="yes"/>
      <point x="53" y="532" type="line"/>
      <point x="188" y="532" type="line"/>
      <point x="188" y="563" type="line" smooth="yes"/>
      <point x="188" y="577"/>
      <point x="194" y="584"/>
      <point x="206" y="584" type="curve" smooth="yes"/>
      <point x="227" y="584"/>
      <point x="270" y="532"/>
    </contour>
  </outline>
</glyph>
<glyph name="hungarumlaut" format="1">
  <advance width="500"/>
  <unicode hex="02DD"/>
  <outline>
    <contour>
      <point x="223" y="532" type="line"/>
      <point x="334" y="532" type="line"/>
      <point x="467" y="682" type="line"/>
      <point x="320" y="682" type="line"/>
    </contour>
    <contour>
      <point x="33" y="532" type="line"/>
      <point x="144" y="532" type="line"/>
      <point x="277" y="682" type="line"/>
      <point x="130" y="682" type="line"/>
    </contour>
  </outline>
</glyph>
<glyph name="danda" format="1">
  <advance width="410"/>
  <unicode hex="0964"/>
  <outline>
    <contour>
      <point x="290" y="674" type="line"/>
      <point x="120" y="674" type="line"/>
      <point x="120" y="-32" type="line"/>
      <point x="290" y="-32" type="line"/>
    </contour>
  </outline>
</glyph>
<glyph name="endash" format="1">
  <advance width="607"/>
  <unicode hex="2013"/>
  <outline>
    <contour>
      <point x="46" y="245" type="line"/>
      <point x="455" y="245" type="line"/>
      <point x="455" y="360" type="line"/>
      <point x="46" y="360" type="line"/>
    </contour>
  </outline>
</glyph>
<glyph name="emdash" format="1">
  <advance width="749"/>
  <unicode hex="2014"/>
  <outline>
    <contour>
      <point x="46" y="245" type="line"/>
      <point x="694" y="245" type="line"/>
      <point x="694" y="360" type="line"/>
      <point x="46" y="360" type="line"/>
    </contour>
  </outline>
</glyph>
<glyph name="quoteleft" format="1">
  <advance width="254"/>
  <unicode hex="2018"/>
  <outline>
    <contour>
      <point x="214" y="329" type="line"/>
      <point x="214" y="642" type="line"/>
      <point x="167" y="642" type="line"/>
      <point x="40" y="419" type="line"/>
      <point x="40" y="329" type="line"/>
    </contour>
  </outline>
</glyph>
<glyph name="quoteright" format="1">
  <advance width="254"/>
  <unicode hex="2019"/>
  <outline>
    <contour>
      <point x="40" y="642" type="line"/>
      <point x="40" y="329" type="line"/>
      <point x="87" y="329" type="line"/>
      <point x="214" y="552" type="line"/>
      <point x="214" y="642" type="line"/>
    </contour>
  </outline>
</glyph>
<glyph name="quotedblleft" format="1">
  <advance width="464"/>
  <unicode hex="201C"/>
  <outline>
    <contour>
      <point x="424" y="329" type="line"/>
      <point x="424" y="642" type="line"/>
      <point x="379" y="642" type="line"/>
      <point x="252" y="419" type="line"/>
      <point x="252" y="329" type="line"/>
    </contour>
    <contour>
      <point x="212" y="329" type="line"/>
      <point x="212" y="642" type="line"/>
      <point x="167" y="642" type="line"/>
      <point x="40" y="419" type="line"/>
      <point x="40" y="329" type="line"/>
    </contour>
  </outline>
</glyph>
<glyph name="quotedblbase" format="1">
  <advance width="464"/>
  <unicode hex="201E"/>
  <outline>
    <contour>
      <point x="40" y="164" type="line"/>
      <point x="40" y="-149" type="line"/>
      <point x="85" y="-149" type="line"/>
      <point x="212" y="74" type="line"/>
      <point x="212" y="164" type="line"/>
    </contour>
    <contour>
      <point x="252" y="164" type="line"/>
      <point x="252" y="-149" type="line"/>
      <point x="297" y="-149" type="line"/>
      <point x="424" y="74" type="line"/>
      <point x="424" y="164" type="line"/>
    </contour>
  </outline>
</glyph>
<glyph name="dagger" format="1">
  <advance width="454"/>
  <unicode hex="2020"/>
  <outline>
    <contour>
      <point x="139" y="642" type="line"/>
      <point x="139" y="-109" type="line"/>
      <point x="314" y="-109" type="line"/>
      <point x="314" y="642" type="line"/>
    </contour>
    <contour>
      <point x="444" y="490" type="line"/>
      <point x="10" y="490" type="line"/>
      <point x="10" y="375" type="line"/>
      <point x="444" y="375" type="line"/>
    </contour>
  </outline>
</glyph>
<glyph name="perthousand" format="1">
  <advance width="1270"/>
  <unicode hex="2030"/>
  <outline>
    <contour>
      <point x="363" y="542" type="line"/>
      <point x="363" y="603"/>
      <point x="331" y="642"/>
      <point x="245" y="642" type="curve" smooth="yes"/>
      <point x="143" y="642" type="line" smooth="yes"/>
      <point x="57" y="642"/>
      <point x="25" y="603"/>
      <point x="25" y="542" type="curve" smooth="yes"/>
      <point x="25" y="359" type="line" smooth="yes"/>
      <point x="25" y="299"/>
      <point x="57" y="259"/>
      <point x="143" y="259" type="curve" smooth="yes"/>
      <point x="245" y="259" type="line" smooth="yes"/>
      <point x="331" y="259"/>
      <point x="363" y="299"/>
      <point x="363" y="359" type="curve" smooth="yes"/>
    </contour>
    <contour>
      <point x="873" y="283" type="line"/>
      <point x="873" y="344"/>
      <point x="841" y="383"/>
      <point x="755" y="383" type="curve" smooth="yes"/>
      <point x="653" y="383" type="line" smooth="yes"/>
      <point x="567" y="383"/>
      <point x="535" y="344"/>
      <point x="535" y="283" type="curve" smooth="yes"/>
      <point x="535" y="100" type="line" smooth="yes"/>
      <point x="535" y="40"/>
      <point x="567" y="0"/>
      <point x="653" y="0" type="curve" smooth="yes"/>
      <point x="755" y="0" type="line" smooth="yes"/>
      <point x="841" y="0"/>
      <point x="873" y="40"/>
      <point x="873" y="100" type="curve" smooth="yes"/>
    </contour>
    <contour>
      <point x="222" y="379" type="line"/>
      <point x="222" y="367"/>
      <point x="216" y="362"/>
      <point x="202" y="362" type="curve" smooth="yes"/>
      <point x="186" y="362" type="line" smooth="yes"/>
      <point x="172" y="362"/>
      <point x="166" y="367"/>
      <point x="166" y="379" type="curve" smooth="yes"/>
      <point x="166" y="522" type="line" smooth="yes"/>
      <point x="166" y="534"/>
      <point x="172" y="540"/>
      <point x="186" y="540" type="curve" smooth="yes"/>
      <point x="202" y="540" type="line" smooth="yes"/>
      <point x="216" y="540"/>
      <point x="222" y="534"/>
      <point x="222" y="522" type="curve" smooth="yes"/>
    </contour>
    <contour>
      <point x="732" y="120" type="line"/>
      <point x="732" y="108"/>
      <point x="726" y="103"/>
      <point x="712" y="103" type="curve" smooth="yes"/>
      <point x="696" y="103" type="line" smooth="yes"/>
      <point x="682" y="103"/>
      <point x="676" y="108"/>
      <point x="676" y="120" type="curve" smooth="yes"/>
      <point x="676" y="263" type="line" smooth="yes"/>
      <point x="676" y="275"/>
      <point x="682" y="281"/>
      <point x="696" y="281" type="curve" smooth="yes"/>
      <point x="712" y="281" type="line" smooth="yes"/>
      <point x="726" y="281"/>
      <point x="732" y="275"/>
      <point x="732" y="263" type="curve" smooth="yes"/>
    </contour>
    <contour>
      <point x="568" y="642" type="line"/>
      <point x="207" y="0" type="line"/>
      <point x="332" y="0" type="line"/>
      <point x="695" y="642" type="line"/>
    </contour>
    <contour>
      <point x="1245" y="283" type="line"/>
      <point x="1245" y="344"/>
      <point x="1213" y="383"/>
      <point x="1127" y="383" type="curve" smooth="yes"/>
      <point x="1025" y="383" type="line" smooth="yes"/>
      <point x="939" y="383"/>
      <point x="907" y="344"/>
      <point x="907" y="283" type="curve" smooth="yes"/>
      <point x="907" y="100" type="line" smooth="yes"/>
      <point x="907" y="40"/>
      <point x="939" y="0"/>
      <point x="1025" y="0" type="curve" smooth="yes"/>
      <point x="1127" y="0" type="line" smooth="yes"/>
      <point x="1213" y="0"/>
      <point x="1245" y="40"/>
      <point x="1245" y="100" type="curve" smooth="yes"/>
    </contour>
    <contour>
      <point x="1104" y="120" type="line"/>
      <point x="1104" y="108"/>
      <point x="1098" y="103"/>
      <point x="1084" y="103" type="curve" smooth="yes"/>
      <point x="1068" y="103" type="line" smooth="yes"/>
      <point x="1054" y="103"/>
      <point x="1048" y="108"/>
      <point x="1048" y="120" type="curve" smooth="yes"/>
      <point x="1048" y="263" type="line" smooth="yes"/>
      <point x="1048" y="275"/>
      <point x="1054" y="281"/>
      <point x="1068" y="281" type="curve" smooth="yes"/>
      <point x="1084" y="281" type="line" smooth="yes"/>
      <point x="1098" y="281"/>
      <point x="1104" y="275"/>
      <point x="1104" y="263" type="curve" smooth="yes"/>
    </contour>
  </outline>
</glyph>
<glyph name="guilsinglleft" format="1">
  <advance width="299"/>
  <unicode hex="2039"/>
  <outline>
    <contour>
      <point x="125" y="96" type="line"/>
      <point x="294" y="96" type="line"/>
      <point x="187" y="249" type="line"/>
      <point x="294" y="400" type="line"/>
      <point x="125" y="400" type="line"/>
      <point x="15" y="249" type="line"/>
    </contour>
  </outline>
</glyph>
<glyph name="guilsinglright" format="1">
  <advance width="299"/>
  <unicode hex="203A"/>
  <outline>
    <contour>
      <point x="294" y="249" type="line"/>
      <point x="184" y="400" type="line"/>
      <point x="15" y="400" type="line"/>
      <point x="122" y="249" type="line"/>
      <point x="15" y="96" type="line"/>
      <point x="184" y="96" type="line"/>
    </contour>
  </outline>
</glyph>
<glyph name="fraction" format="1">
  <advance width="411"/>
  <unicode hex="2044"/>
  <outline>
    <contour>
      <point x="287" y="702" type="line"/>
      <point x="-20" y="-60" type="line"/>
      <point x="124" y="-60" type="line"/>
      <point x="431" y="702" type="line"/>
    </contour>
  </outline>
</glyph>
<glyph name="Euro" format="1">
  <advance width="516"/>
  <unicode hex="20AC"/>
  <outline>
    <contour>
      <point x="231" y="505" type="line"/>
      <point x="231" y="520"/>
      <point x="239" y="527"/>
      <point x="256" y="527" type="curve" smooth="yes"/>
      <point x="282" y="527" type="line"/>
      <point x="282" y="642" type="line"/>
      <point x="203" y="642" type="line" smooth="yes"/>
      <point x="96" y="642"/>
      <point x="56" y="593"/>
      <point x="56" y="518" type="curve" smooth="yes"/>
      <point x="56" y="124" type="line" smooth="yes"/>
      <point x="56" y="49"/>
      <point x="96" y="0"/>
      <point x="203" y="0" type="curve" smooth="yes"/>
      <point x="282" y="0" type="line"/>
      <point x="282" y="115" type="line"/>
      <point x="256" y="115" type="line" smooth="yes"/>
      <point x="239" y="115"/>
      <point x="231" y="122"/>
      <point x="231" y="137" type="curve" smooth="yes"/>
    </contour>
    <contour>
      <point x="316" y="402" type="line"/>
      <point x="491" y="402" type="line"/>
      <point x="491" y="518" type="line" smooth="yes"/>
      <point x="491" y="593"/>
      <point x="451" y="642"/>
      <point x="344" y="642" type="curve" smooth="yes"/>
      <point x="265" y="642" type="line"/>
      <point x="265" y="527" type="line"/>
      <point x="291" y="527" type="line" smooth="yes"/>
      <point x="308" y="527"/>
      <point x="316" y="520"/>
      <point x="316" y="505" type="curve" smooth="yes"/>
    </contour>
    <contour>
      <point x="316" y="137" type="line"/>
      <point x="316" y="122"/>
      <point x="308" y="115"/>
      <point x="291" y="115" type="curve" smooth="yes"/>
      <point x="265" y="115" type="line"/>
      <point x="265" y="0" type="line"/>
      <point x="344" y="0" type="line" smooth="yes"/>
      <point x="451" y="0"/>
      <point x="491" y="49"/>
      <point x="491" y="124" type="curve" smooth="yes"/>
      <point x="491" y="236" type="line"/>
      <point x="316" y="236" type="line"/>
    </contour>
    <contour>
      <point x="290" y="305" type="line"/>
      <point x="15" y="305" type="line"/>
      <point x="15" y="209" type="line"/>
      <point x="290" y="209" type="line"/>
    </contour>
    <contour>
      <point x="290" y="433" type="line"/>
      <point x="15" y="433" type="line"/>
      <point x="15" y="337" type="line"/>
      <point x="290" y="337" type="line"/>
    </contour>
  </outline>
</glyph>
<glyph name="trademark" format="1">
  <advance width="731"/>
  <unicode hex="2122"/>
  <outline>
    <contour>
      <point x="96" y="582" type="line"/>
      <point x="96" y="310" type="line"/>
      <point x="217" y="310" type="line"/>
      <point x="217" y="582" type="line"/>
    </contour>
    <contour>
      <point x="304" y="642" type="line"/>
      <point x="10" y="642" type="line"/>
      <point x="10" y="547" type="line"/>
      <point x="304" y="547" type="line"/>
    </contour>
    <contour>
      <point x="331" y="642" type="line"/>
      <point x="331" y="310" type="line"/>
      <point x="436" y="310" type="line"/>
      <point x="436" y="469" type="line"/>
      <point x="474" y="353" type="line"/>
      <point x="557" y="353" type="line"/>
      <point x="596" y="471" type="line"/>
      <point x="596" y="310" type="line"/>
      <point x="701" y="310" type="line"/>
      <point x="701" y="642" type="line"/>
      <point x="581" y="642" type="line"/>
      <point x="516" y="458" type="line"/>
      <point x="451" y="642" type="line"/>
    </contour>
  </outline>
</glyph>
<glyph name="Omega.math" format="1">
  <advance width="532"/>
  <unicode hex="2126"/>
  <outline>
    <contour>
      <point x="312" y="374" type="line"/>
      <point x="487" y="374" type="line"/>
      <point x="487" y="518" type="line" smooth="yes"/>
      <point x="487" y="593"/>
      <point x="447" y="642"/>
      <point x="340" y="642" type="curve" smooth="yes"/>
      <point x="254" y="642" type="line"/>
      <point x="254" y="517" type="line"/>
      <point x="287" y="517" type="line" smooth="yes"/>
      <point x="304" y="517"/>
      <point x="312" y="510"/>
      <point x="312" y="495" type="curve" smooth="yes"/>
    </contour>
    <contour>
      <point x="312" y="157" type="line"/>
      <point x="312" y="142"/>
      <point x="311" y="125"/>
      <point x="297" y="125" type="curve" smooth="yes"/>
      <point x="294" y="125" type="line"/>
      <point x="294" y="100" type="line"/>
      <point x="340" y="100" type="line" smooth="yes"/>
      <point x="447" y="100"/>
      <point x="487" y="139"/>
      <point x="487" y="214" type="curve" smooth="yes"/>
      <point x="487" y="387" type="line"/>
      <point x="312" y="387" type="line"/>
    </contour>
    <contour>
      <point x="220" y="495" type="line"/>
      <point x="220" y="510"/>
      <point x="228" y="517"/>
      <point x="245" y="517" type="curve" smooth="yes"/>
      <point x="278" y="517" type="line"/>
      <point x="278" y="642" type="line"/>
      <point x="192" y="642" type="line" smooth="yes"/>
      <point x="85" y="642"/>
      <point x="45" y="593"/>
      <point x="45" y="518" type="curve" smooth="yes"/>
      <point x="45" y="374" type="line"/>
      <point x="220" y="374" type="line"/>
    </contour>
    <contour>
      <point x="220" y="387" type="line"/>
      <point x="45" y="387" type="line"/>
      <point x="45" y="214" type="line" smooth="yes"/>
      <point x="45" y="139"/>
      <point x="85" y="100"/>
      <point x="192" y="100" type="curve" smooth="yes"/>
      <point x="238" y="100" type="line"/>
      <point x="238" y="125" type="line"/>
      <point x="235" y="125" type="line" smooth="yes"/>
      <point x="221" y="125"/>
      <point x="220" y="142"/>
      <point x="220" y="157" type="curve" smooth="yes"/>
    </contour>
    <contour>
      <point x="516" y="125" type="line"/>
      <point x="292" y="125" type="line"/>
      <point x="292" y="0" type="line"/>
      <point x="516" y="0" type="line"/>
    </contour>
    <contour>
      <point x="240" y="125" type="line"/>
      <point x="15" y="125" type="line"/>
      <point x="15" y="0" type="line"/>
      <point x="240" y="0" type="line"/>
    </contour>
  </outline>
</glyph>
<glyph name="minus" format="1">
  <advance width="666"/>
  <unicode hex="2212"/>
  <outline>
    <contour>
      <point x="15" y="257" type="line"/>
      <point x="498" y="257" type="line"/>
      <point x="498" y="382" type="line"/>
      <point x="15" y="382" type="line"/>
    </contour>
  </outline>
</glyph>
<glyph name="infinity" format="1">
  <advance width="607"/>
  <unicode hex="221E"/>
  <outline>
    <contour>
      <point x="138" y="164" type="line"/>
      <point x="169" y="164" type="line" smooth="yes"/>
      <point x="240" y="164"/>
      <point x="263" y="173"/>
      <point x="299" y="237" type="curve" smooth="yes"/>
      <point x="390" y="398" type="line" smooth="yes"/>
      <point x="401" y="418"/>
      <point x="410" y="427"/>
      <point x="427" y="427" type="curve" smooth="yes"/>
      <point x="447" y="427" type="line"/>
      <point x="447" y="531" type="line"/>
      <point x="421" y="531" type="line" smooth="yes"/>
      <point x="352" y="531"/>
      <point x="337" y="513"/>
      <point x="301" y="449" type="curve" smooth="yes"/>
      <point x="215" y="298" type="line" smooth="yes"/>
      <point x="206" y="283"/>
      <point x="190" y="269"/>
      <point x="169" y="269" type="curve" smooth="yes"/>
      <point x="154" y="269" type="line"/>
    </contour>
    <contour>
      <point x="163" y="269" type="line"/>
      <point x="138" y="269" type="line" smooth="yes"/>
      <point x="112" y="269"/>
      <point x="109" y="277"/>
      <point x="109" y="301" type="curve" smooth="yes"/>
      <point x="109" y="394" type="line" smooth="yes"/>
      <point x="109" y="417"/>
      <point x="112" y="426"/>
      <point x="138" y="426" type="curve" smooth="yes"/>
      <point x="162" y="426" type="line"/>
      <point x="162" y="531" type="line"/>
      <point x="134" y="531" type="line" smooth="yes"/>
      <point x="27" y="531"/>
      <point x="-13" y="482"/>
      <point x="-13" y="407" type="curve" smooth="yes"/>
      <point x="-13" y="288" type="line" smooth="yes"/>
      <point x="-13" y="213"/>
      <point x="27" y="164"/>
      <point x="134" y="164" type="curve" smooth="yes"/>
      <point x="149" y="164" type="line"/>
    </contour>
    <contour>
      <point x="345" y="369" type="line"/>
      <point x="295" y="445" type="line" smooth="yes"/>
      <point x="260" y="498"/>
      <point x="233" y="531"/>
      <point x="173" y="531" type="curve" smooth="yes"/>
      <point x="154" y="531" type="line"/>
      <point x="154" y="426" type="line"/>
      <point x="164" y="426" type="line" smooth="yes"/>
      <point x="187" y="426"/>
      <point x="203" y="407"/>
      <point x="217" y="385" type="curve" smooth="yes"/>
      <point x="268" y="306" type="line"/>
    </contour>
    <contour>
      <point x="276" y="284" type="line"/>
      <point x="309" y="238" type="line" smooth="yes"/>
      <point x="349" y="182"/>
      <point x="377" y="164"/>
      <point x="440" y="164" type="curve" smooth="yes"/>
      <point x="452" y="164" type="line"/>
      <point x="452" y="269" type="line"/>
      <point x="431" y="269" type="line" smooth="yes"/>
      <point x="409" y="269"/>
      <point x="393" y="289"/>
      <point x="380" y="309" type="curve" smooth="yes"/>
      <point x="348" y="357" type="line"/>
    </contour>
    <contour>
      <point x="443" y="164" type="line"/>
      <point x="472" y="164" type="line" smooth="yes"/>
      <point x="579" y="164"/>
      <point x="619" y="213"/>
      <point x="619" y="288" type="curve" smooth="yes"/>
      <point x="619" y="407" type="line" smooth="yes"/>
      <point x="619" y="482"/>
      <point x="579" y="531"/>
      <point x="472" y="531" type="curve" smooth="yes"/>
      <point x="437" y="531" type="line"/>
      <point x="437" y="426" type="line"/>
      <point x="468" y="426" type="line" smooth="yes"/>
      <point x="494" y="426"/>
      <point x="497" y="417"/>
      <point x="497" y="394" type="curve" smooth="yes"/>
      <point x="497" y="301" type="line" smooth="yes"/>
      <point x="497" y="277"/>
      <point x="494" y="269"/>
      <point x="468" y="269" type="curve" smooth="yes"/>
      <point x="436" y="269" type="line"/>
    </contour>
  </outline>
</glyph>
<glyph name="integral" format="1">
  <advance width="483"/>
  <unicode hex="222B"/>
  <outline>
    <contour>
      <point x="336" y="542" type="line"/>
      <point x="338" y="557"/>
      <point x="344" y="564"/>
      <point x="361" y="564" type="curve" smooth="yes"/>
      <point x="414" y="564" type="line"/>
      <point x="414" y="689" type="line"/>
      <point x="313" y="689" type="line" smooth="yes"/>
      <point x="206" y="689"/>
      <point x="166" y="640"/>
      <point x="166" y="565" type="curve"/>
      <point x="166" y="-1" type="line" smooth="yes"/>
      <point x="164" y="-16"/>
      <point x="158" y="-23"/>
      <point x="141" y="-23" type="curve" smooth="yes"/>
      <point x="88" y="-23" type="line"/>
      <point x="88" y="-148" type="line"/>
      <point x="189" y="-148" type="line" smooth="yes"/>
      <point x="296" y="-148"/>
      <point x="336" y="-99"/>
      <point x="336" y="-24" type="curve"/>
    </contour>
  </outline>
</glyph>
<glyph name="approxequal" format="1">
  <advance width="563"/>
  <unicode hex="2248"/>
  <outline>
    <contour>
      <point x="360" y="335" type="curve"/>
      <point x="427" y="335" type="line" smooth="yes"/>
      <point x="507" y="335"/>
      <point x="538" y="366"/>
      <point x="538" y="435" type="curve" smooth="yes"/>
      <point x="538" y="500" type="line"/>
      <point x="383" y="500" type="line"/>
      <point x="383" y="475" type="line" smooth="yes"/>
      <point x="383" y="452"/>
      <point x="378" y="443"/>
      <point x="355" y="443" type="curve" smooth="yes"/>
      <point x="319" y="443"/>
      <point x="291" y="500"/>
      <point x="203" y="500" type="curve" smooth="yes"/>
      <point x="136" y="500" type="line" smooth="yes"/>
      <point x="56" y="500"/>
      <point x="25" y="469"/>
      <point x="25" y="400" type="curve" smooth="yes"/>
      <point x="25" y="335" type="line"/>
      <point x="180" y="335" type="line"/>
      <point x="180" y="360" type="line" smooth="yes"/>
      <point x="180" y="383"/>
      <point x="185" y="392"/>
      <point x="208" y="392" type="curve" smooth="yes"/>
      <point x="257" y="392"/>
      <point x="288" y="335"/>
    </contour>
    <contour>
      <point x="360" y="139" type="curve"/>
      <point x="427" y="139" type="line" smooth="yes"/>
      <point x="507" y="139"/>
      <point x="538" y="170"/>
      <point x="538" y="239" type="curve" smooth="yes"/>
      <point x="538" y="304" type="line"/>
      <point x="383" y="304" type="line"/>
      <point x="383" y="279" type="line" smooth="yes"/>
      <point x="383" y="256"/>
      <point x="378" y="247"/>
      <point x="355" y="247" type="curve" smooth="yes"/>
      <point x="319" y="247"/>
      <point x="291" y="304"/>
      <point x="203" y="304" type="curve" smooth="yes"/>
      <point x="136" y="304" type="line" smooth="yes"/>
      <point x="56" y="304"/>
      <point x="25" y="273"/>
      <point x="25" y="204" type="curve" smooth="yes"/>
      <point x="25" y="139" type="line"/>
      <point x="180" y="139" type="line"/>
      <point x="180" y="164" type="line" smooth="yes"/>
      <point x="180" y="187"/>
      <point x="185" y="196"/>
      <point x="208" y="196" type="curve" smooth="yes"/>
      <point x="257" y="196"/>
      <point x="288" y="139"/>
    </contour>
  </outline>
</glyph>
<glyph name="notequal" format="1">
  <advance width="533"/>
  <unicode hex="2260"/>
  <outline>
    <contour>
      <point x="25" y="361" type="line"/>
      <point x="508" y="361" type="line"/>
      <point x="508" y="490" type="line"/>
      <point x="25" y="490" type="line"/>
    </contour>
    <contour>
      <point x="25" y="149" type="line"/>
      <point x="508" y="149" type="line"/>
      <point x="508" y="278" type="line"/>
      <point x="25" y="278" type="line"/>
    </contour>
    <contour>
      <point x="339" y="550" type="line"/>
      <point x="85" y="89" type="line"/>
      <point x="194" y="89" type="line"/>
      <point x="448" y="550" type="line"/>
    </contour>
  </outline>
</glyph>
<glyph name="lessequal" format="1">
  <advance width="533"/>
  <unicode hex="2264"/>
  <outline>
    <contour>
      <point x="508" y="458" type="line"/>
      <point x="508" y="584" type="line"/>
      <point x="25" y="506" type="line"/>
      <point x="25" y="356" type="line"/>
      <point x="508" y="270" type="line"/>
      <point x="508" y="398" type="line"/>
      <point x="143" y="429" type="line"/>
    </contour>
    <contour>
      <point x="508" y="257" type="line"/>
      <point x="25" y="257" type="line"/>
      <point x="25" y="139" type="line"/>
      <point x="508" y="139" type="line"/>
    </contour>
  </outline>
</glyph>
<glyph name="lozenge" format="1">
  <advance width="699"/>
  <unicode hex="25CA"/>
  <outline>
    <contour>
      <point x="610" y="323" type="line"/>
      <point x="422" y="642" type="line"/>
      <point x="249" y="642" type="line"/>
      <point x="67" y="323" type="line"/>
      <point x="234" y="323" type="line"/>
      <point x="335" y="517" type="line"/>
      <point x="443" y="323" type="line"/>
    </contour>
    <contour>
      <point x="443" y="323" type="line"/>
      <point x="335" y="125" type="line"/>
      <point x="234" y="323" type="line"/>
      <point x="67" y="323" type="line"/>
      <point x="249" y="1" type="line"/>
      <point x="422" y="1" type="line"/>
      <point x="610" y="323" type="line"/>
    </contour>
  </outline>
</glyph>
<glyph name="fi" format="1">
  <advance width="510"/>
  <unicode hex="FB01"/>
  <outline>
    <contour>
      <point x="470" y="0" type="line"/>
      <point x="470" y="499" type="line"/>
      <point x="303" y="499" type="line"/>
      <point x="303" y="0" type="line"/>
    </contour>
    <contour>
      <point x="228" y="529" type="line"/>
      <point x="228" y="544"/>
      <point x="236" y="551"/>
      <point x="253" y="551" type="curve" smooth="yes"/>
      <point x="269" y="551" type="line"/>
      <point x="269" y="669" type="line"/>
      <point x="208" y="669" type="line" smooth="yes"/>
      <point x="101" y="669"/>
      <point x="61" y="620"/>
      <point x="61" y="545" type="curve" smooth="yes"/>
      <point x="61" y="0" type="line"/>
      <point x="228" y="0" type="line"/>
    </contour>
    <contour>
      <point x="373" y="499" type="line"/>
      <point x="10" y="499" type="line"/>
      <point x="10" y="374" type="line"/>
      <point x="373" y="374" type="line"/>
    </contour>
    <contour>
      <point x="303" y="551" type="line"/>
      <point x="470" y="551" type="line"/>
      <point x="470" y="669" type="line"/>
      <point x="303" y="669" type="line"/>
    </contour>
  </outline>
</glyph>
<glyph name="Lcaron" format="1">
  <advance width="414"/>
  <outline>
    <contour>
      <point x="250" y="642" type="line"/>
      <point x="250" y="429" type="line"/>
      <point x="290" y="429" type="line"/>
      <point x="366" y="565" type="line"/>
      <point x="366" y="642" type="line"/>
    </contour>
    <contour>
      <point x="40" y="642" type="line"/>
      <point x="40" y="0" type="line"/>
      <point x="215" y="0" type="line"/>
      <point x="215" y="642" type="line"/>
    </contour>
    <contour>
      <point x="98" y="0" type="line"/>
      <point x="414" y="0" type="line"/>
      <point x="414" y="125" type="line"/>
      <point x="98" y="125" type="line"/>
    </contour>
  </outline>
</glyph>
<glyph name="dvAnusvara" format="1">
  <advance width="0"/>
  <outline>
    <contour>
      <point x="-59" y="642" type="move" name="_abvm.bindu"/>
    </contour>
    <contour>
      <point x="-181" y="857" type="line"/>
      <point x="-181" y="728" type="line"/>
      <point x="-59" y="728" type="line"/>
      <point x="-59" y="857" type="line"/>
    </contour>
  </outline>
</glyph>
<glyph name="dvAnusvara.amI" format="1">
  <advance width="0"/>
  <outline>
    <contour>
      <point x="0" y="658" type="move" name="_abvm.i"/>
    </contour>
    <contour>
      <point x="30" y="787" type="line"/>
      <point x="30" y="658" type="line"/>
      <point x="152" y="658" type="line"/>
      <point x="152" y="787" type="line"/>
    </contour>
  </outline>
</glyph>
<glyph name="dvB" format="1">
  <advance width="327"/>
  <outline>
    <contour>
      <point x="392" y="642" type="line"/>
      <point x="-20" y="642" type="line"/>
      <point x="-20" y="529" type="line"/>
      <point x="392" y="529" type="line"/>
    </contour>
    <contour>
      <point x="161" y="78" type="curve" smooth="yes"/>
      <point x="392" y="78" type="line"/>
      <point x="392" y="188" type="line"/>
      <point x="392" y="188"/>
      <point x="328" y="275"/>
      <point x="294" y="318" type="curve" smooth="yes"/>
      <point x="253" y="369" type="line"/>
      <point x="325" y="369" type="line"/>
      <point x="325" y="472" type="line"/>
      <point x="170" y="472" type="line" smooth="yes"/>
      <point x="61" y="472"/>
      <point x="30" y="438"/>
      <point x="30" y="365" type="curve" smooth="yes"/>
      <point x="30" y="205" type="line" smooth="yes"/>
      <point x="30" y="112"/>
      <point x="75" y="78"/>
    </contour>
    <contour>
      <point x="200" y="215" type="curve" smooth="yes"/>
      <point x="200" y="332" type="line"/>
      <point x="225" y="300"/>
      <point x="252" y="266"/>
      <point x="262" y="254" type="curve" smooth="yes"/>
      <point x="314" y="191" type="line"/>
      <point x="223" y="191" type="line" smooth="yes"/>
      <point x="208" y="191"/>
      <point x="200" y="196"/>
    </contour>
  </outline>
</glyph>
<glyph name="dvBHA" format="1">
  <advance width="736"/>
  <outline>
    <contour>
      <point x="526" y="552" type="line"/>
      <point x="526" y="0" type="line"/>
      <point x="696" y="0" type="line"/>
      <point x="696" y="552" type="line"/>
    </contour>
    <contour>
      <point x="526" y="642" type="line"/>
      <point x="526" y="529" type="line"/>
      <point x="756" y="529" type="line"/>
      <point x="756" y="642" type="line"/>
    </contour>
    <contour>
      <point x="308" y="647" type="curve"/>
      <point x="189" y="647" type="line" smooth="yes"/>
      <point x="80" y="647"/>
      <point x="49" y="603"/>
      <point x="49" y="530" type="curve" smooth="yes"/>
      <point x="49" y="488" type="line"/>
      <point x="219" y="488" type="line"/>
      <point x="219" y="514" type="line" smooth="yes"/>
      <point x="219" y="529"/>
      <point x="227" y="534"/>
      <point x="242" y="534" type="curve" smooth="yes"/>
      <point x="255" y="534" type="line" smooth="yes"/>
      <point x="270" y="534"/>
      <point x="278" y="529"/>
      <point x="278" y="514" type="curve" smooth="yes"/>
      <point x="278" y="215" type="line" smooth="yes"/>
      <point x="278" y="196"/>
      <point x="268" y="191"/>
      <point x="253" y="191" type="curve" smooth="yes"/>
      <point x="235" y="191" type="line" smooth="yes"/>
      <point x="220" y="191"/>
      <point x="210" y="196"/>
      <point x="210" y="215" type="curve" smooth="yes"/>
      <point x="210" y="307" type="line" smooth="yes"/>
      <point x="210" y="322"/>
      <point x="218" y="327"/>
      <point x="233" y="327" type="curve" smooth="yes"/>
      <point x="622" y="327" type="line"/>
      <point x="622" y="440" type="line"/>
      <point x="180" y="440" type="line" smooth="yes"/>
      <point x="71" y="440"/>
      <point x="40" y="406"/>
      <point x="40" y="333" type="curve" smooth="yes"/>
      <point x="40" y="205" type="line" smooth="yes"/>
      <point x="40" y="112"/>
      <point x="81" y="78"/>
      <point x="201" y="78" type="curve" smooth="yes"/>
      <point x="287" y="78" type="line" smooth="yes"/>
      <point x="407" y="78"/>
      <point x="448" y="112"/>
      <point x="448" y="205" type="curve" smooth="yes"/>
      <point x="448" y="530" type="line" smooth="yes"/>
      <point x="448" y="603"/>
      <point x="417" y="647"/>
    </contour>
  </outline>
</glyph>
<glyph name="dvBH_LA" format="1">
  <advance width="1211"/>
  <outline>
    <contour>
      <point x="308" y="647" type="curve"/>
      <point x="189" y="647" type="line" smooth="yes"/>
      <point x="80" y="647"/>
      <point x="49" y="603"/>
      <point x="49" y="530" type="curve" smooth="yes"/>
      <point x="49" y="488" type="line"/>
      <point x="219" y="488" type="line"/>
      <point x="219" y="514" type="line" smooth="yes"/>
      <point x="219" y="529"/>
      <point x="227" y="534"/>
      <point x="242" y="534" type="curve" smooth="yes"/>
      <point x="255" y="534" type="line" smooth="yes"/>
      <point x="270" y="534"/>
      <point x="278" y="529"/>
      <point x="278" y="514" type="curve" smooth="yes"/>
      <point x="278" y="215" type="line" smooth="yes"/>
      <point x="278" y="196"/>
      <point x="268" y="191"/>
      <point x="253" y="191" type="curve" smooth="yes"/>
      <point x="235" y="191" type="line" smooth="yes"/>
      <point x="220" y="191"/>
      <point x="210" y="196"/>
      <point x="210" y="215" type="curve" smooth="yes"/>
      <point x="210" y="309" type="line" smooth="yes"/>
      <point x="210" y="324"/>
      <point x="218" y="329"/>
      <point x="233" y="329" type="curve" smooth="yes"/>
      <point x="576" y="329" type="line"/>
      <point x="705" y="442" type="line"/>
      <point x="180" y="442" type="line" smooth="yes"/>
      <point x="71" y="442"/>
      <point x="40" y="408"/>
      <point x="40" y="335" type="curve" smooth="yes"/>
      <point x="40" y="205" type="line" smooth="yes"/>
      <point x="40" y="112"/>
      <point x="81" y="78"/>
      <point x="201" y="78" type="curve" smooth="yes"/>
      <point x="287" y="78" type="line" smooth="yes"/>
      <point x="407" y="78"/>
      <point x="448" y="112"/>
      <point x="448" y="205" type="curve" smooth="yes"/>
      <point x="448" y="530" type="line" smooth="yes"/>
      <point x="448" y="603"/>
      <point x="417" y="647"/>
    </contour>
    <contour>
      <point x="516" y="642" type="line"/>
      <point x="516" y="529" type="line"/>
      <point x="1231" y="529" type="line"/>
      <point x="1231" y="642" type="line"/>
    </contour>
    <contour>
      <point x="788" y="472" type="curve"/>
      <point x="647" y="472" type="line" smooth="yes"/>
      <point x="561" y="472"/>
      <point x="516" y="438"/>
      <point x="516" y="345" type="curve" smooth="yes"/>
      <point x="516" y="107" type="line" smooth="yes"/>
      <point x="516" y="34"/>
      <point x="547" y="0"/>
      <point x="656" y="0" type="curve" smooth="yes"/>
      <point x="759" y="0" type="line"/>
      <point x="759" y="113" type="line"/>
      <point x="709" y="113" type="line" smooth="yes"/>
      <point x="694" y="113"/>
      <point x="686" y="118"/>
      <point x="686" y="133" type="curve" smooth="yes"/>
      <point x="686" y="335" type="line" smooth="yes"/>
      <point x="686" y="354"/>
      <point x="694" y="359"/>
      <point x="709" y="359" type="curve" smooth="yes"/>
      <point x="738" y="359" type="line" smooth="yes"/>
      <point x="757" y="359"/>
      <point x="761" y="350"/>
      <point x="761" y="335" type="curve" smooth="yes"/>
      <point x="761" y="198" type="line"/>
      <point x="931" y="198" type="line"/>
      <point x="931" y="335" type="line" smooth="yes"/>
      <point x="931" y="350"/>
      <point x="935" y="359"/>
      <point x="954" y="359" type="curve" smooth="yes"/>
      <point x="1014" y="359" type="line"/>
      <point x="1014" y="472" type="line"/>
      <point x="905" y="472" type="line" smooth="yes"/>
      <point x="868" y="472"/>
      <point x="853" y="455"/>
      <point x="849" y="425" type="curve"/>
      <point x="844" y="425" type="line"/>
      <point x="840" y="455"/>
      <point x="825" y="472"/>
    </contour>
    <contour>
      <point x="1171" y="0" type="line"/>
      <point x="1171" y="548" type="line"/>
      <point x="1001" y="548" type="line"/>
      <point x="1001" y="0" type="line"/>
    </contour>
  </outline>
</glyph>
<glyph name="dvBH_NA" format="1">
  <advance width="1194"/>
  <outline>
    <contour>
      <point x="308" y="647" type="curve"/>
      <point x="189" y="647" type="line" smooth="yes"/>
      <point x="80" y="647"/>
      <point x="49" y="603"/>
      <point x="49" y="530" type="curve" smooth="yes"/>
      <point x="49" y="488" type="line"/>
      <point x="219" y="488" type="line"/>
      <point x="219" y="514" type="line" smooth="yes"/>
      <point x="219" y="529"/>
      <point x="227" y="534"/>
      <point x="242" y="534" type="curve" smooth="yes"/>
      <point x="255" y="534" type="line" smooth="yes"/>
      <point x="270" y="534"/>
      <point x="278" y="529"/>
      <point x="278" y="514" type="curve" smooth="yes"/>
      <point x="278" y="215" type="line" smooth="yes"/>
      <point x="278" y="196"/>
      <point x="268" y="191"/>
      <point x="253" y="191" type="curve" smooth="yes"/>
      <point x="235" y="191" type="line" smooth="yes"/>
      <point x="220" y="191"/>
      <point x="210" y="196"/>
      <point x="210" y="215" type="curve" smooth="yes"/>
      <point x="210" y="287" type="line" smooth="yes"/>
      <point x="210" y="302"/>
      <point x="218" y="307"/>
      <point x="233" y="307" type="curve" smooth="yes"/>
      <point x="536" y="307" type="line"/>
      <point x="536" y="420" type="line"/>
      <point x="180" y="420" type="line" smooth="yes"/>
      <point x="71" y="420"/>
      <point x="40" y="386"/>
      <point x="40" y="313" type="curve" smooth="yes"/>
      <point x="40" y="205" type="line" smooth="yes"/>
      <point x="40" y="112"/>
      <point x="81" y="78"/>
      <point x="201" y="78" type="curve" smooth="yes"/>
      <point x="287" y="78" type="line" smooth="yes"/>
      <point x="407" y="78"/>
      <point x="448" y="112"/>
      <point x="448" y="205" type="curve" smooth="yes"/>
      <point x="448" y="530" type="line" smooth="yes"/>
      <point x="448" y="603"/>
      <point x="417" y="647"/>
    </contour>
    <contour>
      <point x="984" y="552" type="line"/>
      <point x="984" y="0" type="line"/>
      <point x="1154" y="0" type="line"/>
      <point x="1154" y="552" type="line"/>
    </contour>
    <contour>
      <point x="516" y="642" type="line"/>
      <point x="516" y="529" type="line"/>
      <point x="1214" y="529" type="line"/>
      <point x="1214" y="642" type="line"/>
    </contour>
    <contour>
      <point x="924" y="205" type="curve"/>
      <point x="924" y="386" type="line"/>
      <point x="754" y="386" type="line"/>
      <point x="754" y="215" type="line" smooth="yes"/>
      <point x="754" y="196"/>
      <point x="744" y="191"/>
      <point x="729" y="191" type="curve" smooth="yes"/>
      <point x="711" y="191" type="line" smooth="yes"/>
      <point x="696" y="191"/>
      <point x="686" y="196"/>
      <point x="686" y="215" type="curve" smooth="yes"/>
      <point x="686" y="339" type="line" smooth="yes"/>
      <point x="686" y="354"/>
      <point x="694" y="359"/>
      <point x="709" y="359" type="curve" smooth="yes"/>
      <point x="1080" y="359" type="line"/>
      <point x="1080" y="472" type="line"/>
      <point x="656" y="472" type="line" smooth="yes"/>
      <point x="547" y="472"/>
      <point x="516" y="438"/>
      <point x="516" y="365" type="curve" smooth="yes"/>
      <point x="516" y="205" type="line" smooth="yes"/>
      <point x="516" y="112"/>
      <point x="557" y="78"/>
      <point x="677" y="78" type="curve" smooth="yes"/>
      <point x="763" y="78" type="line" smooth="yes"/>
      <point x="883" y="78"/>
      <point x="924" y="112"/>
    </contour>
  </outline>
</glyph>
<glyph name="dvBH_R" format="1">
  <advance width="569"/>
  <outline>
    <contour>
      <point x="308" y="647" type="curve"/>
      <point x="189" y="647" type="line" smooth="yes"/>
      <point x="80" y="647"/>
      <point x="49" y="603"/>
      <point x="49" y="530" type="curve" smooth="yes"/>
      <point x="49" y="488" type="line"/>
      <point x="219" y="488" type="line"/>
      <point x="219" y="514" type="line" smooth="yes"/>
      <point x="219" y="529"/>
      <point x="227" y="534"/>
      <point x="242" y="534" type="curve" smooth="yes"/>
      <point x="255" y="534" type="line" smooth="yes"/>
      <point x="270" y="534"/>
      <point x="278" y="529"/>
      <point x="278" y="514" type="curve" smooth="yes"/>
      <point x="278" y="290" type="line" smooth="yes"/>
      <point x="278" y="271"/>
      <point x="268" y="266"/>
      <point x="253" y="266" type="curve" smooth="yes"/>
      <point x="235" y="266" type="line" smooth="yes"/>
      <point x="220" y="266"/>
      <point x="210" y="271"/>
      <point x="210" y="290" type="curve" smooth="yes"/>
      <point x="210" y="314" type="line" smooth="yes"/>
      <point x="210" y="329"/>
      <point x="218" y="334"/>
      <point x="233" y="334" type="curve" smooth="yes"/>
      <point x="589" y="334" type="line"/>
      <point x="589" y="447" type="line"/>
      <point x="180" y="447" type="line" smooth="yes"/>
      <point x="71" y="447"/>
      <point x="40" y="413"/>
      <point x="40" y="340" type="curve" smooth="yes"/>
      <point x="40" y="280" type="line" smooth="yes"/>
      <point x="40" y="187"/>
      <point x="81" y="153"/>
      <point x="201" y="153" type="curve" smooth="yes"/>
      <point x="287" y="153" type="line" smooth="yes"/>
      <point x="407" y="153"/>
      <point x="448" y="187"/>
      <point x="448" y="280" type="curve" smooth="yes"/>
      <point x="448" y="530" type="line" smooth="yes"/>
      <point x="448" y="603"/>
      <point x="417" y="647"/>
    </contour>
    <contour>
      <point x="589" y="316" type="line"/>
      <point x="196" y="-80" type="line"/>
      <point x="356" y="-80" type="line"/>
      <point x="589" y="156" type="line"/>
    </contour>
  </outline>
</glyph>
<glyph name="dvBH_RA" format="1">
  <advance width="736"/>
  <outline>
    <contour>
      <point x="526" y="642" type="line"/>
      <point x="526" y="529" type="line"/>
      <point x="756" y="529" type="line"/>
      <point x="756" y="642" type="line"/>
    </contour>
    <contour>
      <point x="308" y="647" type="curve"/>
      <point x="189" y="647" type="line" smooth="yes"/>
      <point x="80" y="647"/>
      <point x="49" y="603"/>
      <point x="49" y="530" type="curve" smooth="yes"/>
      <point x="49" y="488" type="line"/>
      <point x="219" y="488" type="line"/>
      <point x="219" y="514" type="line" smooth="yes"/>
      <point x="219" y="529"/>
      <point x="227" y="534"/>
      <point x="242" y="534" type="curve" smooth="yes"/>
      <point x="255" y="534" type="line" smooth="yes"/>
      <point x="270" y="534"/>
      <point x="278" y="529"/>
      <point x="278" y="514" type="curve" smooth="yes"/>
      <point x="278" y="290" type="line" smooth="yes"/>
      <point x="278" y="271"/>
      <point x="268" y="266"/>
      <point x="253" y="266" type="curve" smooth="yes"/>
      <point x="235" y="266" type="line" smooth="yes"/>
      <point x="220" y="266"/>
      <point x="210" y="271"/>
      <point x="210" y="290" type="curve" smooth="yes"/>
      <point x="210" y="314" type="line" smooth="yes"/>
      <point x="210" y="329"/>
      <point x="218" y="334"/>
      <point x="233" y="334" type="curve" smooth="yes"/>
      <point x="622" y="334" type="line"/>
      <point x="622" y="447" type="line"/>
      <point x="180" y="447" type="line" smooth="yes"/>
      <point x="71" y="447"/>
      <point x="40" y="413"/>
      <point x="40" y="340" type="curve" smooth="yes"/>
      <point x="40" y="280" type="line" smooth="yes"/>
      <point x="40" y="187"/>
      <point x="81" y="153"/>
      <point x="201" y="153" type="curve" smooth="yes"/>
      <point x="287" y="153" type="line" smooth="yes"/>
      <point x="407" y="153"/>
      <point x="448" y="187"/>
      <point x="448" y="280" type="curve" smooth="yes"/>
      <point x="448" y="530" type="line" smooth="yes"/>
      <point x="448" y="603"/>
      <point x="417" y="647"/>
    </contour>
    <contour>
      <point x="526" y="572" type="line"/>
      <point x="526" y="252" type="line"/>
      <point x="196" y="-80" type="line"/>
      <point x="356" y="-80" type="line"/>
      <point x="526" y="92" type="line"/>
      <point x="526" y="0" type="line"/>
      <point x="696" y="0" type="line"/>
      <point x="696" y="572" type="line"/>
    </contour>
  </outline>
</glyph>
<glyph name="dvBH_R_YA" format="1">
  <advance width="1114"/>
  <outline>
    <contour>
      <point x="526" y="642" type="line"/>
      <point x="526" y="529" type="line"/>
      <point x="1134" y="529" type="line"/>
      <point x="1134" y="642" type="line"/>
    </contour>
    <contour>
      <point x="904" y="592" type="line"/>
      <point x="904" y="0" type="line"/>
      <point x="1074" y="0" type="line"/>
      <point x="1074" y="592" type="line"/>
    </contour>
    <contour>
      <point x="836" y="446" type="curve"/>
      <point x="836" y="485" type="line" smooth="yes"/>
      <point x="836" y="543"/>
      <point x="792" y="557"/>
      <point x="719" y="557" type="curve"/>
      <point x="640" y="529" type="line"/>
      <point x="666" y="529"/>
      <point x="674" y="521"/>
      <point x="674" y="495" type="curve" smooth="yes"/>
      <point x="674" y="462" type="line" smooth="yes"/>
      <point x="674" y="447"/>
      <point x="666" y="442"/>
      <point x="651" y="442" type="curve" smooth="yes"/>
      <point x="526" y="442" type="line"/>
      <point x="526" y="205" type="line" smooth="yes"/>
      <point x="526" y="112"/>
      <point x="577" y="78"/>
      <point x="687" y="78" type="curve" smooth="yes"/>
      <point x="855" y="78" type="line" smooth="yes"/>
      <point x="902" y="78"/>
      <point x="918" y="102"/>
      <point x="918" y="138" type="curve"/>
      <point x="904" y="225" type="line"/>
      <point x="904" y="199"/>
      <point x="896" y="191"/>
      <point x="870" y="191" type="curve" smooth="yes"/>
      <point x="719" y="191" type="line" smooth="yes"/>
      <point x="704" y="191"/>
      <point x="696" y="196"/>
      <point x="696" y="215" type="curve" smooth="yes"/>
      <point x="696" y="329" type="line"/>
      <point x="701" y="329" type="line" smooth="yes"/>
      <point x="810" y="329"/>
      <point x="836" y="373"/>
    </contour>
    <contour>
      <point x="556" y="282" type="line"/>
      <point x="196" y="-80" type="line"/>
      <point x="356" y="-80" type="line"/>
      <point x="649" y="210" type="line"/>
    </contour>
    <contour>
      <point x="308" y="647" type="curve"/>
      <point x="189" y="647" type="line" smooth="yes"/>
      <point x="80" y="647"/>
      <point x="49" y="603"/>
      <point x="49" y="530" type="curve" smooth="yes"/>
      <point x="49" y="488" type="line"/>
      <point x="219" y="488" type="line"/>
      <point x="219" y="514" type="line" smooth="yes"/>
      <point x="219" y="529"/>
      <point x="227" y="534"/>
      <point x="242" y="534" type="curve" smooth="yes"/>
      <point x="255" y="534" type="line" smooth="yes"/>
      <point x="270" y="534"/>
      <point x="278" y="529"/>
      <point x="278" y="514" type="curve" smooth="yes"/>
      <point x="278" y="290" type="line" smooth="yes"/>
      <point x="278" y="271"/>
      <point x="268" y="266"/>
      <point x="253" y="266" type="curve" smooth="yes"/>
      <point x="235" y="266" type="line" smooth="yes"/>
      <point x="220" y="266"/>
      <point x="210" y="271"/>
      <point x="210" y="290" type="curve" smooth="yes"/>
      <point x="210" y="309" type="line" smooth="yes"/>
      <point x="210" y="324"/>
      <point x="218" y="329"/>
      <point x="233" y="329" type="curve" smooth="yes"/>
      <point x="622" y="329" type="line"/>
      <point x="622" y="442" type="line"/>
      <point x="180" y="442" type="line" smooth="yes"/>
      <point x="71" y="442"/>
      <point x="40" y="408"/>
      <point x="40" y="335" type="curve" smooth="yes"/>
      <point x="40" y="280" type="line" smooth="yes"/>
      <point x="40" y="187"/>
      <point x="81" y="153"/>
      <point x="201" y="153" type="curve" smooth="yes"/>
      <point x="287" y="153" type="line" smooth="yes"/>
      <point x="407" y="153"/>
      <point x="448" y="187"/>
      <point x="448" y="280" type="curve" smooth="yes"/>
      <point x="448" y="530" type="line" smooth="yes"/>
      <point x="448" y="603"/>
      <point x="417" y="647"/>
    </contour>
  </outline>
</glyph>
<glyph name="dvBH_VA" format="1">
  <advance width="971"/>
  <outline>
    <contour>
      <point x="308" y="647" type="curve"/>
      <point x="189" y="647" type="line" smooth="yes"/>
      <point x="80" y="647"/>
      <point x="49" y="603"/>
      <point x="49" y="530" type="curve" smooth="yes"/>
      <point x="49" y="488" type="line"/>
      <point x="219" y="488" type="line"/>
      <point x="219" y="514" type="line" smooth="yes"/>
      <point x="219" y="529"/>
      <point x="227" y="534"/>
      <point x="242" y="534" type="curve" smooth="yes"/>
      <point x="255" y="534" type="line" smooth="yes"/>
      <point x="270" y="534"/>
      <point x="278" y="529"/>
      <point x="278" y="514" type="curve" smooth="yes"/>
      <point x="278" y="215" type="line" smooth="yes"/>
      <point x="278" y="196"/>
      <point x="268" y="191"/>
      <point x="253" y="191" type="curve" smooth="yes"/>
      <point x="235" y="191" type="line" smooth="yes"/>
      <point x="220" y="191"/>
      <point x="210" y="196"/>
      <point x="210" y="215" type="curve" smooth="yes"/>
      <point x="210" y="309" type="line" smooth="yes"/>
      <point x="210" y="324"/>
      <point x="218" y="329"/>
      <point x="233" y="329" type="curve" smooth="yes"/>
      <point x="576" y="329" type="line"/>
      <point x="600" y="442" type="line"/>
      <point x="180" y="442" type="line" smooth="yes"/>
      <point x="71" y="442"/>
      <point x="40" y="408"/>
      <point x="40" y="335" type="curve" smooth="yes"/>
      <point x="40" y="205" type="line" smooth="yes"/>
      <point x="40" y="112"/>
      <point x="81" y="78"/>
      <point x="201" y="78" type="curve" smooth="yes"/>
      <point x="287" y="78" type="line" smooth="yes"/>
      <point x="407" y="78"/>
      <point x="448" y="112"/>
      <point x="448" y="205" type="curve" smooth="yes"/>
      <point x="448" y="530" type="line" smooth="yes"/>
      <point x="448" y="603"/>
      <point x="417" y="647"/>
    </contour>
    <contour>
      <point x="516" y="642" type="line"/>
      <point x="516" y="529" type="line"/>
      <point x="991" y="529" type="line"/>
      <point x="991" y="642" type="line"/>
    </contour>
    <contour>
      <point x="761" y="591" type="line"/>
      <point x="761" y="0" type="line"/>
      <point x="931" y="0" type="line"/>
      <point x="931" y="591" type="line"/>
    </contour>
    <contour>
      <point x="720" y="472" type="line"/>
      <point x="656" y="472" type="line" smooth="yes"/>
      <point x="547" y="472"/>
      <point x="516" y="438"/>
      <point x="516" y="365" type="curve" smooth="yes"/>
      <point x="516" y="205" type="line" smooth="yes"/>
      <point x="516" y="112"/>
      <point x="561" y="78"/>
      <point x="647" y="78" type="curve" smooth="yes"/>
      <point x="708" y="78" type="line" smooth="yes"/>
      <point x="765" y="78"/>
      <point x="775" y="102"/>
      <point x="775" y="148" type="curve"/>
      <point x="761" y="215" type="line"/>
      <point x="761" y="196"/>
      <point x="753" y="191"/>
      <point x="738" y="191" type="curve" smooth="yes"/>
      <point x="709" y="191" type="line" smooth="yes"/>
      <point x="694" y="191"/>
      <point x="686" y="196"/>
      <point x="686" y="215" type="curve" smooth="yes"/>
      <point x="686" y="339" type="line" smooth="yes"/>
      <point x="686" y="354"/>
      <point x="694" y="359"/>
      <point x="709" y="359" type="curve" smooth="yes"/>
      <point x="720" y="359" type="line"/>
    </contour>
  </outline>
</glyph>
<glyph name="dvB_BHA" format="1">
  <advance width="1063"/>
  <outline>
    <contour>
      <point x="-20" y="642" type="line"/>
      <point x="-20" y="529" type="line"/>
      <point x="325" y="529" type="line"/>
      <point x="325" y="642" type="line"/>
    </contour>
    <contour>
      <point x="365" y="129" type="line"/>
      <point x="376" y="143" type="line"/>
      <point x="395" y="96"/>
      <point x="440" y="78"/>
      <point x="528" y="78" type="curve" smooth="yes"/>
      <point x="614" y="78" type="line" smooth="yes"/>
      <point x="734" y="78"/>
      <point x="775" y="112"/>
      <point x="775" y="205" type="curve" smooth="yes"/>
      <point x="775" y="530" type="line" smooth="yes"/>
      <point x="775" y="603"/>
      <point x="744" y="647"/>
      <point x="635" y="647" type="curve" smooth="yes"/>
      <point x="516" y="647" type="line" smooth="yes"/>
      <point x="407" y="647"/>
      <point x="376" y="603"/>
      <point x="376" y="530" type="curve" smooth="yes"/>
      <point x="376" y="488" type="line"/>
      <point x="546" y="488" type="line"/>
      <point x="546" y="514" type="line" smooth="yes"/>
      <point x="546" y="529"/>
      <point x="554" y="534"/>
      <point x="569" y="534" type="curve" smooth="yes"/>
      <point x="582" y="534" type="line" smooth="yes"/>
      <point x="597" y="534"/>
      <point x="605" y="529"/>
      <point x="605" y="514" type="curve" smooth="yes"/>
      <point x="605" y="215" type="line" smooth="yes"/>
      <point x="605" y="196"/>
      <point x="595" y="191"/>
      <point x="580" y="191" type="curve" smooth="yes"/>
      <point x="562" y="191" type="line" smooth="yes"/>
      <point x="547" y="191"/>
      <point x="537" y="196"/>
      <point x="537" y="215" type="curve" smooth="yes"/>
      <point x="537" y="307" type="line" smooth="yes"/>
      <point x="537" y="322"/>
      <point x="545" y="327"/>
      <point x="560" y="327" type="curve" smooth="yes"/>
      <point x="949" y="327" type="line"/>
      <point x="949" y="440" type="line"/>
      <point x="507" y="440" type="line" smooth="yes"/>
      <point x="398" y="440"/>
      <point x="367" y="406"/>
      <point x="367" y="333" type="curve" smooth="yes"/>
      <point x="367" y="274" type="line" smooth="yes"/>
      <point x="367" y="255"/>
      <point x="373" y="222"/>
      <point x="373" y="222" type="curve"/>
      <point x="373" y="222"/>
      <point x="328" y="275"/>
      <point x="294" y="318" type="curve" smooth="yes"/>
      <point x="253" y="369" type="line"/>
      <point x="325" y="369" type="line"/>
      <point x="325" y="472" type="line"/>
      <point x="170" y="472" type="line" smooth="yes"/>
      <point x="61" y="472"/>
      <point x="30" y="438"/>
      <point x="30" y="365" type="curve" smooth="yes"/>
      <point x="30" y="205" type="line" smooth="yes"/>
      <point x="30" y="112"/>
      <point x="75" y="78"/>
      <point x="161" y="78" type="curve" smooth="yes"/>
      <point x="331" y="78" type="line" smooth="yes"/>
      <point x="389" y="78"/>
      <point x="413" y="104"/>
      <point x="418" y="148" type="curve"/>
      <point x="384" y="215" type="line"/>
      <point x="384" y="196"/>
      <point x="376" y="191"/>
      <point x="361" y="191" type="curve" smooth="yes"/>
      <point x="223" y="191" type="line" smooth="yes"/>
      <point x="208" y="191"/>
      <point x="200" y="196"/>
      <point x="200" y="215" type="curve" smooth="yes"/>
      <point x="200" y="332" type="line"/>
      <point x="225" y="300"/>
      <point x="252" y="266"/>
      <point x="262" y="254" type="curve" smooth="yes"/>
    </contour>
    <contour>
      <point x="853" y="552" type="line"/>
      <point x="853" y="0" type="line"/>
      <point x="1023" y="0" type="line"/>
      <point x="1023" y="552" type="line"/>
    </contour>
    <contour>
      <point x="853" y="642" type="line"/>
      <point x="853" y="529" type="line"/>
      <point x="1083" y="529" type="line"/>
      <point x="1083" y="642" type="line"/>
    </contour>
  </outline>
</glyph>
<glyph name="dvB_BH_RA" format="1">
  <advance width="1063"/>
  <outline>
    <contour>
      <point x="325" y="472" type="line"/>
      <point x="170" y="472" type="line" smooth="yes"/>
      <point x="61" y="472"/>
      <point x="30" y="438"/>
      <point x="30" y="365" type="curve" smooth="yes"/>
      <point x="30" y="205" type="line" smooth="yes"/>
      <point x="30" y="112"/>
      <point x="75" y="78"/>
      <point x="161" y="78" type="curve" smooth="yes"/>
      <point x="391" y="78" type="line" smooth="yes"/>
      <point x="449" y="78"/>
      <point x="493" y="113"/>
      <point x="505" y="172" type="curve"/>
      <point x="384" y="215" type="line"/>
      <point x="384" y="196"/>
      <point x="376" y="191"/>
      <point x="361" y="191" type="curve" smooth="yes"/>
      <point x="223" y="191" type="line" smooth="yes"/>
      <point x="208" y="191"/>
      <point x="200" y="196"/>
      <point x="200" y="215" type="curve" smooth="yes"/>
      <point x="200" y="332" type="line"/>
      <point x="225" y="300"/>
      <point x="252" y="266"/>
      <point x="262" y="254" type="curve" smooth="yes"/>
      <point x="365" y="129" type="line"/>
      <point x="407" y="179" type="line"/>
      <point x="432" y="161"/>
      <point x="471" y="153"/>
      <point x="528" y="153" type="curve" smooth="yes"/>
      <point x="614" y="153" type="line" smooth="yes"/>
      <point x="734" y="153"/>
      <point x="775" y="187"/>
      <point x="775" y="280" type="curve" smooth="yes"/>
      <point x="775" y="530" type="line" smooth="yes"/>
      <point x="775" y="603"/>
      <point x="744" y="647"/>
      <point x="635" y="647" type="curve" smooth="yes"/>
      <point x="516" y="647" type="line" smooth="yes"/>
      <point x="407" y="647"/>
      <point x="376" y="603"/>
      <point x="376" y="530" type="curve" smooth="yes"/>
      <point x="376" y="488" type="line"/>
      <point x="546" y="488" type="line"/>
      <point x="546" y="514" type="line" smooth="yes"/>
      <point x="546" y="529"/>
      <point x="554" y="534"/>
      <point x="569" y="534" type="curve" smooth="yes"/>
      <point x="582" y="534" type="line" smooth="yes"/>
      <point x="597" y="534"/>
      <point x="605" y="529"/>
      <point x="605" y="514" type="curve" smooth="yes"/>
      <point x="605" y="290" type="line" smooth="yes"/>
      <point x="605" y="271"/>
      <point x="595" y="266"/>
      <point x="580" y="266" type="curve" smooth="yes"/>
      <point x="562" y="266" type="line" smooth="yes"/>
      <point x="547" y="266"/>
      <point x="537" y="271"/>
      <point x="537" y="290" type="curve" smooth="yes"/>
      <point x="537" y="314" type="line" smooth="yes"/>
      <point x="537" y="329"/>
      <point x="545" y="334"/>
      <point x="560" y="334" type="curve" smooth="yes"/>
      <point x="949" y="334" type="line"/>
      <point x="949" y="447" type="line"/>
      <point x="507" y="447" type="line" smooth="yes"/>
      <point x="398" y="447"/>
      <point x="367" y="413"/>
      <point x="367" y="340" type="curve" smooth="yes"/>
      <point x="367" y="274" type="line" smooth="yes"/>
      <point x="367" y="255"/>
      <point x="373" y="222"/>
      <point x="373" y="222" type="curve"/>
      <point x="373" y="222"/>
      <point x="328" y="275"/>
      <point x="294" y="318" type="curve" smooth="yes"/>
      <point x="253" y="369" type="line"/>
      <point x="325" y="369" type="line"/>
    </contour>
    <contour>
      <point x="853" y="642" type="line"/>
      <point x="853" y="529" type="line"/>
      <point x="1083" y="529" type="line"/>
      <point x="1083" y="642" type="line"/>
    </contour>
    <contour>
      <point x="853" y="572" type="line"/>
      <point x="853" y="252" type="line"/>
      <point x="523" y="-80" type="line"/>
      <point x="683" y="-80" type="line"/>
      <point x="853" y="92" type="line"/>
      <point x="853" y="0" type="line"/>
      <point x="1023" y="0" type="line"/>
      <point x="1023" y="572" type="line"/>
    </contour>
    <contour>
      <point x="-20" y="642" type="line"/>
      <point x="-20" y="529" type="line"/>
      <point x="325" y="529" type="line"/>
      <point x="325" y="642" type="line"/>
    </contour>
  </outline>
</glyph>
<glyph name="dvB_DHA" format="1">
  <advance width="923"/>
  <outline>
    <contour>
      <point x="-20" y="642" type="line"/>
      <point x="-20" y="529" type="line"/>
      <point x="325" y="529" type="line"/>
      <point x="325" y="642" type="line"/>
    </contour>
    <contour>
      <point x="325" y="472" type="line"/>
      <point x="170" y="472" type="line" smooth="yes"/>
      <point x="61" y="472"/>
      <point x="30" y="438"/>
      <point x="30" y="365" type="curve" smooth="yes"/>
      <point x="30" y="205" type="line" smooth="yes"/>
      <point x="30" y="112"/>
      <point x="75" y="78"/>
      <point x="161" y="78" type="curve" smooth="yes"/>
      <point x="331" y="78" type="line" smooth="yes"/>
      <point x="389" y="78"/>
      <point x="413" y="104"/>
      <point x="418" y="148" type="curve"/>
      <point x="384" y="215" type="line"/>
      <point x="384" y="196"/>
      <point x="376" y="191"/>
      <point x="361" y="191" type="curve" smooth="yes"/>
      <point x="223" y="191" type="line" smooth="yes"/>
      <point x="208" y="191"/>
      <point x="200" y="196"/>
      <point x="200" y="215" type="curve" smooth="yes"/>
      <point x="200" y="332" type="line"/>
      <point x="225" y="300"/>
      <point x="252" y="266"/>
      <point x="262" y="254" type="curve" smooth="yes"/>
      <point x="365" y="129" type="line"/>
      <point x="380" y="134" type="line"/>
      <point x="400" y="94"/>
      <point x="446" y="78"/>
      <point x="528" y="78" type="curve" smooth="yes"/>
      <point x="671" y="78" type="line" smooth="yes"/>
      <point x="718" y="78"/>
      <point x="734" y="102"/>
      <point x="734" y="138" type="curve"/>
      <point x="720" y="225" type="line"/>
      <point x="720" y="199"/>
      <point x="712" y="191"/>
      <point x="686" y="191" type="curve" smooth="yes"/>
      <point x="560" y="191" type="line" smooth="yes"/>
      <point x="545" y="191"/>
      <point x="537" y="196"/>
      <point x="537" y="215" type="curve" smooth="yes"/>
      <point x="537" y="266" type="line" smooth="yes"/>
      <point x="537" y="285"/>
      <point x="545" y="290"/>
      <point x="560" y="290" type="curve" smooth="yes"/>
      <point x="629" y="290" type="line"/>
      <point x="629" y="403" type="line"/>
      <point x="560" y="403" type="line" smooth="yes"/>
      <point x="545" y="403"/>
      <point x="537" y="408"/>
      <point x="537" y="427" type="curve" smooth="yes"/>
      <point x="537" y="514" type="line" smooth="yes"/>
      <point x="537" y="529"/>
      <point x="545" y="534"/>
      <point x="560" y="534" type="curve" smooth="yes"/>
      <point x="567" y="534" type="line" smooth="yes"/>
      <point x="582" y="534"/>
      <point x="590" y="529"/>
      <point x="590" y="514" type="curve" smooth="yes"/>
      <point x="590" y="478" type="line"/>
      <point x="680" y="478" type="line"/>
      <point x="680" y="541" type="line" smooth="yes"/>
      <point x="680" y="615"/>
      <point x="639" y="647"/>
      <point x="550" y="647" type="curve" smooth="yes"/>
      <point x="497" y="647" type="line" smooth="yes"/>
      <point x="408" y="647"/>
      <point x="367" y="615"/>
      <point x="367" y="541" type="curve" smooth="yes"/>
      <point x="367" y="405" type="line" smooth="yes"/>
      <point x="367" y="368"/>
      <point x="384" y="353"/>
      <point x="414" y="349" type="curve"/>
      <point x="414" y="344" type="line"/>
      <point x="384" y="340"/>
      <point x="367" y="325"/>
      <point x="367" y="288" type="curve" smooth="yes"/>
      <point x="367" y="274" type="line" smooth="yes"/>
      <point x="367" y="255"/>
      <point x="373" y="222"/>
      <point x="373" y="222" type="curve"/>
      <point x="373" y="222"/>
      <point x="328" y="275"/>
      <point x="294" y="318" type="curve" smooth="yes"/>
      <point x="253" y="369" type="line"/>
      <point x="325" y="369" type="line"/>
    </contour>
    <contour>
      <point x="719" y="642" type="line"/>
      <point x="720" y="529" type="line"/>
      <point x="950" y="529" type="line"/>
      <point x="950" y="642" type="line"/>
    </contour>
    <contour>
      <point x="720" y="592" type="line"/>
      <point x="720" y="0" type="line"/>
      <point x="890" y="0" type="line"/>
      <point x="890" y="592" type="line"/>
    </contour>
  </outline>
</glyph>
<glyph name="dvB_JA" format="1">
  <advance width="1055"/>
  <outline>
    <contour>
      <point x="845" y="572" type="line"/>
      <point x="845" y="0" type="line"/>
      <point x="1015" y="0" type="line"/>
      <point x="1015" y="572" type="line"/>
    </contour>
    <contour>
      <point x="-20" y="642" type="line"/>
      <point x="-20" y="529" type="line"/>
      <point x="1075" y="529" type="line"/>
      <point x="1075" y="642" type="line"/>
    </contour>
    <contour>
      <point x="200" y="215" type="curve"/>
      <point x="200" y="332" type="line"/>
      <point x="225" y="300"/>
      <point x="252" y="266"/>
      <point x="262" y="254" type="curve" smooth="yes"/>
      <point x="310" y="195" type="line"/>
      <point x="310" y="192"/>
      <point x="309" y="191"/>
      <point x="303" y="191" type="curve" smooth="yes"/>
      <point x="223" y="191" type="line" smooth="yes"/>
      <point x="208" y="191"/>
      <point x="200" y="196"/>
    </contour>
    <contour>
      <point x="325" y="472" type="line"/>
      <point x="170" y="472" type="line" smooth="yes"/>
      <point x="61" y="472"/>
      <point x="30" y="438"/>
      <point x="30" y="365" type="curve" smooth="yes"/>
      <point x="30" y="205" type="line" smooth="yes"/>
      <point x="30" y="112"/>
      <point x="75" y="78"/>
      <point x="161" y="78" type="curve" smooth="yes"/>
      <point x="348" y="78" type="line" smooth="yes"/>
      <point x="395" y="78"/>
      <point x="411" y="102"/>
      <point x="411" y="138" type="curve"/>
      <point x="367" y="205" type="line"/>
      <point x="367" y="112"/>
      <point x="408" y="78"/>
      <point x="528" y="78" type="curve" smooth="yes"/>
      <point x="614" y="78" type="line" smooth="yes"/>
      <point x="734" y="78"/>
      <point x="775" y="112"/>
      <point x="775" y="205" type="curve" smooth="yes"/>
      <point x="775" y="359" type="line"/>
      <point x="872" y="359" type="line"/>
      <point x="872" y="472" type="line"/>
      <point x="605" y="472" type="line"/>
      <point x="605" y="215" type="line" smooth="yes"/>
      <point x="605" y="196"/>
      <point x="595" y="191"/>
      <point x="580" y="191" type="curve" smooth="yes"/>
      <point x="562" y="191" type="line" smooth="yes"/>
      <point x="547" y="191"/>
      <point x="537" y="196"/>
      <point x="537" y="215" type="curve" smooth="yes"/>
      <point x="537" y="472" type="line"/>
      <point x="367" y="472" type="line"/>
      <point x="367" y="325" type="line" smooth="yes"/>
      <point x="367" y="236"/>
      <point x="373" y="222"/>
      <point x="373" y="222" type="curve" smooth="yes"/>
      <point x="373" y="222"/>
      <point x="328" y="275"/>
      <point x="294" y="318" type="curve" smooth="yes"/>
      <point x="253" y="369" type="line"/>
      <point x="325" y="369" type="line"/>
    </contour>
  </outline>
</glyph>
<glyph name="dvB_JHA" format="1">
  <advance width="1062"/>
  <outline>
    <contour>
      <point x="315" y="472" type="line"/>
      <point x="171" y="472" type="line" smooth="yes"/>
      <point x="85" y="472"/>
      <point x="40" y="438"/>
      <point x="40" y="345" type="curve" smooth="yes"/>
      <point x="40" y="127" type="line" smooth="yes"/>
      <point x="40" y="34"/>
      <point x="85" y="0"/>
      <point x="171" y="0" type="curve" smooth="yes"/>
      <point x="335" y="0" type="line" smooth="yes"/>
      <point x="373" y="0"/>
      <point x="391" y="17"/>
      <point x="396" y="47" type="curve"/>
      <point x="380" y="44" type="line"/>
      <point x="380" y="-62" type="line"/>
      <point x="550" y="-62" type="line"/>
      <point x="550" y="165" type="line"/>
      <point x="380" y="165" type="line"/>
      <point x="380" y="76" type="line"/>
      <point x="395" y="81" type="line"/>
      <point x="243" y="379" type="line"/>
      <point x="224" y="369" type="line"/>
      <point x="315" y="369" type="line"/>
    </contour>
    <contour>
      <point x="210" y="137" type="curve"/>
      <point x="210" y="311" type="line"/>
      <point x="222" y="275"/>
      <point x="235" y="250"/>
      <point x="255" y="213" type="curve" smooth="yes"/>
      <point x="306" y="117" type="line"/>
      <point x="306" y="114"/>
      <point x="305" y="113"/>
      <point x="299" y="113" type="curve"/>
      <point x="233" y="113" type="line" smooth="yes"/>
      <point x="218" y="113"/>
      <point x="210" y="118"/>
    </contour>
    <contour>
      <point x="-20" y="642" type="line"/>
      <point x="-20" y="529" type="line"/>
      <point x="1082" y="529" type="line"/>
      <point x="1082" y="642" type="line"/>
    </contour>
    <contour>
      <point x="853" y="578" type="line"/>
      <point x="852" y="0" type="line"/>
      <point x="1022" y="0" type="line"/>
      <point x="1022" y="578" type="line"/>
    </contour>
    <contour>
      <point x="594" y="593" type="line"/>
      <point x="594" y="472" type="line"/>
      <point x="520" y="472" type="line" smooth="yes"/>
      <point x="411" y="472"/>
      <point x="380" y="438"/>
      <point x="380" y="365" type="curve" smooth="yes"/>
      <point x="380" y="309" type="line" smooth="yes"/>
      <point x="380" y="236"/>
      <point x="411" y="202"/>
      <point x="520" y="202" type="curve" smooth="yes"/>
      <point x="589" y="202" type="line" smooth="yes"/>
      <point x="604" y="202"/>
      <point x="612" y="197"/>
      <point x="612" y="182" type="curve" smooth="yes"/>
      <point x="612" y="123" type="line" smooth="yes"/>
      <point x="612" y="108"/>
      <point x="604" y="103"/>
      <point x="589" y="103" type="curve" smooth="yes"/>
      <point x="522" y="103" type="line"/>
      <point x="522" y="0" type="line"/>
      <point x="642" y="0" type="line" smooth="yes"/>
      <point x="751" y="0"/>
      <point x="782" y="34"/>
      <point x="782" y="107" type="curve" smooth="yes"/>
      <point x="782" y="180" type="line" smooth="yes"/>
      <point x="782" y="198"/>
      <point x="779" y="215"/>
      <point x="772" y="229" type="curve"/>
      <point x="736" y="202" type="line"/>
      <point x="866" y="202" type="line"/>
      <point x="866" y="305" type="line"/>
      <point x="573" y="305" type="line" smooth="yes"/>
      <point x="558" y="305"/>
      <point x="550" y="310"/>
      <point x="550" y="325" type="curve" smooth="yes"/>
      <point x="550" y="349" type="line" smooth="yes"/>
      <point x="550" y="364"/>
      <point x="558" y="369"/>
      <point x="573" y="369" type="curve" smooth="yes"/>
      <point x="764" y="369" type="line"/>
      <point x="764" y="593" type="line"/>
    </contour>
  </outline>
</glyph>
<glyph name="dvB_LA" format="1">
  <advance width="1062"/>
  <outline>
    <contour>
      <point x="-20" y="642" type="line"/>
      <point x="-20" y="529" type="line"/>
      <point x="1082" y="529" type="line"/>
      <point x="1082" y="642" type="line"/>
    </contour>
    <contour>
      <point x="367" y="345" type="curve"/>
      <point x="367" y="325" type="line" smooth="yes"/>
      <point x="367" y="236"/>
      <point x="373" y="222"/>
      <point x="373" y="222" type="curve"/>
      <point x="373" y="222"/>
      <point x="328" y="275"/>
      <point x="294" y="318" type="curve" smooth="yes"/>
      <point x="253" y="369" type="line"/>
      <point x="325" y="369" type="line"/>
      <point x="325" y="472" type="line"/>
      <point x="170" y="472" type="line" smooth="yes"/>
      <point x="61" y="472"/>
      <point x="30" y="438"/>
      <point x="30" y="365" type="curve" smooth="yes"/>
      <point x="30" y="205" type="line" smooth="yes"/>
      <point x="30" y="112"/>
      <point x="75" y="78"/>
      <point x="161" y="78" type="curve" smooth="yes"/>
      <point x="331" y="78" type="line" smooth="yes"/>
      <point x="388" y="78"/>
      <point x="398" y="102"/>
      <point x="398" y="148" type="curve"/>
      <point x="384" y="215" type="line"/>
      <point x="384" y="196"/>
      <point x="376" y="191"/>
      <point x="361" y="191" type="curve" smooth="yes"/>
      <point x="223" y="191" type="line" smooth="yes"/>
      <point x="208" y="191"/>
      <point x="200" y="196"/>
      <point x="200" y="215" type="curve" smooth="yes"/>
      <point x="200" y="332" type="line"/>
      <point x="225" y="300"/>
      <point x="252" y="266"/>
      <point x="262" y="254" type="curve" smooth="yes"/>
      <point x="373" y="119" type="line"/>
      <point x="370" y="112" type="line"/>
      <point x="367" y="107" type="line"/>
      <point x="367" y="34"/>
      <point x="398" y="0"/>
      <point x="507" y="0" type="curve" smooth="yes"/>
      <point x="610" y="0" type="line"/>
      <point x="610" y="113" type="line"/>
      <point x="560" y="113" type="line" smooth="yes"/>
      <point x="545" y="113"/>
      <point x="537" y="118"/>
      <point x="537" y="133" type="curve" smooth="yes"/>
      <point x="537" y="335" type="line" smooth="yes"/>
      <point x="537" y="354"/>
      <point x="545" y="359"/>
      <point x="560" y="359" type="curve" smooth="yes"/>
      <point x="589" y="359" type="line" smooth="yes"/>
      <point x="608" y="359"/>
      <point x="612" y="350"/>
      <point x="612" y="335" type="curve" smooth="yes"/>
      <point x="612" y="168" type="line"/>
      <point x="782" y="168" type="line"/>
      <point x="782" y="335" type="line" smooth="yes"/>
      <point x="782" y="350"/>
      <point x="786" y="359"/>
      <point x="805" y="359" type="curve" smooth="yes"/>
      <point x="865" y="359" type="line"/>
      <point x="865" y="472" type="line"/>
      <point x="756" y="472" type="line" smooth="yes"/>
      <point x="719" y="472"/>
      <point x="704" y="455"/>
      <point x="700" y="425" type="curve"/>
      <point x="695" y="425" type="line"/>
      <point x="691" y="455"/>
      <point x="676" y="472"/>
      <point x="639" y="472" type="curve" smooth="yes"/>
      <point x="498" y="472" type="line" smooth="yes"/>
      <point x="412" y="472"/>
      <point x="367" y="438"/>
    </contour>
    <contour>
      <point x="1022" y="0" type="line"/>
      <point x="1022" y="548" type="line"/>
      <point x="852" y="548" type="line"/>
      <point x="852" y="0" type="line"/>
    </contour>
  </outline>
</glyph>
<glyph name="dvB_L_YA" format="1">
  <advance width="1440"/>
  <outline>
    <contour>
      <point x="367" y="315" type="curve"/>
      <point x="367" y="295" type="line" smooth="yes"/>
      <point x="367" y="251"/>
      <point x="373" y="222"/>
      <point x="373" y="222" type="curve"/>
      <point x="373" y="222"/>
      <point x="328" y="275"/>
      <point x="294" y="318" type="curve" smooth="yes"/>
      <point x="253" y="369" type="line"/>
      <point x="325" y="369" type="line"/>
      <point x="325" y="472" type="line"/>
      <point x="170" y="472" type="line" smooth="yes"/>
      <point x="61" y="472"/>
      <point x="30" y="438"/>
      <point x="30" y="365" type="curve" smooth="yes"/>
      <point x="30" y="205" type="line" smooth="yes"/>
      <point x="30" y="112"/>
      <point x="75" y="78"/>
      <point x="161" y="78" type="curve" smooth="yes"/>
      <point x="331" y="78" type="line" smooth="yes"/>
      <point x="388" y="78"/>
      <point x="398" y="102"/>
      <point x="398" y="148" type="curve"/>
      <point x="384" y="215" type="line"/>
      <point x="384" y="196"/>
      <point x="376" y="191"/>
      <point x="361" y="191" type="curve" smooth="yes"/>
      <point x="223" y="191" type="line" smooth="yes"/>
      <point x="208" y="191"/>
      <point x="200" y="196"/>
      <point x="200" y="215" type="curve" smooth="yes"/>
      <point x="200" y="332" type="line"/>
      <point x="225" y="300"/>
      <point x="252" y="266"/>
      <point x="262" y="254" type="curve" smooth="yes"/>
      <point x="373" y="119" type="line"/>
      <point x="370" y="112" type="line"/>
      <point x="367" y="107" type="line"/>
      <point x="367" y="34"/>
      <point x="398" y="0"/>
      <point x="507" y="0" type="curve" smooth="yes"/>
      <point x="610" y="0" type="line"/>
      <point x="610" y="113" type="line"/>
      <point x="560" y="113" type="line" smooth="yes"/>
      <point x="545" y="113"/>
      <point x="537" y="118"/>
      <point x="537" y="133" type="curve" smooth="yes"/>
      <point x="537" y="305" type="line" smooth="yes"/>
      <point x="537" y="324"/>
      <point x="545" y="329"/>
      <point x="560" y="329" type="curve" smooth="yes"/>
      <point x="589" y="329" type="line" smooth="yes"/>
      <point x="608" y="329"/>
      <point x="612" y="320"/>
      <point x="612" y="305" type="curve" smooth="yes"/>
      <point x="612" y="168" type="line"/>
      <point x="782" y="168" type="line"/>
      <point x="782" y="305" type="line" smooth="yes"/>
      <point x="782" y="320"/>
      <point x="786" y="329"/>
      <point x="805" y="329" type="curve" smooth="yes"/>
      <point x="865" y="329" type="line"/>
      <point x="865" y="442" type="line"/>
      <point x="756" y="442" type="line" smooth="yes"/>
      <point x="719" y="442"/>
      <point x="704" y="425"/>
      <point x="700" y="395" type="curve"/>
      <point x="695" y="395" type="line"/>
      <point x="691" y="425"/>
      <point x="676" y="442"/>
      <point x="639" y="442" type="curve" smooth="yes"/>
      <point x="498" y="442" type="line" smooth="yes"/>
      <point x="412" y="442"/>
      <point x="367" y="408"/>
    </contour>
    <contour>
      <point x="-20" y="642" type="line"/>
      <point x="-20" y="529" type="line"/>
      <point x="1460" y="529" type="line"/>
      <point x="1460" y="642" type="line"/>
    </contour>
    <contour>
      <point x="1230" y="592" type="line"/>
      <point x="1230" y="0" type="line"/>
      <point x="1400" y="0" type="line"/>
      <point x="1400" y="592" type="line"/>
    </contour>
    <contour>
      <point x="1162" y="446" type="curve"/>
      <point x="1162" y="485" type="line" smooth="yes"/>
      <point x="1162" y="543"/>
      <point x="1118" y="557"/>
      <point x="1045" y="557" type="curve"/>
      <point x="966" y="529" type="line"/>
      <point x="992" y="529"/>
      <point x="1000" y="521"/>
      <point x="1000" y="495" type="curve" smooth="yes"/>
      <point x="1000" y="462" type="line" smooth="yes"/>
      <point x="1000" y="447"/>
      <point x="992" y="442"/>
      <point x="977" y="442" type="curve" smooth="yes"/>
      <point x="852" y="442" type="line"/>
      <point x="852" y="205" type="line" smooth="yes"/>
      <point x="852" y="112"/>
      <point x="903" y="78"/>
      <point x="1013" y="78" type="curve" smooth="yes"/>
      <point x="1181" y="78" type="line" smooth="yes"/>
      <point x="1228" y="78"/>
      <point x="1244" y="102"/>
      <point x="1244" y="138" type="curve"/>
      <point x="1230" y="225" type="line"/>
      <point x="1230" y="199"/>
      <point x="1222" y="191"/>
      <point x="1196" y="191" type="curve" smooth="yes"/>
      <point x="1045" y="191" type="line" smooth="yes"/>
      <point x="1030" y="191"/>
      <point x="1022" y="196"/>
      <point x="1022" y="215" type="curve" smooth="yes"/>
      <point x="1022" y="329" type="line"/>
      <point x="1027" y="329" type="line" smooth="yes"/>
      <point x="1136" y="329"/>
      <point x="1162" y="373"/>
    </contour>
  </outline>
</glyph>
<glyph name="dvB_TA" format="1">
  <advance width="820"/>
  <outline>
    <contour>
      <point x="325" y="472" type="line"/>
      <point x="170" y="472" type="line" smooth="yes"/>
      <point x="61" y="472"/>
      <point x="30" y="438"/>
      <point x="30" y="365" type="curve" smooth="yes"/>
      <point x="30" y="205" type="line" smooth="yes"/>
      <point x="30" y="112"/>
      <point x="75" y="78"/>
      <point x="161" y="78" type="curve" smooth="yes"/>
      <point x="331" y="78" type="line" smooth="yes"/>
      <point x="388" y="78"/>
      <point x="398" y="102"/>
      <point x="398" y="148" type="curve"/>
      <point x="384" y="215" type="line"/>
      <point x="384" y="196"/>
      <point x="376" y="191"/>
      <point x="361" y="191" type="curve" smooth="yes"/>
      <point x="223" y="191" type="line" smooth="yes"/>
      <point x="208" y="191"/>
      <point x="200" y="196"/>
      <point x="200" y="215" type="curve" smooth="yes"/>
      <point x="200" y="332" type="line"/>
      <point x="225" y="300"/>
      <point x="252" y="266"/>
      <point x="262" y="254" type="curve" smooth="yes"/>
      <point x="373" y="119" type="line"/>
      <point x="370" y="112" type="line"/>
      <point x="367" y="107" type="line"/>
      <point x="367" y="34"/>
      <point x="398" y="0"/>
      <point x="507" y="0" type="curve" smooth="yes"/>
      <point x="571" y="0" type="line"/>
      <point x="571" y="113" type="line"/>
      <point x="560" y="113" type="line" smooth="yes"/>
      <point x="545" y="113"/>
      <point x="537" y="118"/>
      <point x="537" y="133" type="curve" smooth="yes"/>
      <point x="537" y="339" type="line" smooth="yes"/>
      <point x="537" y="354"/>
      <point x="545" y="359"/>
      <point x="560" y="359" type="curve" smooth="yes"/>
      <point x="623" y="359" type="line"/>
      <point x="623" y="472" type="line"/>
      <point x="507" y="472" type="line" smooth="yes"/>
      <point x="398" y="472"/>
      <point x="367" y="438"/>
      <point x="367" y="365" type="curve" smooth="yes"/>
      <point x="367" y="325" type="line" smooth="yes"/>
      <point x="367" y="236"/>
      <point x="373" y="222"/>
      <point x="373" y="222" type="curve"/>
      <point x="373" y="222"/>
      <point x="328" y="275"/>
      <point x="294" y="318" type="curve" smooth="yes"/>
      <point x="253" y="369" type="line"/>
      <point x="325" y="369" type="line"/>
    </contour>
    <contour>
      <point x="780" y="552" type="line"/>
      <point x="610" y="552" type="line"/>
      <point x="610" y="0" type="line"/>
      <point x="780" y="0" type="line"/>
    </contour>
    <contour>
      <point x="-20" y="642" type="line"/>
      <point x="-20" y="529" type="line"/>
      <point x="840" y="529" type="line"/>
      <point x="840" y="642" type="line"/>
    </contour>
  </outline>
</glyph>
<glyph name="dvCH_R" format="1">
  <advance width="701"/>
  <outline>
    <contour>
      <point x="-20" y="642" type="line"/>
      <point x="-20" y="529" type="line"/>
      <point x="721" y="529" type="line"/>
      <point x="721" y="642" type="line"/>
    </contour>
    <contour>
      <point x="34" y="504" type="curve"/>
      <point x="34" y="375" type="line" smooth="yes"/>
      <point x="34" y="338"/>
      <point x="51" y="323"/>
      <point x="81" y="319" type="curve"/>
      <point x="81" y="314" type="line"/>
      <point x="51" y="310"/>
      <point x="34" y="295"/>
      <point x="34" y="258" type="curve" smooth="yes"/>
      <point x="34" y="127" type="line" smooth="yes"/>
      <point x="34" y="34"/>
      <point x="85" y="0"/>
      <point x="195" y="0" type="curve" smooth="yes"/>
      <point x="500" y="0" type="line" smooth="yes"/>
      <point x="610" y="0"/>
      <point x="661" y="34"/>
      <point x="661" y="127" type="curve" smooth="yes"/>
      <point x="661" y="365" type="line" smooth="yes"/>
      <point x="661" y="449"/>
      <point x="611" y="472"/>
      <point x="518" y="472" type="curve" smooth="yes"/>
      <point x="442" y="472" type="line" smooth="yes"/>
      <point x="349" y="472"/>
      <point x="299" y="449"/>
      <point x="299" y="365" type="curve" smooth="yes"/>
      <point x="299" y="312" type="line" smooth="yes"/>
      <point x="299" y="228"/>
      <point x="349" y="205"/>
      <point x="422" y="205" type="curve" smooth="yes"/>
      <point x="463" y="205" type="line"/>
      <point x="463" y="298" type="line"/>
      <point x="452" y="298" type="line" smooth="yes"/>
      <point x="437" y="298"/>
      <point x="429" y="303"/>
      <point x="429" y="318" type="curve" smooth="yes"/>
      <point x="429" y="358" type="line" smooth="yes"/>
      <point x="429" y="373"/>
      <point x="437" y="378"/>
      <point x="452" y="378" type="curve" smooth="yes"/>
      <point x="468" y="378" type="line" smooth="yes"/>
      <point x="483" y="378"/>
      <point x="491" y="373"/>
      <point x="491" y="358" type="curve" smooth="yes"/>
      <point x="491" y="139" type="line" smooth="yes"/>
      <point x="491" y="120"/>
      <point x="483" y="115"/>
      <point x="468" y="115" type="curve" smooth="yes"/>
      <point x="227" y="115" type="line" smooth="yes"/>
      <point x="212" y="115"/>
      <point x="204" y="120"/>
      <point x="204" y="139" type="curve" smooth="yes"/>
      <point x="204" y="236" type="line" smooth="yes"/>
      <point x="204" y="255"/>
      <point x="212" y="260"/>
      <point x="227" y="260" type="curve" smooth="yes"/>
      <point x="260" y="260" type="line"/>
      <point x="260" y="373" type="line"/>
      <point x="227" y="373" type="line" smooth="yes"/>
      <point x="212" y="373"/>
      <point x="204" y="378"/>
      <point x="204" y="397" type="curve" smooth="yes"/>
      <point x="204" y="495" type="line" smooth="yes"/>
      <point x="204" y="521"/>
      <point x="212" y="529"/>
      <point x="238" y="529" type="curve"/>
      <point x="144" y="557" type="line"/>
      <point x="78" y="557"/>
      <point x="34" y="550"/>
    </contour>
    <component base="dvRashtrasign" xOffset="482"/>
  </outline>
</glyph>
